Oxygen-Bold.ufo
<glyph name="exclam" format="1">
  <advance width="399"/>
  <unicode hex="0021"/>
  <outline>
    <contour>
      <point x="39" y="139" type="curve" smooth="yes"/>
      <point x="39" y="227"/>
      <point x="113" y="301"/>
      <point x="201" y="301" type="curve" smooth="yes"/>
      <point x="287" y="301"/>
      <point x="360" y="227"/>
      <point x="360" y="139" type="curve" smooth="yes"/>
      <point x="360" y="51"/>
      <point x="287" y="-20"/>
      <point x="201" y="-20" type="curve" smooth="yes"/>
      <point x="113" y="-20"/>
      <point x="39" y="51"/>
    </contour>
    <contour>
      <point x="335" y="1445" type="line"/>
      <point x="335" y="1198" type="line"/>
      <point x="269" y="454" type="line"/>
      <point x="152" y="454" type="line"/>
      <point x="79" y="1198" type="line"/>
      <point x="79" y="1445" type="line"/>
    </contour>
  </outline>
</glyph>
<glyph name="quotedbl" format="1">
  <advance width="647"/>
  <unicode hex="0022"/>
  <outline>
    <contour>
      <point x="99" y="937" type="line"/>
      <point x="61" y="1453" type="line"/>
      <point x="279" y="1453" type="line"/>
      <point x="279" y="937" type="line"/>
    </contour>
    <contour>
      <point x="402" y="937" type="line"/>
      <point x="369" y="1453" type="line"/>
      <point x="581" y="1453" type="line"/>
      <point x="581" y="937" type="line"/>
    </contour>
  </outline>
</glyph>
<glyph name="dollar" format="1">
  <advance width="1176"/>
  <unicode hex="0024"/>
  <outline>
    <component base="S"/>
    <contour>
      <point x="561" y="1639" type="line"/>
      <point x="663" y="1639" type="line"/>
      <point x="663" y="-196" type="line"/>
      <point x="561" y="-196" type="line"/>
    </contour>
  </outline>
</glyph>
<glyph name="ampersand" format="1">
  <advance width="1400"/>
  <unicode hex="0026"/>
  <outline>
    <contour>
      <point x="359" y="840" type="curve"/>
      <point x="191" y="749"/>
      <point x="41" y="627"/>
      <point x="41" y="407" type="curve" smooth="yes"/>
      <point x="41" y="88"/>
      <point x="312" y="-23"/>
      <point x="560" y="-23" type="curve" smooth="yes"/>
      <point x="714" y="-23"/>
      <point x="867" y="28"/>
      <point x="1003" y="129" type="curve"/>
      <point x="1143" y="-17" type="line"/>
      <point x="1373" y="55" type="line"/>
      <point x="1165" y="274" type="line"/>
      <point x="1231" y="349"/>
      <point x="1287" y="433"/>
      <point x="1335" y="525" type="curve"/>
      <point x="1154" y="645" type="line"/>
      <point x="1114" y="569"/>
      <point x="1069" y="497"/>
      <point x="1012" y="432" type="curve"/>
      <point x="679" y="789" type="line"/>
      <point x="825" y="864"/>
      <point x="985" y="969"/>
      <point x="985" y="1163" type="curve" smooth="yes"/>
      <point x="985" y="1393"/>
      <point x="773" y="1483"/>
      <point x="591" y="1483" type="curve" smooth="yes"/>
      <point x="401" y="1483"/>
      <point x="216" y="1383"/>
      <point x="216" y="1145" type="curve" smooth="yes"/>
      <point x="216" y="1014"/>
      <point x="282" y="929"/>
    </contour>
    <contour>
      <point x="484" y="714" type="curve"/>
      <point x="849" y="291" type="line"/>
      <point x="763" y="232"/>
      <point x="667" y="194"/>
      <point x="567" y="194" type="curve" smooth="yes"/>
      <point x="422" y="194"/>
      <point x="290" y="253"/>
      <point x="290" y="433" type="curve" smooth="yes"/>
      <point x="290" y="575"/>
      <point x="379" y="652"/>
    </contour>
    <contour>
      <point x="593" y="1283" type="curve" smooth="yes"/>
      <point x="677" y="1283"/>
      <point x="738" y="1239"/>
      <point x="738" y="1142" type="curve" smooth="yes"/>
      <point x="738" y="1023"/>
      <point x="637" y="967"/>
      <point x="549" y="917" type="curve"/>
      <point x="493" y="978"/>
      <point x="442" y="1044"/>
      <point x="442" y="1136" type="curve" smooth="yes"/>
      <point x="442" y="1239"/>
      <point x="505" y="1283"/>
    </contour>
  </outline>
</glyph>
<glyph name="quotesingle" format="1">
  <advance width="345"/>
  <unicode hex="0027"/>
  <outline>
    <contour>
      <point x="278" y="937" type="line"/>
      <point x="278" y="1453" type="line"/>
      <point x="61" y="1453" type="line"/>
      <point x="98" y="937" type="line"/>
    </contour>
  </outline>
</glyph>
<glyph name="parenright" format="1">
  <advance width="624"/>
  <unicode hex="0029"/>
  <outline>
    <contour>
      <point x="259" y="-230" type="line"/>
      <point x="401" y="4"/>
      <point x="530" y="266"/>
      <point x="530" y="634" type="curve" smooth="yes"/>
      <point x="530" y="1002"/>
      <point x="401" y="1264"/>
      <point x="259" y="1498" type="curve"/>
      <point x="-6" y="1498" type="line"/>
      <point x="-6" y="1498"/>
      <point x="247" y="1049"/>
      <point x="247" y="634" type="curve" smooth="yes"/>
      <point x="247" y="219"/>
      <point x="-6" y="-230"/>
      <point x="-6" y="-230" type="curve"/>
    </contour>
  </outline>
</glyph>
<glyph name="asterisk" format="1">
  <advance width="1060"/>
  <unicode hex="002A"/>
  <outline>
    <contour>
      <point x="638" y="1444" type="line"/>
      <point x="612" y="1097" type="line"/>
      <point x="916" y="1246" type="line"/>
      <point x="1010" y="1058" type="line"/>
      <point x="670" y="935" type="line"/>
      <point x="922" y="637" type="line"/>
      <point x="722" y="517" type="line"/>
      <point x="530" y="826" type="line"/>
      <point x="338" y="517" type="line"/>
      <point x="138" y="637" type="line"/>
      <point x="390" y="935" type="line"/>
      <point x="50" y="1058" type="line"/>
      <point x="144" y="1246" type="line"/>
      <point x="448" y="1097" type="line"/>
      <point x="422" y="1444" type="line"/>
    </contour>
  </outline>
</glyph>
<glyph name="hyphen" format="1">
  <advance width="698"/>
  <unicode hex="002D"/>
  <outline>
    <contour>
      <point x="70" y="433" type="line"/>
      <point x="70" y="627" type="line"/>
      <point x="628" y="627" type="line"/>
      <point x="628" y="433" type="line"/>
    </contour>
  </outline>
</glyph>
<glyph name="slash" format="1">
  <advance width="922"/>
  <unicode hex="002F"/>
  <outline>
    <contour>
      <point x="280" y="-179" type="line"/>
      <point x="869" y="1497" type="line"/>
      <point x="636" y="1497" type="line"/>
      <point x="51" y="-179" type="line"/>
    </contour>
  </outline>
</glyph>
<glyph name="zero" format="1">
  <advance width="1298"/>
  <unicode hex="0030"/>
  <outline>
    <contour>
      <point x="649" y="1478" type="curve" smooth="yes"/>
      <point x="1065" y="1478"/>
      <point x="1203" y="1109"/>
      <point x="1203" y="726" type="curve" smooth="yes"/>
      <point x="1203" y="343"/>
      <point x="1067" y="-20"/>
      <point x="649" y="-20" type="curve" smooth="yes"/>
      <point x="231" y="-20"/>
      <point x="95" y="343"/>
      <point x="95" y="726" type="curve" smooth="yes"/>
      <point x="95" y="1112"/>
      <point x="233" y="1478"/>
    </contour>
    <contour>
      <point x="650" y="210" type="curve" smooth="yes"/>
      <point x="870" y="210"/>
      <point x="906" y="483"/>
      <point x="906" y="734" type="curve" smooth="yes"/>
      <point x="906" y="984"/>
      <point x="869" y="1243"/>
      <point x="649" y="1243" type="curve" smooth="yes"/>
      <point x="430" y="1243"/>
      <point x="394" y="985"/>
      <point x="392" y="739" type="curve"/>
      <point x="394" y="739" type="line"/>
      <point x="394" y="734" type="line" smooth="yes"/>
      <point x="394" y="481"/>
      <point x="429" y="210"/>
    </contour>
  </outline>
</glyph>
<glyph name="one" format="1">
  <advance width="698"/>
  <unicode hex="0031"/>
  <outline>
    <contour>
      <point x="337" y="1447" type="line"/>
      <point x="44" y="1292" type="line"/>
      <point x="44" y="1080" type="line"/>
      <point x="299" y="1189" type="line"/>
      <point x="299" y="1" type="line"/>
      <point x="577" y="1" type="line"/>
      <point x="577" y="1447" type="line"/>
    </contour>
  </outline>
</glyph>
<glyph name="two" format="1">
  <advance width="1014"/>
  <unicode hex="0032"/>
  <outline>
    <contour>
      <point x="129" y="1122" type="curve"/>
      <point x="50" y="1335" type="line"/>
      <point x="156" y="1429"/>
      <point x="274" y="1478"/>
      <point x="451" y="1478" type="curve" smooth="yes"/>
      <point x="726" y="1478"/>
      <point x="939" y="1320"/>
      <point x="939" y="1040" type="curve" smooth="yes"/>
      <point x="939" y="813"/>
      <point x="777" y="629"/>
      <point x="661" y="507" type="curve" smooth="yes"/>
      <point x="377" y="211" type="line"/>
      <point x="924" y="211" type="line"/>
      <point x="904" y="0" type="line"/>
      <point x="53" y="0" type="line"/>
      <point x="53" y="233" type="line"/>
      <point x="494" y="720" type="line" smooth="yes"/>
      <point x="577" y="811"/>
      <point x="645" y="910"/>
      <point x="645" y="1041" type="curve" smooth="yes"/>
      <point x="645" y="1156"/>
      <point x="547.009" y="1243"/>
      <point x="431" y="1243" type="curve" smooth="yes"/>
      <point x="305" y="1243"/>
      <point x="197" y="1181"/>
    </contour>
  </outline>
</glyph>
<glyph name="three" format="1">
  <advance width="1049"/>
  <unicode hex="0033"/>
  <outline>
    <contour>
      <point x="990" y="406" type="line" smooth="yes"/>
      <point x="986" y="583"/>
      <point x="891" y="716"/>
      <point x="715" y="761" type="curve"/>
      <point x="870" y="813"/>
      <point x="947" y="930"/>
      <point x="947" y="1078" type="curve" smooth="yes"/>
      <point x="947" y="1305"/>
      <point x="759" y="1478"/>
      <point x="469" y="1478" type="curve" smooth="yes"/>
      <point x="292" y="1478"/>
      <point x="160" y="1454"/>
      <point x="46" y="1367" type="curve"/>
      <point x="121" y="1162" type="line"/>
      <point x="206" y="1214"/>
      <point x="318" y="1243"/>
      <point x="445" y="1243" type="curve" smooth="yes"/>
      <point x="598" y="1243"/>
      <point x="672" y="1144"/>
      <point x="672" y="1058" type="curve" smooth="yes"/>
      <point x="672" y="899"/>
      <point x="524" y="864"/>
      <point x="317" y="864" type="curve" smooth="yes"/>
      <point x="260" y="864" type="line"/>
      <point x="260" y="644" type="line"/>
      <point x="317" y="644" type="line" smooth="yes"/>
      <point x="548" y="640"/>
      <point x="693" y="610"/>
      <point x="693" y="411" type="curve" smooth="yes"/>
      <point x="693" y="294"/>
      <point x="603" y="211"/>
      <point x="467" y="211" type="curve" smooth="yes"/>
      <point x="339" y="211"/>
      <point x="193" y="248"/>
      <point x="122" y="309" type="curve"/>
      <point x="47" y="106" type="line"/>
      <point x="144" y="22"/>
      <point x="309" y="-20"/>
      <point x="470" y="-20" type="curve" smooth="yes"/>
      <point x="755" y="-20"/>
      <point x="990" y="117"/>
      <point x="990" y="394" type="curve" smooth="yes"/>
    </contour>
  </outline>
</glyph>
<glyph name="five" format="1">
  <advance width="1104"/>
  <unicode hex="0035"/>
  <outline>
    <contour>
      <point x="975" y="1445" type="line"/>
      <point x="188" y="1445" type="line"/>
      <point x="152" y="648" type="line"/>
      <point x="332" y="609" type="line"/>
      <point x="399.169006348" y="685.157470703"/>
      <point x="474.371841431" y="719.565185547"/>
      <point x="542.065246582" y="719.565185547" type="curve" smooth="yes"/>
      <point x="654.366226196" y="719.565185547"/>
      <point x="746.0" y="624.869522095"/>
      <point x="746.0" y="469.0" type="curve" smooth="yes"/>
      <point x="746.0" y="321.0"/>
      <point x="673.0" y="206.0"/>
      <point x="494.0" y="206.0" type="curve" smooth="yes"/>
      <point x="330.0" y="206.0"/>
      <point x="178.0" y="324.0"/>
      <point x="178.0" y="324.0" type="curve"/>
      <point x="96.0" y="121.0" type="line"/>
      <point x="96.0" y="121.0"/>
      <point x="307.0" y="-20.0"/>
      <point x="535.0" y="-20.0" type="curve" smooth="yes"/>
      <point x="858.0" y="-20.0"/>
      <point x="1029.0" y="178.0"/>
      <point x="1029.0" y="465.0" type="curve" smooth="yes"/>
      <point x="1029.0" y="750.0"/>
      <point x="845.0" y="938.0"/>
      <point x="590.0" y="938.0" type="curve" smooth="yes"/>
      <point x="538.666671753" y="938.0"/>
      <point x="484.222229004" y="926.0"/>
      <point x="429.0" y="900.0" type="curve"/>
      <point x="441.0" y="1225.0" type="line"/>
      <point x="960.0" y="1225.0" type="line"/>
    </contour>
  </outline>
</glyph>
<glyph name="seven" format="1">
  <advance width="1001"/>
  <unicode hex="0037"/>
  <outline>
    <contour>
      <point x="210" y="-1" type="line"/>
      <point x="664" y="1230" type="line"/>
      <point x="52" y="1230" type="line"/>
      <point x="52" y="1446" type="line"/>
      <point x="983" y="1446" type="line"/>
      <point x="983" y="1283" type="line"/>
      <point x="497" y="-1" type="line"/>
    </contour>
  </outline>
</glyph>
<glyph name="nine" format="1">
  <advance width="1216"/>
  <unicode hex="0039"/>
  <outline>
    <contour>
      <point x="366" y="1006" type="curve" smooth="yes"/>
      <point x="366" y="1163"/>
      <point x="462" y="1263"/>
      <point x="628" y="1263" type="curve" smooth="yes"/>
      <point x="788" y="1263"/>
      <point x="875" y="1167"/>
      <point x="875" y="1011" type="curve" smooth="yes"/>
      <point x="875" y="850"/>
      <point x="804" y="748"/>
      <point x="624" y="748" type="curve" smooth="yes"/>
      <point x="445" y="748"/>
      <point x="366" y="844"/>
    </contour>
    <contour>
      <point x="583" y="0" type="line"/>
      <point x="995" y="565" type="line" smooth="yes"/>
      <point x="1076" y="678"/>
      <point x="1171" y="814"/>
      <point x="1171" y="998" type="curve" smooth="yes"/>
      <point x="1171" y="1298"/>
      <point x="934" y="1478"/>
      <point x="614" y="1478" type="curve" smooth="yes"/>
      <point x="304" y="1478"/>
      <point x="64" y="1294"/>
      <point x="64" y="999" type="curve" smooth="yes"/>
      <point x="64" y="724"/>
      <point x="270" y="540"/>
      <point x="562" y="540" type="curve" smooth="yes"/>
      <point x="597" y="540"/>
      <point x="612" y="544"/>
      <point x="645" y="551" type="curve"/>
      <point x="229" y="0" type="line"/>
    </contour>
  </outline>
</glyph>
<glyph name="less" format="1">
  <advance width="1082"/>
  <unicode hex="003C"/>
  <outline>
    <contour>
      <point x="1043" y="876" type="line"/>
      <point x="341" y="557" type="line"/>
      <point x="1040" y="247" type="line"/>
      <point x="1040" y="29" type="line"/>
      <point x="35" y="493" type="line"/>
      <point x="35" y="619" type="line"/>
      <point x="1043" y="1096" type="line"/>
    </contour>
  </outline>
</glyph>
<glyph name="greater" format="1">
  <advance width="1085"/>
  <unicode hex="003E"/>
  <outline>
    <contour>
      <point x="40" y="259" type="line"/>
      <point x="40" y="39" type="line"/>
      <point x="1051" y="490" type="line"/>
      <point x="1051" y="619" type="line"/>
      <point x="45" y="1110" type="line"/>
      <point x="45" y="890" type="line"/>
      <point x="744" y="562" type="line"/>
    </contour>
  </outline>
</glyph>
<glyph name="question" format="1">
  <advance width="887"/>
  <unicode hex="003F"/>
  <outline>
    <contour>
      <point x="437" y="452" type="line"/>
      <point x="594" y="749"/>
      <point x="822" y="900"/>
      <point x="822" y="1130" type="curve" smooth="yes"/>
      <point x="822" y="1372"/>
      <point x="602" y="1478"/>
      <point x="429" y="1478" type="curve" smooth="yes"/>
      <point x="248" y="1478"/>
      <point x="147" y="1434"/>
      <point x="43" y="1369" type="curve"/>
      <point x="118" y="1193" type="line"/>
      <point x="178" y="1231"/>
      <point x="261" y="1279"/>
      <point x="399" y="1279" type="curve" smooth="yes"/>
      <point x="527" y="1279"/>
      <point x="598" y="1200"/>
      <point x="598" y="1089" type="curve" smooth="yes"/>
      <point x="598" y="906"/>
      <point x="367" y="757"/>
      <point x="318" y="452" type="curve"/>
    </contour>
    <contour>
      <point x="207" y="139" type="curve" smooth="yes"/>
      <point x="207" y="51"/>
      <point x="281" y="-20"/>
      <point x="369" y="-20" type="curve" smooth="yes"/>
      <point x="455" y="-20"/>
      <point x="528" y="51"/>
      <point x="528" y="139" type="curve" smooth="yes"/>
      <point x="528" y="227"/>
      <point x="455" y="301"/>
      <point x="369" y="301" type="curve" smooth="yes"/>
      <point x="281" y="301"/>
      <point x="207" y="227"/>
    </contour>
  </outline>
</glyph>
<glyph name="at" format="1">
  <advance width="1633"/>
  <unicode hex="0040"/>
  <outline>
    <contour>
      <point x="945" y="246" type="curve"/>
      <point x="981" y="169"/>
      <point x="1041" y="122"/>
      <point x="1143" y="122" type="curve" smooth="yes"/>
      <point x="1200" y="122"/>
      <point x="1255" y="137"/>
      <point x="1307" y="166" type="curve" smooth="yes"/>
      <point x="1465" y="252"/>
      <point x="1579" y="435"/>
      <point x="1579" y="674" type="curve" smooth="yes"/>
      <point x="1579" y="900"/>
      <point x="1480" y="1068"/>
      <point x="1355" y="1181" type="curve" smooth="yes"/>
      <point x="1236" y="1289"/>
      <point x="1066" y="1369"/>
      <point x="857" y="1369" type="curve" smooth="yes"/>
      <point x="620" y="1369"/>
      <point x="416" y="1265"/>
      <point x="290" y="1137" type="curve" smooth="yes"/>
      <point x="162" y="1006"/>
      <point x="56" y="815"/>
      <point x="56" y="571" type="curve" smooth="yes"/>
      <point x="56" y="317"/>
      <point x="155" y="122"/>
      <point x="291" y="-11" type="curve" smooth="yes"/>
      <point x="422" y="-139"/>
      <point x="633" y="-230"/>
      <point x="875" y="-230" type="curve" smooth="yes"/>
      <point x="1104" y="-230"/>
      <point x="1289" y="-156"/>
      <point x="1418" y="-41" type="curve" smooth="yes"/>
      <point x="1442" y="-20" type="line"/>
      <point x="1331" y="107" type="line"/>
      <point x="1311" y="91" type="line" smooth="yes"/>
      <point x="1206" y="6"/>
      <point x="1061" y="-51"/>
      <point x="877" y="-51" type="curve" smooth="yes"/>
      <point x="492" y="-51"/>
      <point x="253" y="190"/>
      <point x="253" y="571" type="curve" smooth="yes"/>
      <point x="253" y="654"/>
      <point x="366" y="1018"/>
      <point x="423" y="1018" type="curve" smooth="yes"/>
      <point x="425" y="1018" type="line"/>
      <point x="460" y="1049"/>
      <point x="664" y="1215"/>
      <point x="788" y="1215" type="curve" smooth="yes"/>
      <point x="815" y="1215"/>
      <point x="838" y="1207"/>
      <point x="855" y="1189" type="curve"/>
      <point x="856" y="1189" type="line" smooth="yes"/>
      <point x="1177" y="1189"/>
      <point x="1384" y="1002"/>
      <point x="1384" y="677" type="curve" smooth="yes"/>
      <point x="1384" y="496"/>
      <point x="1311" y="301"/>
      <point x="1167" y="301" type="curve" smooth="yes"/>
      <point x="1120" y="301"/>
      <point x="1104" y="317"/>
      <point x="1104" y="374" type="curve" smooth="yes"/>
      <point x="1104" y="390"/>
      <point x="1107" y="419"/>
      <point x="1113" y="456" type="curve" smooth="yes"/>
      <point x="1139" y="606"/>
      <point x="1179" y="764"/>
      <point x="1212" y="916" type="curve" smooth="yes"/>
      <point x="1217" y="942" type="line"/>
      <point x="1193" y="951" type="line" smooth="yes"/>
      <point x="1110" y="979"/>
      <point x="1016" y="1010"/>
      <point x="903" y="1010" type="curve" smooth="yes"/>
      <point x="630" y="1010"/>
      <point x="413" y="767"/>
      <point x="413" y="481" type="curve" smooth="yes"/>
      <point x="413" y="293"/>
      <point x="520" y="139"/>
      <point x="715" y="139" type="curve" smooth="yes"/>
      <point x="818" y="139"/>
      <point x="886" y="184"/>
    </contour>
    <contour>
      <point x="737" y="324" type="line" smooth="yes"/>
      <point x="660" y="324"/>
      <point x="624" y="379"/>
      <point x="624" y="472" type="curve" smooth="yes"/>
      <point x="624" y="660"/>
      <point x="737" y="837"/>
      <point x="903" y="837" type="curve" smooth="yes"/>
      <point x="939" y="837"/>
      <point x="976" y="834"/>
      <point x="1010" y="829" type="curve"/>
      <point x="973" y="617"/>
      <point x="926" y="334"/>
      <point x="747" y="324" type="curve"/>
    </contour>
  </outline>
</glyph>
<glyph name="A" format="1">
  <advance width="1278"/>
  <unicode hex="0041"/>
  <outline>
    <contour>
      <point x="1018" y="0" type="line"/>
      <point x="1299" y="0" type="line"/>
      <point x="785" y="1445" type="line"/>
      <point x="505" y="1445" type="line"/>
      <point x="-21" y="0" type="line"/>
      <point x="274" y="0" type="line"/>
      <point x="431" y="444" type="line"/>
      <point x="859" y="444" type="line"/>
    </contour>
    <contour>
      <point x="495" y="626" type="line"/>
      <point x="647" y="1117" type="line"/>
      <point x="789" y="626" type="line"/>
    </contour>
  </outline>
</glyph>
<glyph name="B" format="1">
  <advance width="1310"/>
  <unicode hex="0042"/>
  <outline>
    <contour>
      <point x="419" y="672" type="line"/>
      <point x="419" y="202" type="line"/>
      <point x="630" y="202" type="line" smooth="yes"/>
      <point x="835" y="202"/>
      <point x="952" y="252"/>
      <point x="952" y="434" type="curve" smooth="yes"/>
      <point x="952" y="616"/>
      <point x="857" y="672"/>
      <point x="650" y="672" type="curve" smooth="yes"/>
    </contour>
    <contour>
      <point x="419" y="1242" type="line"/>
      <point x="419" y="871" type="line"/>
      <point x="648" y="871" type="line" smooth="yes"/>
      <point x="813" y="871"/>
      <point x="911" y="907"/>
      <point x="911" y="1039" type="curve" smooth="yes"/>
      <point x="911" y="1226"/>
      <point x="779" y="1242"/>
      <point x="560" y="1242" type="curve" smooth="yes"/>
    </contour>
    <contour>
      <point x="121" y="0" type="line"/>
      <point x="121" y="1445" type="line"/>
      <point x="612" y="1445" type="line" smooth="yes"/>
      <point x="943" y="1445"/>
      <point x="1200" y="1378"/>
      <point x="1200" y="1079" type="curve" smooth="yes"/>
      <point x="1200" y="934"/>
      <point x="1121" y="848"/>
      <point x="1015" y="785" type="curve"/>
      <point x="1169" y="720"/>
      <point x="1248" y="597"/>
      <point x="1248" y="423" type="curve" smooth="yes"/>
      <point x="1248" y="116"/>
      <point x="1008" y="0"/>
      <point x="670" y="0" type="curve" smooth="yes"/>
    </contour>
  </outline>
</glyph>
<glyph name="B" format="1">
  <advance width="1310"/>
  <unicode hex="0042"/>
  <outline>
    <contour>
      <point x="121" y="0" type="line"/>
      <point x="121" y="1445" type="line"/>
      <point x="612" y="1445" type="line" smooth="yes"/>
      <point x="943" y="1445"/>
      <point x="1200" y="1378"/>
      <point x="1200" y="1079" type="curve" smooth="yes"/>
      <point x="1200" y="934"/>
      <point x="1121" y="848"/>
      <point x="1015" y="785" type="curve"/>
      <point x="1169" y="720"/>
      <point x="1248" y="597"/>
      <point x="1248" y="423" type="curve" smooth="yes"/>
      <point x="1248" y="116"/>
      <point x="1008" y="0"/>
      <point x="670" y="0" type="curve" smooth="yes"/>
    </contour>
    <contour>
      <point x="419" y="1242" type="line"/>
      <point x="419" y="871" type="line"/>
      <point x="648" y="871" type="line" smooth="yes"/>
      <point x="813" y="871"/>
      <point x="911" y="907"/>
      <point x="911" y="1039" type="curve" smooth="yes"/>
      <point x="911" y="1226"/>
      <point x="779" y="1242"/>
      <point x="560" y="1242" type="curve" smooth="yes"/>
    </contour>
    <contour>
      <point x="419" y="672" type="line"/>
      <point x="419" y="202" type="line"/>
      <point x="630" y="202" type="line" smooth="yes"/>
      <point x="835" y="202"/>
      <point x="952" y="252"/>
      <point x="952" y="434" type="curve" smooth="yes"/>
      <point x="952" y="616"/>
      <point x="857" y="672"/>
      <point x="650" y="672" type="curve" smooth="yes"/>
    </contour>
  </outline>
</glyph>
<glyph name="C" format="1">
  <advance width="1277"/>
  <unicode hex="0043"/>
  <outline>
    <contour>
      <point x="792" y="1478" type="curve" smooth="yes"/>
      <point x="938" y="1478"/>
      <point x="1102" y="1451"/>
      <point x="1231" y="1337" type="curve"/>
      <point x="1154" y="1127" type="line"/>
      <point x="1070" y="1196"/>
      <point x="980" y="1243"/>
      <point x="808" y="1243" type="curve" smooth="yes"/>
      <point x="555" y="1243"/>
      <point x="374" y="1047"/>
      <point x="374" y="732" type="curve" smooth="yes"/>
      <point x="374" y="388"/>
      <point x="556" y="211"/>
      <point x="807" y="211" type="curve" smooth="yes"/>
      <point x="935" y="211"/>
      <point x="1059" y="244"/>
      <point x="1159" y="320" type="curve"/>
      <point x="1232" y="107" type="line"/>
      <point x="1081" y="-2"/>
      <point x="934" y="-20"/>
      <point x="791" y="-20" type="curve" smooth="yes"/>
      <point x="402" y="-20"/>
      <point x="72" y="251"/>
      <point x="72" y="733" type="curve" smooth="yes"/>
      <point x="72" y="1192"/>
      <point x="385" y="1478"/>
    </contour>
    <contour>
      <point x="639" y="1430" type="move" name="top"/>
    </contour>
    <contour>
      <point x="639" y="0" type="move" name="bottom"/>
    </contour>
  </outline>
</glyph>
<glyph name="C" format="1">
  <advance width="1277"/>
  <unicode hex="0043"/>
  <outline>
    <contour>
      <point x="792" y="1478" type="curve" smooth="yes"/>
      <point x="938" y="1478"/>
      <point x="1102" y="1451"/>
      <point x="1231" y="1337" type="curve"/>
      <point x="1154" y="1127" type="line"/>
      <point x="1070" y="1196"/>
      <point x="980" y="1243"/>
      <point x="808" y="1243" type="curve" smooth="yes"/>
      <point x="555" y="1243"/>
      <point x="374" y="1047"/>
      <point x="374" y="732" type="curve" smooth="yes"/>
      <point x="374" y="388"/>
      <point x="556" y="211"/>
      <point x="807" y="211" type="curve" smooth="yes"/>
      <point x="935" y="211"/>
      <point x="1059" y="244"/>
      <point x="1159" y="320" type="curve"/>
      <point x="1232" y="107" type="line"/>
      <point x="1081" y="-2"/>
      <point x="934" y="-20"/>
      <point x="791" y="-20" type="curve" smooth="yes"/>
      <point x="402" y="-20"/>
      <point x="72" y="251"/>
      <point x="72" y="733" type="curve" smooth="yes"/>
      <point x="72" y="1192"/>
      <point x="385" y="1478"/>
    </contour>
  </outline>
</glyph>
<glyph name="D" format="1">
  <advance width="1497"/>
  <unicode hex="0044"/>
  <outline>
    <contour>
      <point x="419" y="1220" type="line"/>
      <point x="419" y="223" type="line"/>
      <point x="620" y="223" type="line" smooth="yes"/>
      <point x="945" y="223"/>
      <point x="1126" y="397"/>
      <point x="1126" y="715" type="curve" smooth="yes"/>
      <point x="1126" y="1095"/>
      <point x="930" y="1220"/>
      <point x="534" y="1220" type="curve" smooth="yes"/>
    </contour>
    <contour>
      <point x="121" y="1" type="line"/>
      <point x="121" y="1445" type="line"/>
      <point x="512" y="1445" type="line" smooth="yes"/>
      <point x="1055" y="1445"/>
      <point x="1423" y="1249"/>
      <point x="1423" y="719" type="curve" smooth="yes"/>
      <point x="1423" y="248"/>
      <point x="1088" y="1"/>
      <point x="602" y="1" type="curve" smooth="yes"/>
    </contour>
  </outline>
</glyph>
<glyph name="E" format="1">
  <advance width="1129"/>
  <unicode hex="0045"/>
  <outline>
    <contour>
      <point x="1016" y="869" type="line"/>
      <point x="1016" y="651" type="line"/>
      <point x="419" y="651" type="line"/>
      <point x="419" y="219" type="line"/>
      <point x="1092" y="210" type="line"/>
      <point x="1080" y="0" type="line"/>
      <point x="121" y="0" type="line"/>
      <point x="121" y="1445" type="line"/>
      <point x="1062" y="1445" type="line"/>
      <point x="1039" y="1227" type="line"/>
      <point x="419" y="1227" type="line"/>
      <point x="419" y="869" type="line"/>
    </contour>
    <contour>
      <point x="565" y="1430" type="move" name="top"/>
    </contour>
    <contour>
      <point x="565" y="0" type="move" name="bottom"/>
    </contour>
    <contour>
      <point x="1016" y="10" type="move" name="ogonek"/>
    </contour>
  </outline>
</glyph>
<glyph name="E" format="1">
  <advance width="1129"/>
  <unicode hex="0045"/>
  <outline>
    <contour>
      <point x="1016" y="869" type="line"/>
      <point x="1016" y="651" type="line"/>
      <point x="419" y="651" type="line"/>
      <point x="419" y="219" type="line"/>
      <point x="1092" y="210" type="line"/>
      <point x="1080" y="0" type="line"/>
      <point x="121" y="0" type="line"/>
      <point x="121" y="1445" type="line"/>
      <point x="1062" y="1445" type="line"/>
      <point x="1039" y="1227" type="line"/>
      <point x="419" y="1227" type="line"/>
      <point x="419" y="869" type="line"/>
    </contour>
  </outline>
</glyph>
<glyph name="H" format="1">
  <advance width="1474"/>
  <unicode hex="0048"/>
  <outline>
    <contour>
      <point x="1055" y="645" type="line"/>
      <point x="1055" y="0" type="line"/>
      <point x="1353" y="0" type="line"/>
      <point x="1353" y="1445" type="line"/>
      <point x="1055" y="1445" type="line"/>
      <point x="1055" y="855" type="line"/>
      <point x="419" y="855" type="line"/>
      <point x="419" y="1445" type="line"/>
      <point x="121" y="1445" type="line"/>
      <point x="121" y="1" type="line"/>
      <point x="419" y="1" type="line"/>
      <point x="419" y="645" type="line"/>
    </contour>
  </outline>
</glyph>
<glyph name="J" format="1">
  <advance width="636"/>
  <unicode hex="004A"/>
  <outline>
    <contour>
      <point x="217" y="130" type="line" smooth="yes"/>
      <point x="217" y="-28"/>
      <point x="191" y="-89"/>
      <point x="37" y="-89" type="curve" smooth="yes"/>
      <point x="-45" y="-89" type="line"/>
      <point x="-28" y="-303" type="line"/>
      <point x="18" y="-303" type="line" smooth="yes"/>
      <point x="405" y="-303"/>
      <point x="515" y="-184"/>
      <point x="515" y="139" type="curve" smooth="yes"/>
      <point x="515" y="1445" type="line"/>
      <point x="217" y="1445" type="line"/>
    </contour>
  </outline>
</glyph>
<glyph name="K" format="1">
  <advance width="1307"/>
  <unicode hex="004B"/>
  <outline>
    <contour>
      <point x="730" y="787" type="line"/>
      <point x="1337" y="0" type="line"/>
      <point x="992" y="0" type="line"/>
      <point x="495" y="658" type="line"/>
      <point x="419" y="582" type="line"/>
      <point x="419" y="0" type="line"/>
      <point x="121" y="0" type="line"/>
      <point x="121" y="1445" type="line"/>
      <point x="419" y="1445" type="line"/>
      <point x="419" y="844" type="line"/>
      <point x="924" y="1445" type="line"/>
      <point x="1277" y="1445" type="line"/>
    </contour>
    <contour>
      <point x="654" y="1430" type="move" name="top"/>
    </contour>
    <contour>
      <point x="654" y="0" type="move" name="bottom"/>
    </contour>
  </outline>
</glyph>
<glyph name="K" format="1">
  <advance width="1307"/>
  <unicode hex="004B"/>
  <outline>
    <contour>
      <point x="730" y="787" type="line"/>
      <point x="1337" y="0" type="line"/>
      <point x="992" y="0" type="line"/>
      <point x="495" y="658" type="line"/>
      <point x="419" y="582" type="line"/>
      <point x="419" y="0" type="line"/>
      <point x="121" y="0" type="line"/>
      <point x="121" y="1445" type="line"/>
      <point x="419" y="1445" type="line"/>
      <point x="419" y="844" type="line"/>
      <point x="924" y="1445" type="line"/>
      <point x="1277" y="1445" type="line"/>
    </contour>
  </outline>
</glyph>
<glyph name="L" format="1">
  <advance width="1005"/>
  <unicode hex="004C"/>
  <outline>
    <contour>
      <point x="121" y="1445" type="line"/>
      <point x="419" y="1445" type="line"/>
      <point x="419" y="218" type="line"/>
      <point x="1007" y="218" type="line"/>
      <point x="991" y="0" type="line"/>
      <point x="121" y="0" type="line"/>
    </contour>
    <contour>
      <point x="503" y="1430" type="move" name="top"/>
    </contour>
    <contour>
      <point x="503" y="0" type="move" name="bottom"/>
    </contour>
  </outline>
</glyph>
<glyph name="N" format="1">
  <advance width="1448"/>
  <unicode hex="004E"/>
  <outline>
    <contour>
      <point x="1327" y="0" type="line"/>
      <point x="1327" y="1445" type="line"/>
      <point x="1054" y="1445" type="line"/>
      <point x="1054" y="471" type="line"/>
      <point x="369" y="1445" type="line"/>
      <point x="121" y="1445" type="line"/>
      <point x="121" y="0" type="line"/>
      <point x="394" y="0" type="line"/>
      <point x="394" y="975" type="line"/>
      <point x="1073" y="0" type="line"/>
    </contour>
  </outline>
</glyph>
<glyph name="O" format="1">
  <advance width="1595"/>
  <unicode hex="004F"/>
  <outline>
    <contour>
      <point x="797" y="-20" type="curve" smooth="yes"/>
      <point x="383" y="-20"/>
      <point x="72" y="256"/>
      <point x="72" y="727" type="curve" smooth="yes"/>
      <point x="72" y="1202"/>
      <point x="383" y="1478"/>
      <point x="797" y="1478" type="curve" smooth="yes"/>
      <point x="1212" y="1478"/>
      <point x="1523" y="1202"/>
      <point x="1523" y="727" type="curve" smooth="yes"/>
      <point x="1523" y="256"/>
      <point x="1211" y="-20"/>
    </contour>
    <contour>
      <point x="799" y="1243" type="curve" smooth="yes"/>
      <point x="514" y="1243"/>
      <point x="374" y="1027"/>
      <point x="374" y="722" type="curve" smooth="yes"/>
      <point x="374" y="416"/>
      <point x="516" y="211"/>
      <point x="799" y="211" type="curve" smooth="yes"/>
      <point x="1083" y="211"/>
      <point x="1226" y="416"/>
      <point x="1226" y="722" type="curve" smooth="yes"/>
      <point x="1226" y="1027"/>
      <point x="1085" y="1243"/>
    </contour>
  </outline>
</glyph>
<glyph name="P" format="1">
  <advance width="1206"/>
  <unicode hex="0050"/>
  <outline>
    <contour>
      <point x="582" y="735" type="curve" smooth="yes"/>
      <point x="844" y="735"/>
      <point x="889" y="863"/>
      <point x="889" y="985" type="curve"/>
      <point x="889" y="1143"/>
      <point x="788" y="1229"/>
      <point x="607" y="1229" type="curve" smooth="yes"/>
      <point x="419" y="1229" type="line"/>
      <point x="419" y="737" type="line"/>
      <point x="443" y="734"/>
      <point x="527" y="735"/>
    </contour>
    <contour>
      <point x="419" y="0" type="line"/>
      <point x="121" y="0" type="line"/>
      <point x="121" y="1445" type="line"/>
      <point x="605" y="1445" type="line" smooth="yes"/>
      <point x="954" y="1445"/>
      <point x="1178" y="1311"/>
      <point x="1178" y="996" type="curve" smooth="yes"/>
      <point x="1178" y="736"/>
      <point x="1054" y="525"/>
      <point x="628" y="525" type="curve" smooth="yes"/>
      <point x="567" y="525"/>
      <point x="493" y="524"/>
      <point x="419" y="531" type="curve"/>
    </contour>
  </outline>
</glyph>
<glyph name="P" format="1">
  <advance width="1206"/>
  <unicode hex="0050"/>
  <outline>
    <contour>
      <point x="582" y="735" type="curve" smooth="yes"/>
      <point x="844" y="735"/>
      <point x="889" y="863"/>
      <point x="889" y="985" type="curve" smooth="yes"/>
      <point x="889" y="1143"/>
      <point x="788" y="1229"/>
      <point x="607" y="1229" type="curve" smooth="yes"/>
      <point x="419" y="1229" type="line"/>
      <point x="419" y="737" type="line"/>
      <point x="443" y="734"/>
      <point x="527" y="735"/>
    </contour>
    <contour>
      <point x="419" y="0" type="line"/>
      <point x="121" y="0" type="line"/>
      <point x="121" y="1445" type="line"/>
      <point x="605" y="1445" type="line" smooth="yes"/>
      <point x="954" y="1445"/>
      <point x="1178" y="1311"/>
      <point x="1178" y="996" type="curve" smooth="yes"/>
      <point x="1178" y="736"/>
      <point x="1054" y="525"/>
      <point x="628" y="525" type="curve" smooth="yes"/>
      <point x="567" y="525"/>
      <point x="493" y="524"/>
      <point x="419" y="531" type="curve"/>
    </contour>
  </outline>
</glyph>
<glyph name="Q" format="1">
  <advance width="1595"/>
  <unicode hex="0051"/>
  <outline>
    <component base="O"/>
    <contour>
      <point x="1257" y="-470" type="line"/>
      <point x="1117" y="-369"/>
      <point x="965" y="-161"/>
      <point x="886" y="-13" type="curve"/>
      <point x="1061" y="103" type="line"/>
      <point x="1130" y="-21"/>
      <point x="1217" y="-142"/>
      <point x="1410" y="-319" type="curve"/>
    </contour>
  </outline>
</glyph>
<glyph name="R" format="1">
  <advance width="1303"/>
  <unicode hex="0052"/>
  <outline>
    <contour>
      <point x="420" y="1228" type="line"/>
      <point x="420" y="809" type="line"/>
      <point x="686" y="809" type="line" smooth="yes"/>
      <point x="872" y="809"/>
      <point x="953" y="872"/>
      <point x="953" y="1030" type="curve" smooth="yes"/>
      <point x="953" y="1170"/>
      <point x="862" y="1228"/>
      <point x="693" y="1228" type="curve" smooth="yes"/>
    </contour>
    <contour>
      <point x="1314" y="0" type="line"/>
      <point x="1001" y="0" type="line"/>
      <point x="843" y="345" type="line" smooth="yes"/>
      <point x="807" y="423"/>
      <point x="717" y="595"/>
      <point x="717" y="595" type="curve"/>
      <point x="704" y="597"/>
      <point x="669" y="598"/>
      <point x="627" y="598" type="curve" smooth="yes"/>
      <point x="619" y="598"/>
      <point x="420" y="598"/>
      <point x="420" y="598" type="curve"/>
      <point x="420" y="0" type="line"/>
      <point x="121" y="0" type="line"/>
      <point x="121" y="1445" type="line"/>
      <point x="678" y="1445" type="line" smooth="yes"/>
      <point x="1016" y="1445"/>
      <point x="1229" y="1371"/>
      <point x="1229" y="1035" type="curve" smooth="yes"/>
      <point x="1229" y="833"/>
      <point x="1136" y="713"/>
      <point x="970" y="651" type="curve"/>
      <point x="1032" y="580"/>
      <point x="1064" y="510"/>
      <point x="1110" y="418" type="curve" smooth="yes"/>
    </contour>
    <contour>
      <point x="652" y="1430" type="move" name="top"/>
    </contour>
    <contour>
      <point x="652" y="0" type="move" name="bottom"/>
    </contour>
  </outline>
</glyph>
<glyph name="T" format="1">
  <advance width="1090"/>
  <unicode hex="0054"/>
  <outline>
    <contour>
      <point x="-27" y="1227" type="line"/>
      <point x="395" y="1227" type="line"/>
      <point x="395" y="0" type="line"/>
      <point x="693" y="0" type="line"/>
      <point x="693" y="1227" type="line"/>
      <point x="1117" y="1227" type="line"/>
      <point x="1117" y="1445" type="line"/>
      <point x="-27" y="1445" type="line"/>
    </contour>
  </outline>
</glyph>
<glyph name="V" format="1">
  <advance width="1320"/>
  <unicode hex="0056"/>
  <outline>
    <contour>
      <point x="674" y="358" type="line"/>
      <point x="1043" y="1445" type="line"/>
      <point x="1331" y="1445" type="line"/>
      <point x="803" y="0" type="line"/>
      <point x="539" y="0" type="line"/>
      <point x="-11" y="1445" type="line"/>
      <point x="286" y="1445" type="line"/>
    </contour>
  </outline>
</glyph>
<glyph name="V" format="1">
  <advance width="1320"/>
  <unicode hex="0056"/>
  <outline>
    <contour>
      <point x="674" y="358" type="line" smooth="no"/>
      <point x="1043" y="1445" type="line" smooth="no"/>
      <point x="1331" y="1445" type="line" smooth="no"/>
      <point x="803" y="0" type="line" smooth="no"/>
      <point x="539" y="0" type="line" smooth="no"/>
      <point x="-11" y="1445" type="line" smooth="no"/>
      <point x="286" y="1445" type="line" smooth="no"/>
    </contour>
  </outline>
</glyph>
<glyph name="W" format="1">
  <advance width="2080"/>
  <unicode hex="0057"/>
  <outline>
    <contour>
      <point x="1489" y="377" type="line"/>
      <point x="1808" y="1445" type="line"/>
      <point x="2094" y="1445" type="line"/>
      <point x="1629" y="0" type="line"/>
      <point x="1348" y="0" type="line"/>
      <point x="1038" y="1062" type="line"/>
      <point x="683" y="0" type="line"/>
      <point x="405" y="0" type="line"/>
      <point x="-14" y="1445" type="line"/>
      <point x="273" y="1445" type="line"/>
      <point x="558" y="387" type="line"/>
      <point x="918" y="1445" type="line"/>
      <point x="1163" y="1445" type="line"/>
    </contour>
    <contour>
      <point x="1040" y="1430" type="move" name="top"/>
    </contour>
  </outline>
</glyph>
<glyph name="W" format="1">
  <advance width="2064"/>
  <unicode hex="0057"/>
  <outline>
    <contour>
      <point x="1481" y="377" type="line"/>
      <point x="1155" y="1445" type="line"/>
      <point x="910" y="1445" type="line"/>
      <point x="550" y="387" type="line"/>
      <point x="265" y="1445" type="line"/>
      <point x="-22" y="1445" type="line"/>
      <point x="397" y="0" type="line"/>
      <point x="675" y="0" type="line"/>
      <point x="1030" y="1062" type="line"/>
      <point x="1340" y="0" type="line"/>
      <point x="1621" y="0" type="line"/>
      <point x="2086" y="1445" type="line"/>
      <point x="1800" y="1445" type="line"/>
    </contour>
  </outline>
</glyph>
<glyph name="X" format="1">
  <advance width="1327"/>
  <unicode hex="0058"/>
  <outline>
    <contour>
      <point x="-33" y="0" type="line"/>
      <point x="495" y="729" type="line"/>
      <point x="14" y="1445" type="line"/>
      <point x="338" y="1445" type="line"/>
      <point x="678" y="920" type="line"/>
      <point x="1037" y="1445" type="line"/>
      <point x="1342" y="1445" type="line"/>
      <point x="841" y="732" type="line"/>
      <point x="1360" y="0" type="line"/>
      <point x="1020" y="0" type="line"/>
      <point x="663" y="524" type="line"/>
      <point x="288" y="0" type="line"/>
    </contour>
  </outline>
</glyph>
<glyph name="Y" format="1">
  <advance width="1222"/>
  <unicode hex="0059"/>
  <outline>
    <contour>
      <point x="1268" y="1445" type="line"/>
      <point x="963" y="1445" type="line"/>
      <point x="614" y="842" type="line"/>
      <point x="263" y="1445" type="line"/>
      <point x="-46" y="1445" type="line"/>
      <point x="469" y="586" type="line"/>
      <point x="469" y="0" type="line"/>
      <point x="767" y="0" type="line"/>
      <point x="767" y="586" type="line"/>
    </contour>
  </outline>
</glyph>
<glyph name="backslash" format="1">
  <advance width="972"/>
  <unicode hex="005C"/>
  <outline>
    <contour>
      <point x="939" y="-119" type="line"/>
      <point x="259" y="1461" type="line"/>
      <point x="34" y="1461" type="line"/>
      <point x="716" y="-119" type="line"/>
    </contour>
  </outline>
</glyph>
<glyph name="bracketright" format="1">
  <advance width="606"/>
  <unicode hex="005D"/>
  <outline>
    <contour>
      <point x="187" y="1387" type="line"/>
      <point x="33" y="1387" type="line"/>
      <point x="33" y="1569" type="line"/>
      <point x="485" y="1569" type="line"/>
      <point x="485" y="-189" type="line"/>
      <point x="33" y="-189" type="line"/>
      <point x="33" y="-7" type="line"/>
      <point x="187" y="-7" type="line"/>
    </contour>
  </outline>
</glyph>
<glyph name="asciicircum" format="1">
  <advance width="1181"/>
  <unicode hex="005E"/>
  <outline>
    <contour>
      <point x="258" y="550" type="line"/>
      <point x="586" y="1192" type="line"/>
      <point x="925" y="550" type="line"/>
      <point x="1140" y="550" type="line"/>
      <point x="651" y="1442" type="line"/>
      <point x="524" y="1442" type="line"/>
      <point x="41" y="550" type="line"/>
    </contour>
  </outline>
</glyph>
<glyph name="grave" format="1">
  <advance width="471"/>
  <unicode hex="0060"/>
  <outline>
    <contour>
      <point x="295" y="1176" type="curve"/>
      <point x="504" y="1176" type="line"/>
      <point x="275" y="1516" type="line"/>
      <point x="-39" y="1516" type="line"/>
      <point x="72" y="1403"/>
      <point x="184" y="1290"/>
    </contour>
  </outline>
</glyph>
<glyph name="a" format="1">
  <advance width="1070"/>
  <unicode hex="0061"/>
  <outline>
    <contour>
      <point x="452" y="162" type="curve" smooth="yes"/>
      <point x="551" y="162"/>
      <point x="610" y="198"/>
      <point x="685" y="250" type="curve"/>
      <point x="685" y="501" type="line"/>
      <point x="608" y="489" type="line" smooth="yes"/>
      <point x="450" y="466"/>
      <point x="321" y="441"/>
      <point x="321" y="294" type="curve" smooth="yes"/>
      <point x="321" y="216"/>
      <point x="363" y="162"/>
    </contour>
    <contour>
      <point x="722" y="115" type="line"/>
      <point x="629" y="38"/>
      <point x="542" y="-21"/>
      <point x="404" y="-21" type="curve" smooth="yes"/>
      <point x="206" y="-21"/>
      <point x="67" y="96"/>
      <point x="67" y="284" type="curve" smooth="yes"/>
      <point x="67" y="555"/>
      <point x="256" y="597"/>
      <point x="609" y="649" type="curve" smooth="yes"/>
      <point x="685" y="661" type="line"/>
      <point x="685" y="710" type="line" smooth="yes"/>
      <point x="685" y="834"/>
      <point x="673" y="887"/>
      <point x="528" y="894" type="curve"/>
      <point x="405" y="894"/>
      <point x="231" y="838"/>
      <point x="184" y="822" type="curve"/>
      <point x="130" y="1023" type="line"/>
      <point x="229" y="1068"/>
      <point x="372" y="1103"/>
      <point x="564" y="1103" type="curve"/>
      <point x="810" y="1103"/>
      <point x="968" y="990"/>
      <point x="968" y="758" type="curve" smooth="yes"/>
      <point x="968" y="0" type="line"/>
      <point x="751" y="0" type="line"/>
    </contour>
    <contour>
      <point x="535" y="1059" type="move" name="top"/>
    </contour>
    <contour>
      <point x="963" y="10" type="move" name="ogonek"/>
    </contour>
  </outline>
</glyph>
<glyph name="b" format="1">
  <advance width="1240"/>
  <unicode hex="0062"/>
  <outline>
    <contour>
      <point x="714" y="-18" type="curve" smooth="yes"/>
      <point x="558" y="-18"/>
      <point x="439" y="55"/>
      <point x="388" y="151" type="curve"/>
      <point x="382" y="2" type="line"/>
      <point x="104" y="2" type="line"/>
      <point x="104" y="1496" type="line"/>
      <point x="387" y="1516" type="line"/>
      <point x="387" y="944" type="line"/>
      <point x="426" y="1021"/>
      <point x="537" y="1103"/>
      <point x="718" y="1105" type="curve"/>
      <point x="1013" y="1105"/>
      <point x="1178" y="844"/>
      <point x="1178" y="549" type="curve" smooth="yes"/>
      <point x="1178" y="230"/>
      <point x="991" y="-18"/>
    </contour>
    <contour>
      <point x="640" y="191" type="curve" smooth="yes"/>
      <point x="768" y="191"/>
      <point x="906" y="269"/>
      <point x="906" y="540" type="curve" smooth="yes"/>
      <point x="906" y="824"/>
      <point x="764" y="896"/>
      <point x="640" y="896" type="curve" smooth="yes"/>
      <point x="513" y="896"/>
      <point x="383" y="811"/>
      <point x="383" y="540" type="curve" smooth="yes"/>
      <point x="383" y="266"/>
      <point x="508" y="191"/>
    </contour>
  </outline>
</glyph>
<glyph name="c" format="1">
  <advance width="957"/>
  <unicode hex="0063"/>
  <outline>
    <contour>
      <point x="919" y="74" type="line"/>
      <point x="827" y="13"/>
      <point x="739" y="-21"/>
      <point x="606" y="-21" type="curve" smooth="yes"/>
      <point x="294" y="-21"/>
      <point x="62" y="165"/>
      <point x="62" y="554" type="curve" smooth="yes"/>
      <point x="62" y="924"/>
      <point x="317" y="1103"/>
      <point x="585" y="1103" type="curve"/>
      <point x="730" y="1101"/>
      <point x="824" y="1070"/>
      <point x="907" y="1008" type="curve"/>
      <point x="862" y="819" type="line"/>
      <point x="818" y="850"/>
      <point x="714" y="895"/>
      <point x="620" y="895" type="curve" smooth="yes"/>
      <point x="463" y="895"/>
      <point x="334" y="792"/>
      <point x="334" y="544" type="curve" smooth="yes"/>
      <point x="334" y="287"/>
      <point x="451" y="185"/>
      <point x="625" y="185" type="curve" smooth="yes"/>
      <point x="724" y="185"/>
      <point x="808" y="223"/>
      <point x="866" y="264" type="curve"/>
    </contour>
  </outline>
</glyph>
<glyph name="d" format="1">
  <advance width="1237"/>
  <unicode hex="0064"/>
  <outline>
    <contour>
      <point x="549" y="-20" type="curve"/>
      <point x="242" y="-13"/>
      <point x="62" y="228"/>
      <point x="62" y="547" type="curve" smooth="yes"/>
      <point x="62" y="845"/>
      <point x="232" y="1103"/>
      <point x="543" y="1103" type="curve" smooth="yes"/>
      <point x="724" y="1103"/>
      <point x="814" y="1019"/>
      <point x="853" y="942" type="curve"/>
      <point x="853" y="1496" type="line"/>
      <point x="1136" y="1516" type="line"/>
      <point x="1136" y="0" type="line"/>
      <point x="859" y="0" type="line"/>
      <point x="853" y="149" type="line"/>
      <point x="802" y="53"/>
      <point x="705" y="-20"/>
    </contour>
    <contour>
      <point x="600" y="189" type="curve" smooth="yes"/>
      <point x="732" y="189"/>
      <point x="857" y="264"/>
      <point x="857" y="538" type="curve" smooth="yes"/>
      <point x="857" y="809"/>
      <point x="727" y="894"/>
      <point x="600" y="894" type="curve" smooth="yes"/>
      <point x="476" y="894"/>
      <point x="334" y="822"/>
      <point x="334" y="538" type="curve" smooth="yes"/>
      <point x="334" y="267"/>
      <point x="472" y="189"/>
    </contour>
  </outline>
</glyph>
<glyph name="e" format="1">
  <advance width="1110"/>
  <unicode hex="0065"/>
  <outline>
    <contour>
      <point x="631" y="-20" type="curve" smooth="yes"/>
      <point x="811" y="-20"/>
      <point x="932" y="34"/>
      <point x="1025" y="105" type="curve"/>
      <point x="946" y="278" type="line"/>
      <point x="883" y="230"/>
      <point x="774" y="184"/>
      <point x="642" y="184" type="curve" smooth="yes"/>
      <point x="457" y="184"/>
      <point x="348" y="280"/>
      <point x="342" y="475" type="curve"/>
      <point x="1054" y="475" type="line"/>
      <point x="1054" y="502"/>
      <point x="1056" y="537"/>
      <point x="1056" y="563" type="curve"/>
      <point x="1056" y="848"/>
      <point x="907" y="1103"/>
      <point x="584" y="1103" type="curve" smooth="yes"/>
      <point x="254" y="1103"/>
      <point x="63" y="855"/>
      <point x="63" y="541" type="curve" smooth="yes"/>
      <point x="63" y="198"/>
      <point x="263" y="-20"/>
    </contour>
    <contour>
      <point x="345" y="627" type="line"/>
      <point x="360" y="840"/>
      <point x="495" y="895"/>
      <point x="587" y="895" type="curve" smooth="yes"/>
      <point x="723" y="895"/>
      <point x="799" y="799"/>
      <point x="799" y="627" type="curve"/>
    </contour>
    <contour>
      <point x="555" y="1059" type="move" name="top"/>
    </contour>
    <contour>
      <point x="555" y="0" type="move" name="bottom"/>
    </contour>
    <contour>
      <point x="999" y="10" type="move" name="ogonek"/>
    </contour>
  </outline>
</glyph>
<glyph name="f" format="1">
  <advance width="708"/>
  <unicode hex="0066"/>
  <outline>
    <contour>
      <point x="7" y="894" type="line"/>
      <point x="7" y="1063" type="line"/>
      <point x="178" y="1063" type="line"/>
      <point x="178" y="1096" type="line" smooth="yes"/>
      <point x="178" y="1378"/>
      <point x="209" y="1546"/>
      <point x="588" y="1546" type="curve" smooth="yes"/>
      <point x="683" y="1546" type="line"/>
      <point x="706" y="1336" type="line"/>
      <point x="614" y="1336" type="line" smooth="yes"/>
      <point x="488" y="1336"/>
      <point x="461" y="1283"/>
      <point x="461" y="1152" type="curve" smooth="yes"/>
      <point x="461" y="1063" type="line"/>
      <point x="699" y="1063" type="line"/>
      <point x="699" y="894" type="line"/>
      <point x="461" y="894" type="line"/>
      <point x="461" y="0" type="line"/>
      <point x="178" y="0" type="line"/>
      <point x="178" y="894" type="line"/>
    </contour>
  </outline>
</glyph>
<glyph name="g" format="1">
  <advance width="1250"/>
  <unicode hex="0067"/>
  <outline>
    <contour>
      <point x="356.0" y="-488.0" type="line"/>
      <point x="336.0" y="-269.0" type="line"/>
      <point x="448.0" y="-269.0" type="line" smooth="yes"/>
      <point x="751.0" y="-269.0"/>
      <point x="866.0" y="-266.0"/>
      <point x="866.0" y="57.0" type="curve" smooth="yes"/>
      <point x="866.0" y="143.0" type="line"/>
      <point x="812.0" y="67.0"/>
      <point x="736.0" y="0.0"/>
      <point x="564.0" y="0.0" type="curve" smooth="yes"/>
      <point x="292.0" y="0.0"/>
      <point x="68.0" y="201.0"/>
      <point x="68.0" y="549.0" type="curve" smooth="yes"/>
      <point x="68.0" y="918.0"/>
      <point x="312.0" y="1103.0"/>
      <point x="546.0" y="1103.0" type="curve"/>
      <point x="710.0" y="1102.0"/>
      <point x="809.0" y="1040.0"/>
      <point x="866.0" y="958.0" type="curve"/>
      <point x="866.0" y="1063.0" type="line"/>
      <point x="1149.0" y="1063.0" type="line"/>
      <point x="1149.0" y="65.0" type="line" smooth="yes"/>
      <point x="1149.0" y="-320.0"/>
      <point x="1001.0" y="-488.0"/>
      <point x="494.0" y="-488.0" type="curve" smooth="yes"/>
    </contour>
    <contour>
      <point x="613" y="206" type="curve"/>
      <point x="765" y="206"/>
      <point x="878.0" y="337.0"/>
      <point x="878.0" y="547.0" type="curve" smooth="yes"/>
      <point x="878.0" y="551.053718686"/>
      <point x="877.959544266" y="555.076317577"/>
      <point x="877.879172893" y="559.067565202" type="curve" smooth="yes"/>
      <point x="873.637350085" y="769.716762486"/>
      <point x="758.210744023" y="893.03719008"/>
      <point x="611.0" y="895.0" type="curve"/>
      <point x="432.0" y="895.0"/>
      <point x="340.0" y="759.0"/>
      <point x="340.0" y="547.0" type="curve" smooth="yes"/>
      <point x="340.0" y="346.0"/>
      <point x="454" y="206"/>
    </contour>
    <contour>
      <point x="625.0" y="1059.0" type="move" name="top"/>
    </contour>
  </outline>
</glyph>
<glyph name="h" format="1">
  <advance width="1197"/>
  <unicode hex="0068"/>
  <outline>
    <contour>
      <point x="384" y="0" type="line"/>
      <point x="101" y="0" type="line"/>
      <point x="101" y="1496" type="line"/>
      <point x="384" y="1516" type="line"/>
      <point x="384" y="946" type="line"/>
      <point x="473" y="1036"/>
      <point x="588" y="1103"/>
      <point x="727" y="1103" type="curve" smooth="yes"/>
      <point x="928" y="1103"/>
      <point x="1105" y="985"/>
      <point x="1105" y="647" type="curve" smooth="yes"/>
      <point x="1105" y="0" type="line"/>
      <point x="822" y="0" type="line"/>
      <point x="822" y="640" type="line" smooth="yes"/>
      <point x="822" y="797"/>
      <point x="793" y="894"/>
      <point x="662" y="894" type="curve" smooth="yes"/>
      <point x="544" y="894"/>
      <point x="438" y="804"/>
      <point x="384" y="715" type="curve"/>
    </contour>
  </outline>
</glyph>
<glyph name="i" format="1">
  <advance width="527"/>
  <unicode hex="0069"/>
  <outline>
    <contour>
      <point x="411" y="1478" type="line"/>
      <point x="411" y="1246" type="line"/>
      <point x="127" y="1246" type="line"/>
      <point x="127" y="1478" type="line"/>
    </contour>
    <contour>
      <point x="410" y="1063" type="line"/>
      <point x="410" y="0" type="line"/>
      <point x="127" y="0" type="line"/>
      <point x="127" y="1063" type="line"/>
    </contour>
  </outline>
</glyph>
<glyph name="j" format="1">
  <advance width="547"/>
  <unicode hex="006A"/>
  <outline>
    <contour>
      <point x="442" y="1063" type="line"/>
      <point x="442" y="81" type="line" smooth="yes"/>
      <point x="442" y="-240"/>
      <point x="387" y="-402"/>
      <point x="16" y="-402" type="curve" smooth="yes"/>
      <point x="-45" y="-402" type="line"/>
      <point x="-75" y="-193" type="line"/>
      <point x="-16" y="-193" type="line" smooth="yes"/>
      <point x="137" y="-193"/>
      <point x="159" y="-146"/>
      <point x="159" y="19" type="curve" smooth="yes"/>
      <point x="159" y="1063" type="line"/>
    </contour>
    <contour>
      <point x="442" y="1478" type="line"/>
      <point x="442" y="1246" type="line"/>
      <point x="159" y="1246" type="line"/>
      <point x="159" y="1478" type="line"/>
    </contour>
  </outline>
</glyph>
<glyph name="l" format="1">
  <advance width="678"/>
  <unicode hex="006C"/>
  <outline>
    <contour>
      <point x="118" y="456" type="curve" smooth="yes"/>
      <point x="118" y="1496" type="line"/>
      <point x="401" y="1516" type="line"/>
      <point x="401" y="440" type="line" smooth="yes"/>
      <point x="401" y="259"/>
      <point x="411" y="202"/>
      <point x="567" y="202" type="curve" smooth="yes"/>
      <point x="574" y="202"/>
      <point x="656" y="208"/>
      <point x="656" y="208" type="curve"/>
      <point x="672" y="1" type="line"/>
      <point x="672" y="1"/>
      <point x="568" y="-13"/>
      <point x="513" y="-13" type="curve" smooth="yes"/>
      <point x="184" y="-13"/>
      <point x="118" y="145"/>
    </contour>
  </outline>
</glyph>
<glyph name="m" format="1">
  <advance width="1836"/>
  <unicode hex="006D"/>
  <outline>
    <contour>
      <point x="101" y="0" type="line"/>
      <point x="101" y="834" type="line"/>
      <point x="101" y="1063" type="line"/>
      <point x="340" y="1063" type="line"/>
      <point x="364" y="921" type="line"/>
      <point x="439" y="1017"/>
      <point x="581" y="1099"/>
      <point x="736" y="1103" type="curve"/>
      <point x="880" y="1103"/>
      <point x="969" y="1033"/>
      <point x="1011" y="924" type="curve"/>
      <point x="1106" y="1035"/>
      <point x="1236" y="1102"/>
      <point x="1394" y="1103" type="curve"/>
      <point x="1656" y="1103"/>
      <point x="1744" y="908"/>
      <point x="1744" y="652" type="curve" smooth="yes"/>
      <point x="1744" y="0" type="line"/>
      <point x="1461" y="0" type="line"/>
      <point x="1461" y="592" type="line" smooth="yes"/>
      <point x="1461" y="798"/>
      <point x="1444" y="894"/>
      <point x="1319" y="894" type="curve"/>
      <point x="1186" y="890"/>
      <point x="1113" y="808"/>
      <point x="1068" y="726" type="curve"/>
      <point x="1068" y="0" type="line"/>
      <point x="785" y="0" type="line"/>
      <point x="785" y="611" type="line" smooth="yes"/>
      <point x="785" y="773"/>
      <point x="766" y="894"/>
      <point x="625" y="894" type="curve" smooth="yes"/>
      <point x="502" y="894"/>
      <point x="427" y="801"/>
      <point x="384" y="727" type="curve"/>
      <point x="384" y="0" type="line"/>
    </contour>
  </outline>
</glyph>
<glyph name="n" format="1">
  <advance width="1197"/>
  <unicode hex="006E"/>
  <outline>
    <contour>
      <point x="738" y="1103" type="curve" smooth="yes"/>
      <point x="996" y="1098"/>
      <point x="1105" y="909"/>
      <point x="1105" y="647" type="curve" smooth="yes"/>
      <point x="1105" y="0" type="line"/>
      <point x="822" y="0" type="line"/>
      <point x="822" y="620" type="line" smooth="yes"/>
      <point x="822" y="768"/>
      <point x="813" y="894"/>
      <point x="646" y="894" type="curve" smooth="yes"/>
      <point x="541" y="894"/>
      <point x="430" y="809"/>
      <point x="384" y="724" type="curve"/>
      <point x="384" y="0" type="line"/>
      <point x="101" y="0" type="line"/>
      <point x="101" y="831" type="line"/>
      <point x="101" y="1063" type="line"/>
      <point x="337" y="1063" type="line"/>
      <point x="360" y="922" type="line"/>
      <point x="444" y="1021"/>
      <point x="578" y="1106"/>
    </contour>
  </outline>
</glyph>
<glyph name="o" format="1">
  <advance width="1174"/>
  <unicode hex="006F"/>
  <outline>
    <contour>
      <point x="1112" y="538" type="curve" smooth="yes"/>
      <point x="1112" y="215"/>
      <point x="933" y="-20"/>
      <point x="587" y="-20" type="curve" smooth="yes"/>
      <point x="241" y="-20"/>
      <point x="62" y="215"/>
      <point x="62" y="538" type="curve" smooth="yes"/>
      <point x="62" y="868"/>
      <point x="241" y="1103"/>
      <point x="587" y="1103" type="curve" smooth="yes"/>
      <point x="933" y="1103"/>
      <point x="1112" y="868"/>
    </contour>
    <contour>
      <point x="840" y="538" type="curve" smooth="yes"/>
      <point x="840" y="775"/>
      <point x="736" y="894"/>
      <point x="587" y="894" type="curve" smooth="yes"/>
      <point x="438" y="894"/>
      <point x="334" y="775"/>
      <point x="334" y="538" type="curve" smooth="yes"/>
      <point x="334" y="306"/>
      <point x="436" y="186"/>
      <point x="587" y="186" type="curve" smooth="yes"/>
      <point x="738" y="186"/>
      <point x="840" y="306"/>
    </contour>
  </outline>
</glyph>
<glyph name="p" format="1">
  <advance width="1241"/>
  <unicode hex="0070"/>
  <outline>
    <contour>
      <point x="101" y="-410" type="line"/>
      <point x="101" y="1063" type="line"/>
      <point x="357" y="1063" type="line"/>
      <point x="377" y="921" type="line"/>
      <point x="441" y="1056"/>
      <point x="551" y="1103"/>
      <point x="693" y="1103" type="curve" smooth="yes"/>
      <point x="1018" y="1103"/>
      <point x="1175" y="823"/>
      <point x="1175" y="546" type="curve" smooth="yes"/>
      <point x="1175" y="242"/>
      <point x="1007" y="-18"/>
      <point x="697" y="-20" type="curve" smooth="yes"/>
      <point x="550" y="-20"/>
      <point x="449" y="27"/>
      <point x="384" y="132" type="curve"/>
      <point x="384" y="-381" type="line"/>
    </contour>
    <contour>
      <point x="380" y="538" type="curve" smooth="yes"/>
      <point x="380" y="263"/>
      <point x="515" y="189"/>
      <point x="650" y="189" type="curve" smooth="yes"/>
      <point x="776" y="189"/>
      <point x="903" y="273"/>
      <point x="903" y="538" type="curve" smooth="yes"/>
      <point x="903" y="822"/>
      <point x="765" y="894"/>
      <point x="641" y="894" type="curve" smooth="yes"/>
      <point x="514" y="894"/>
      <point x="380" y="809"/>
    </contour>
  </outline>
</glyph>
<glyph name="q" format="1">
  <advance width="1237"/>
  <unicode hex="0071"/>
  <outline>
    <contour>
      <point x="534" y="-20" type="curve" smooth="yes"/>
      <point x="706" y="-21"/>
      <point x="787" y="44"/>
      <point x="853" y="150" type="curve"/>
      <point x="853" y="-410" type="line"/>
      <point x="1136" y="-379" type="line"/>
      <point x="1136" y="1063" type="line"/>
      <point x="880" y="1063" type="line"/>
      <point x="860" y="921" type="line"/>
      <point x="796" y="1056"/>
      <point x="685" y="1103"/>
      <point x="543" y="1103" type="curve" smooth="yes"/>
      <point x="218" y="1103"/>
      <point x="62" y="823"/>
      <point x="62" y="546" type="curve" smooth="yes"/>
      <point x="62" y="242"/>
      <point x="224" y="-18"/>
    </contour>
    <contour>
      <point x="857" y="538" type="curve" smooth="yes"/>
      <point x="857" y="264"/>
      <point x="732" y="189"/>
      <point x="600" y="189" type="curve" smooth="yes"/>
      <point x="472" y="189"/>
      <point x="334" y="267"/>
      <point x="334" y="538" type="curve" smooth="yes"/>
      <point x="334" y="822"/>
      <point x="476" y="894"/>
      <point x="600" y="894" type="curve" smooth="yes"/>
      <point x="727" y="894"/>
      <point x="857" y="809"/>
    </contour>
  </outline>
</glyph>
<glyph name="r" format="1">
  <advance width="669"/>
  <unicode hex="0072"/>
  <outline>
    <contour>
      <point x="102" y="0" type="line"/>
      <point x="385" y="0" type="line"/>
      <point x="385" y="586" type="line" smooth="yes"/>
      <point x="385" y="743"/>
      <point x="422" y="848"/>
      <point x="623" y="848" type="curve" smooth="yes"/>
      <point x="698" y="848" type="line"/>
      <point x="684" y="1063" type="line"/>
      <point x="656" y="1063" type="line" smooth="yes"/>
      <point x="523" y="1063"/>
      <point x="452" y="1013"/>
      <point x="384" y="918" type="curve"/>
      <point x="364" y="1063" type="line"/>
      <point x="102" y="1063" type="line"/>
      <point x="102" y="825" type="line"/>
    </contour>
    <contour>
      <point x="335" y="1059" type="move" name="top"/>
    </contour>
    <contour>
      <point x="335" y="0" type="move" name="bottom"/>
    </contour>
  </outline>
</glyph>
<glyph name="s" format="1">
  <advance width="910"/>
  <unicode hex="0073"/>
  <outline>
    <contour>
      <point x="500" y="-18" type="curve" smooth="yes"/>
      <point x="749.011" y="-18"/>
      <point x="866" y="142"/>
      <point x="866" y="323" type="curve" smooth="yes"/>
      <point x="866" y="486"/>
      <point x="735" y="583"/>
      <point x="603" y="629" type="curve" smooth="yes"/>
      <point x="438" y="686" type="line" smooth="yes"/>
      <point x="346" y="718"/>
      <point x="313" y="739"/>
      <point x="318" y="812" type="curve" smooth="yes"/>
      <point x="322" y="872"/>
      <point x="370" y="900"/>
      <point x="484" y="900" type="curve" smooth="yes"/>
      <point x="563" y="900"/>
      <point x="700" y="872"/>
      <point x="771" y="833" type="curve"/>
      <point x="819" y="1018" type="line"/>
      <point x="734" y="1078"/>
      <point x="612" y="1103"/>
      <point x="460" y="1103" type="curve" smooth="yes"/>
      <point x="230" y="1103"/>
      <point x="67" y="1001"/>
      <point x="67" y="779" type="curve" smooth="yes"/>
      <point x="67" y="603"/>
      <point x="190" y="523"/>
      <point x="344" y="466" type="curve" smooth="yes"/>
      <point x="504" y="407" type="line" smooth="yes"/>
      <point x="586" y="377"/>
      <point x="608" y="355"/>
      <point x="608" y="293" type="curve" smooth="yes"/>
      <point x="608" y="215"/>
      <point x="543" y="184"/>
      <point x="464" y="184" type="curve" smooth="yes"/>
      <point x="359" y="184"/>
      <point x="197" y="216"/>
      <point x="109" y="273" type="curve"/>
      <point x="53" y="88" type="line"/>
      <point x="157" y="14"/>
      <point x="301" y="-18"/>
    </contour>
    <contour>
      <point x="455" y="1059" type="move" name="top"/>
    </contour>
    <contour>
      <point x="455" y="0" type="move" name="bottom"/>
    </contour>
  </outline>
</glyph>
<glyph name="t" format="1">
  <advance width="773"/>
  <unicode hex="0074"/>
  <outline>
    <contour>
      <point x="439" y="892" type="line"/>
      <point x="439" y="440" type="line" smooth="yes"/>
      <point x="439" y="259"/>
      <point x="449" y="202"/>
      <point x="605" y="202" type="curve" smooth="yes"/>
      <point x="612" y="202"/>
      <point x="694" y="208"/>
      <point x="694" y="208" type="curve"/>
      <point x="710" y="1" type="line"/>
      <point x="710" y="1"/>
      <point x="606" y="-13"/>
      <point x="551" y="-13" type="curve" smooth="yes"/>
      <point x="222" y="-13"/>
      <point x="156" y="145"/>
      <point x="156" y="456" type="curve" smooth="yes"/>
      <point x="156" y="892" type="line"/>
      <point x="-29" y="892" type="line"/>
      <point x="-12" y="1063" type="line"/>
      <point x="176" y="1063" type="line"/>
      <point x="250" y="1321" type="line"/>
      <point x="439" y="1321" type="line"/>
      <point x="439" y="1063" type="line"/>
      <point x="701" y="1063" type="line"/>
      <point x="701" y="892" type="line"/>
    </contour>
  </outline>
</glyph>
<glyph name="u" format="1">
  <advance width="1154"/>
  <unicode hex="0075"/>
  <outline>
    <contour>
      <point x="92" y="386" type="curve" smooth="yes"/>
      <point x="92" y="1063" type="line"/>
      <point x="375" y="1063" type="line"/>
      <point x="375" y="389" type="line" smooth="yes"/>
      <point x="375" y="239"/>
      <point x="452" y="186"/>
      <point x="576" y="186" type="curve" smooth="yes"/>
      <point x="700" y="186"/>
      <point x="779" y="239"/>
      <point x="779" y="389" type="curve" smooth="yes"/>
      <point x="779" y="1063" type="line"/>
      <point x="1062" y="1063" type="line"/>
      <point x="1062" y="386" type="line" smooth="yes"/>
      <point x="1062" y="111"/>
      <point x="865" y="-20"/>
      <point x="576" y="-20" type="curve" smooth="yes"/>
      <point x="289" y="-20"/>
      <point x="92" y="108"/>
    </contour>
    <contour>
      <point x="577" y="1059" type="move" name="top"/>
    </contour>
    <contour>
      <point x="1039" y="10" type="move" name="ogonek"/>
    </contour>
  </outline>
</glyph>
<glyph name="v" format="1">
  <advance width="1112"/>
  <unicode hex="0076"/>
  <outline>
    <contour>
      <point x="452" y="0" type="line"/>
      <point x="716" y="0" type="line"/>
      <point x="1106" y="1063" type="line"/>
      <point x="813" y="1063" type="line"/>
      <point x="587" y="296" type="line"/>
      <point x="302" y="1063" type="line"/>
      <point x="6" y="1063" type="line"/>
    </contour>
  </outline>
</glyph>
<glyph name="y" format="1">
  <advance width="1079"/>
  <unicode hex="0079"/>
  <outline>
    <contour>
      <point x="549" y="355" type="line"/>
      <point x="790" y="1063" type="line"/>
      <point x="1084" y="1063" type="line"/>
      <point x="647" y="-72" type="line" smooth="yes"/>
      <point x="540" y="-349"/>
      <point x="423" y="-410"/>
      <point x="194" y="-410" type="curve" smooth="yes"/>
      <point x="57" y="-410" type="line"/>
      <point x="30" y="-206" type="line"/>
      <point x="104" y="-206" type="line" smooth="yes"/>
      <point x="291" y="-206"/>
      <point x="339" y="-223"/>
      <point x="412" y="34" type="curve"/>
      <point x="-17" y="1063" type="line"/>
      <point x="268" y="1063" type="line"/>
    </contour>
    <contour>
      <point x="540" y="1059" type="move" name="top"/>
    </contour>
  </outline>
</glyph>
<glyph name="z" format="1">
  <advance width="970"/>
  <unicode hex="007A"/>
  <outline>
    <contour>
      <point x="558" y="883" type="line"/>
      <point x="74" y="161" type="line"/>
      <point x="74" y="0" type="line"/>
      <point x="923" y="0" type="line"/>
      <point x="923" y="189" type="line"/>
      <point x="424" y="189" type="line"/>
      <point x="907" y="917" type="line"/>
      <point x="907" y="1063" type="line"/>
      <point x="100" y="1063" type="line"/>
      <point x="100" y="883" type="line"/>
    </contour>
  </outline>
</glyph>
<glyph name="cent" format="1">
  <advance width="966"/>
  <unicode hex="00A2"/>
  <outline>
    <contour>
      <point x="561" y="1445" type="line"/>
      <point x="561" y="-196" type="line"/>
      <point x="663" y="-196" type="line"/>
      <point x="663" y="1445" type="line"/>
    </contour>
    <contour>
      <point x="940" y="172" type="curve"/>
      <point x="887" y="362" type="line"/>
      <point x="829" y="321"/>
      <point x="745" y="283"/>
      <point x="646" y="283" type="curve" smooth="yes"/>
      <point x="472" y="283"/>
      <point x="355" y="385"/>
      <point x="355" y="642" type="curve" smooth="yes"/>
      <point x="355" y="890"/>
      <point x="484" y="993"/>
      <point x="641" y="993" type="curve" smooth="yes"/>
      <point x="735" y="993"/>
      <point x="839" y="948"/>
      <point x="883" y="917" type="curve"/>
      <point x="928" y="1106" type="line"/>
      <point x="845" y="1168"/>
      <point x="751" y="1199"/>
      <point x="606" y="1201" type="curve" smooth="yes"/>
      <point x="338" y="1201"/>
      <point x="83" y="1022"/>
      <point x="83" y="652" type="curve" smooth="yes"/>
      <point x="83" y="263"/>
      <point x="315" y="77"/>
      <point x="627" y="77" type="curve" smooth="yes"/>
      <point x="760" y="77"/>
      <point x="848" y="111"/>
    </contour>
  </outline>
</glyph>
<glyph name="currency" format="1">
  <advance width="880"/>
  <unicode hex="00A4"/>
  <outline>
    <contour>
      <point x="437" y="270" type="curve" smooth="yes"/>
      <point x="507" y="270"/>
      <point x="558" y="282"/>
      <point x="607" y="303" type="curve"/>
      <point x="742" y="31" type="line"/>
      <point x="828" y="72" type="line"/>
      <point x="683" y="346" type="line"/>
      <point x="766" y="415"/>
      <point x="825" y="525"/>
      <point x="825" y="669" type="curve" smooth="yes"/>
      <point x="825" y="836"/>
      <point x="756" y="955"/>
      <point x="639" y="1025" type="curve"/>
      <point x="735" y="1284" type="line"/>
      <point x="705" y="1296"/>
      <point x="675" y="1307"/>
      <point x="644" y="1320" type="curve"/>
      <point x="550" y="1075" type="line"/>
      <point x="516" y="1081"/>
      <point x="478" y="1087"/>
      <point x="442" y="1087" type="curve" smooth="yes"/>
      <point x="388" y="1087"/>
      <point x="344" y="1080"/>
      <point x="299" y="1066" type="curve"/>
      <point x="167" y="1319" type="line"/>
      <point x="74" y="1282" type="line"/>
      <point x="219" y="1009" type="line"/>
      <point x="119" y="938"/>
      <point x="54" y="822"/>
      <point x="54" y="664" type="curve" smooth="yes"/>
      <point x="54" y="491"/>
      <point x="131" y="371"/>
      <point x="253" y="305" type="curve"/>
      <point x="169" y="69" type="line"/>
      <point x="252" y="31" type="line"/>
      <point x="342" y="277" type="line"/>
      <point x="368" y="273"/>
      <point x="402" y="270"/>
    </contour>
    <contour>
      <point x="675" y="655" type="line"/>
      <point x="672" y="495"/>
      <point x="602" y="380"/>
      <point x="441" y="380" type="curve" smooth="yes"/>
      <point x="276" y="380"/>
      <point x="203" y="498"/>
      <point x="203" y="665" type="curve" smooth="yes"/>
      <point x="203" y="831"/>
      <point x="275" y="954"/>
      <point x="437" y="954" type="curve" smooth="yes"/>
      <point x="606" y="954"/>
      <point x="675" y="837"/>
      <point x="675" y="665" type="curve" smooth="yes"/>
    </contour>
  </outline>
</glyph>
<glyph name="yen" format="1">
  <advance width="1224"/>
  <unicode hex="00A5"/>
  <outline>
    <contour>
      <point x="1119" y="737" type="line"/>
      <point x="146" y="737" type="line"/>
      <point x="146" y="575" type="line"/>
      <point x="1119" y="575" type="line"/>
    </contour>
    <contour>
      <point x="1119" y="448" type="line"/>
      <point x="146" y="448" type="line"/>
      <point x="146" y="286" type="line"/>
      <point x="1119" y="286" type="line"/>
    </contour>
    <contour>
      <point x="1278" y="1445" type="line"/>
      <point x="973" y="1445" type="line"/>
      <point x="624" y="842" type="line"/>
      <point x="273" y="1445" type="line"/>
      <point x="-36" y="1445" type="line"/>
      <point x="479" y="586" type="line"/>
      <point x="479" y="0" type="line"/>
      <point x="777" y="0" type="line"/>
      <point x="777" y="586" type="line"/>
    </contour>
  </outline>
</glyph>
<glyph name="section" format="1">
  <advance width="908"/>
  <unicode hex="00A7"/>
  <outline>
    <contour>
      <point x="495" y="582" type="curve"/>
      <point x="397" y="619"/>
      <point x="300" y="656"/>
      <point x="300" y="743" type="curve" smooth="yes"/>
      <point x="300" y="807"/>
      <point x="341" y="845"/>
      <point x="400" y="879" type="curve"/>
      <point x="498" y="836"/>
      <point x="609" y="813"/>
      <point x="609" y="725" type="curve" smooth="yes"/>
      <point x="609" y="662"/>
      <point x="558" y="621"/>
    </contour>
    <contour>
      <point x="52" y="734" type="curve" smooth="yes"/>
      <point x="52" y="417"/>
      <point x="573" y="440"/>
      <point x="573" y="266" type="curve" smooth="yes"/>
      <point x="573" y="206"/>
      <point x="506" y="166"/>
      <point x="381" y="166" type="curve" smooth="yes"/>
      <point x="256" y="166"/>
      <point x="162" y="216"/>
      <point x="77" y="268" type="curve"/>
      <point x="78" y="0" type="line"/>
      <point x="168" y="-36"/>
      <point x="264" y="-68"/>
      <point x="388" y="-68" type="curve" smooth="yes"/>
      <point x="615" y="-68"/>
      <point x="838" y="35"/>
      <point x="838" y="270" type="curve" smooth="yes"/>
      <point x="838" y="375"/>
      <point x="788" y="444"/>
      <point x="724" y="492" type="curve"/>
      <point x="789" y="543"/>
      <point x="859" y="621"/>
      <point x="859" y="737" type="curve" smooth="yes"/>
      <point x="859" y="1061"/>
      <point x="347" y="1006"/>
      <point x="347" y="1204" type="curve" smooth="yes"/>
      <point x="347" y="1256"/>
      <point x="399" y="1284"/>
      <point x="518" y="1284" type="curve" smooth="yes"/>
      <point x="630" y="1284"/>
      <point x="709" y="1238"/>
      <point x="786" y="1202" type="curve"/>
      <point x="783" y="1467" type="line"/>
      <point x="697" y="1492"/>
      <point x="627" y="1520"/>
      <point x="512" y="1520" type="curve" smooth="yes"/>
      <point x="296" y="1520"/>
      <point x="86" y="1435"/>
      <point x="86" y="1205" type="curve" smooth="yes"/>
      <point x="86" y="1099"/>
      <point x="130" y="1028"/>
      <point x="191" y="975" type="curve"/>
      <point x="122" y="927"/>
      <point x="52" y="851"/>
    </contour>
  </outline>
</glyph>
<glyph name="dieresis" format="1">
  <advance width="766"/>
  <unicode hex="00A8"/>
  <outline>
    <contour>
      <point x="696" y="1230" type="line"/>
      <point x="487" y="1230" type="line"/>
      <point x="487" y="1498" type="line"/>
      <point x="696" y="1498" type="line"/>
    </contour>
    <contour>
      <point x="271" y="1230" type="line"/>
      <point x="63" y="1230" type="line"/>
      <point x="63" y="1498" type="line"/>
      <point x="271" y="1498" type="line"/>
    </contour>
  </outline>
</glyph>
<glyph name="copyright" format="1">
  <advance width="1673"/>
  <unicode hex="00A9"/>
  <outline>
    <contour>
      <point x="1069" y="446" type="curve"/>
      <point x="1113" y="330" type="line"/>
      <point x="1032" y="275"/>
      <point x="936" y="249"/>
      <point x="818" y="249" type="curve" smooth="yes"/>
      <point x="563" y="249"/>
      <point x="373" y="450"/>
      <point x="373" y="729" type="curve" smooth="yes"/>
      <point x="373" y="998"/>
      <point x="553" y="1217"/>
      <point x="814" y="1217" type="curve" smooth="yes"/>
      <point x="932" y="1217"/>
      <point x="1032" y="1192"/>
      <point x="1113" y="1137" type="curve"/>
      <point x="1069" y="1025" type="line"/>
      <point x="990" y="1071"/>
      <point x="894" y="1092"/>
      <point x="823" y="1092" type="curve" smooth="yes"/>
      <point x="630" y="1092"/>
      <point x="521" y="921"/>
      <point x="521" y="727" type="curve" smooth="yes"/>
      <point x="521" y="541"/>
      <point x="618" y="379"/>
      <point x="825" y="379" type="curve" smooth="yes"/>
      <point x="896" y="379"/>
      <point x="990" y="400"/>
    </contour>
    <contour>
      <point x="837" y="82" type="curve" smooth="yes"/>
      <point x="1193" y="82"/>
      <point x="1477" y="371"/>
      <point x="1477" y="728" type="curve" smooth="yes"/>
      <point x="1477" y="1085"/>
      <point x="1193" y="1374"/>
      <point x="837" y="1374" type="curve" smooth="yes"/>
      <point x="480" y="1374"/>
      <point x="196" y="1085"/>
      <point x="196" y="728" type="curve" smooth="yes"/>
      <point x="196" y="371"/>
      <point x="480" y="82"/>
    </contour>
    <contour>
      <point x="1594" y="728" type="curve" smooth="yes"/>
      <point x="1594" y="310"/>
      <point x="1253" y="-21"/>
      <point x="837" y="-21" type="curve" smooth="yes"/>
      <point x="418" y="-21"/>
      <point x="79" y="310"/>
      <point x="79" y="728" type="curve" smooth="yes"/>
      <point x="79" y="1145"/>
      <point x="418" y="1478"/>
      <point x="837" y="1478" type="curve" smooth="yes"/>
      <point x="1253" y="1478"/>
      <point x="1594" y="1145"/>
    </contour>
  </outline>
</glyph>
<glyph name="ordfeminine" format="1">
  <advance width="732"/>
  <unicode hex="00AA"/>
  <outline>
    <contour>
      <point x="93" y="1326" type="curve"/>
      <point x="197" y="1205" type="line"/>
      <point x="219" y="1238" type="line" smooth="yes"/>
      <point x="252" y="1290"/>
      <point x="295" y="1319"/>
      <point x="378" y="1319" type="curve" smooth="yes"/>
      <point x="460" y="1319"/>
      <point x="472" y="1298"/>
      <point x="478" y="1217" type="curve"/>
      <point x="281" y="1193"/>
      <point x="56" y="1189"/>
      <point x="56" y="954" type="curve" smooth="yes"/>
      <point x="56" y="800"/>
      <point x="180" y="717"/>
      <point x="318" y="717" type="curve" smooth="yes"/>
      <point x="322" y="717" type="line" smooth="yes"/>
      <point x="386" y="717"/>
      <point x="441" y="740"/>
      <point x="483" y="773" type="curve"/>
      <point x="485" y="736" type="line"/>
      <point x="670" y="736" type="line"/>
      <point x="668" y="768" type="line" smooth="yes"/>
      <point x="663" y="828"/>
      <point x="661" y="852"/>
      <point x="661" y="894" type="curve" smooth="yes"/>
      <point x="663" y="1215" type="line" smooth="yes"/>
      <point x="664" y="1394"/>
      <point x="544" y="1487"/>
      <point x="382" y="1487" type="curve" smooth="yes"/>
      <point x="248" y="1487"/>
      <point x="151" y="1433"/>
    </contour>
    <contour>
      <point x="478" y="1055" type="curve"/>
      <point x="467" y="953"/>
      <point x="432" y="880"/>
      <point x="336" y="880" type="curve" smooth="yes"/>
      <point x="275" y="880"/>
      <point x="245" y="903"/>
      <point x="245" y="956" type="curve" smooth="yes"/>
      <point x="245" y="1040"/>
      <point x="360" y="1039"/>
    </contour>
  </outline>
</glyph>
<glyph name="guillemotleft" format="1">
  <advance width="933"/>
  <unicode hex="00AB"/>
  <outline>
    <contour>
      <point x="675" y="924" type="line"/>
      <point x="899" y="924" type="line"/>
      <point x="628" y="546" type="line"/>
      <point x="891" y="171" type="line"/>
      <point x="670" y="171" type="line"/>
      <point x="390" y="546" type="line"/>
    </contour>
    <contour>
      <point x="317" y="924" type="line"/>
      <point x="546" y="924" type="line"/>
      <point x="270" y="546" type="line"/>
      <point x="537" y="171" type="line"/>
      <point x="311" y="171" type="line"/>
      <point x="33" y="546" type="line"/>
    </contour>
  </outline>
</glyph>
<glyph name="registered" format="1">
  <advance width="1673"/>
  <unicode hex="00AE"/>
  <outline>
    <contour>
      <point x="1594" y="728" type="curve" smooth="yes"/>
      <point x="1594" y="310"/>
      <point x="1253" y="-21"/>
      <point x="837" y="-21" type="curve" smooth="yes"/>
      <point x="418" y="-21"/>
      <point x="79" y="310"/>
      <point x="79" y="728" type="curve" smooth="yes"/>
      <point x="79" y="1145"/>
      <point x="418" y="1478"/>
      <point x="837" y="1478" type="curve" smooth="yes"/>
      <point x="1253" y="1478"/>
      <point x="1594" y="1145"/>
    </contour>
    <contour>
      <point x="837" y="82" type="curve" smooth="yes"/>
      <point x="1193" y="82"/>
      <point x="1477" y="371"/>
      <point x="1477" y="728" type="curve" smooth="yes"/>
      <point x="1477" y="1085"/>
      <point x="1193" y="1374"/>
      <point x="837" y="1374" type="curve" smooth="yes"/>
      <point x="480" y="1374"/>
      <point x="196" y="1085"/>
      <point x="196" y="728" type="curve" smooth="yes"/>
      <point x="196" y="371"/>
      <point x="480" y="82"/>
    </contour>
    <contour>
      <point x="798" y="803" type="line" smooth="yes"/>
      <point x="932" y="803"/>
      <point x="1016" y="821"/>
      <point x="1016" y="950" type="curve" smooth="yes"/>
      <point x="1016" y="1082"/>
      <point x="934" y="1083"/>
      <point x="789" y="1083" type="curve" smooth="yes"/>
      <point x="683" y="1083" type="line"/>
      <point x="683" y="803" type="line"/>
    </contour>
    <contour>
      <point x="821" y="678" type="curve" smooth="yes"/>
      <point x="684" y="678" type="line"/>
      <point x="684" y="261" type="line"/>
      <point x="531" y="261" type="line"/>
      <point x="531" y="1209" type="line"/>
      <point x="840" y="1209" type="line" smooth="yes"/>
      <point x="1027" y="1209"/>
      <point x="1163" y="1143"/>
      <point x="1163" y="950" type="curve" smooth="yes"/>
      <point x="1163" y="801"/>
      <point x="1109" y="732"/>
      <point x="966" y="695" type="curve"/>
      <point x="1015" y="622"/>
      <point x="1137" y="401"/>
      <point x="1209" y="261" type="curve"/>
      <point x="1039" y="261" type="line"/>
      <point x="916" y="492" type="line"/>
      <point x="858" y="611"/>
      <point x="822" y="678"/>
    </contour>
  </outline>
</glyph>
<glyph name="uni00AF" format="1">
  <advance width="862"/>
  <unicode hex="00AF"/>
  <outline>
    <contour>
      <point x="777" y="1498" type="line"/>
      <point x="777" y="1335" type="line"/>
      <point x="98" y="1335" type="line"/>
      <point x="98" y="1498" type="line"/>
    </contour>
  </outline>
</glyph>
<glyph name="degree" format="1">
  <advance width="842"/>
  <unicode hex="00B0"/>
  <outline>
    <contour>
      <point x="413" y="1453" type="curve" smooth="yes"/>
      <point x="233" y="1453"/>
      <point x="85" y="1328"/>
      <point x="85" y="1154" type="curve" smooth="yes"/>
      <point x="85" y="981"/>
      <point x="234" y="854"/>
      <point x="413" y="854" type="curve" smooth="yes"/>
      <point x="592" y="854"/>
      <point x="742" y="980"/>
      <point x="742" y="1154" type="curve" smooth="yes"/>
      <point x="742" y="1341"/>
      <point x="585" y="1453"/>
    </contour>
    <contour>
      <point x="423" y="1277" type="line" smooth="yes"/>
      <point x="503" y="1273"/>
      <point x="564" y="1225"/>
      <point x="564" y="1155" type="curve" smooth="yes"/>
      <point x="564" y="1083"/>
      <point x="501" y="1030"/>
      <point x="413" y="1030" type="curve" smooth="yes"/>
      <point x="326" y="1030"/>
      <point x="264" y="1082"/>
      <point x="264" y="1155" type="curve" smooth="yes"/>
      <point x="264" y="1225"/>
      <point x="326" y="1277"/>
      <point x="413" y="1277" type="curve" smooth="yes"/>
    </contour>
  </outline>
</glyph>
<glyph name="twosuperior" format="1">
  <advance width="806"/>
  <unicode hex="00B2"/>
  <outline>
    <contour>
      <point x="698" y="553" type="line"/>
      <point x="698" y="716" type="line"/>
      <point x="334" y="716" type="line"/>
      <point x="474" y="833"/>
      <point x="715" y="983"/>
      <point x="715" y="1217" type="curve" smooth="yes"/>
      <point x="715" y="1388"/>
      <point x="586" y="1479"/>
      <point x="403" y="1479" type="curve" smooth="yes"/>
      <point x="207" y="1479"/>
      <point x="88" y="1336"/>
      <point x="86" y="1332" type="curve"/>
      <point x="192" y="1189" type="line"/>
      <point x="249" y="1250"/>
      <point x="331" y="1299"/>
      <point x="407" y="1299" type="curve" smooth="yes"/>
      <point x="461" y="1299"/>
      <point x="500" y="1274"/>
      <point x="500" y="1213" type="curve" smooth="yes"/>
      <point x="500" y="1117"/>
      <point x="419" y="1038"/>
      <point x="102" y="697" type="curve"/>
      <point x="102" y="553" type="line"/>
    </contour>
  </outline>
</glyph>
<glyph name="periodcentered" format="1">
  <advance width="406"/>
  <unicode hex="00B7"/>
  <outline>
    <contour>
      <point x="336" y="733" type="line"/>
      <point x="336" y="463" type="line"/>
      <point x="70" y="463" type="line"/>
      <point x="70" y="733" type="line"/>
    </contour>
  </outline>
</glyph>
<glyph name="onesuperior" format="1">
  <advance width="695"/>
  <unicode hex="00B9"/>
  <outline>
    <contour>
      <point x="463" y="1465" type="line"/>
      <point x="463" y="723" type="line"/>
      <point x="599" y="723" type="line"/>
      <point x="599" y="553" type="line"/>
      <point x="112" y="553" type="line"/>
      <point x="112" y="723" type="line"/>
      <point x="246" y="723" type="line"/>
      <point x="246" y="1244" type="line"/>
      <point x="102" y="1218" type="line"/>
      <point x="103" y="1386" type="line"/>
      <point x="167.167" y="1402.77"/>
      <point x="232.834" y="1422.44"/>
      <point x="300" y="1445" type="curve"/>
    </contour>
  </outline>
</glyph>
<glyph name="ordmasculine" format="1">
  <advance width="842"/>
  <unicode hex="00BA"/>
  <outline>
    <contour>
      <point x="239" y="1113" type="curve"/>
      <point x="239" y="1103" type="line" smooth="yes"/>
      <point x="239" y="971"/>
      <point x="293" y="885"/>
      <point x="426" y="885" type="curve" smooth="yes"/>
      <point x="555" y="885"/>
      <point x="609" y="972"/>
      <point x="609" y="1099" type="curve" smooth="yes"/>
      <point x="609" y="1231"/>
      <point x="554" y="1319"/>
      <point x="422" y="1319" type="curve" smooth="yes"/>
      <point x="296" y="1319"/>
      <point x="242" y="1232"/>
    </contour>
    <contour>
      <point x="800" y="1101" type="curve" smooth="yes"/>
      <point x="800" y="876"/>
      <point x="658" y="717"/>
      <point x="426" y="717" type="curve" smooth="yes"/>
      <point x="186" y="717"/>
      <point x="46" y="873"/>
      <point x="46" y="1104" type="curve" smooth="yes"/>
      <point x="46" y="1331"/>
      <point x="192" y="1486"/>
      <point x="425" y="1486" type="curve" smooth="yes"/>
      <point x="661" y="1486"/>
      <point x="800" y="1329"/>
    </contour>
  </outline>
</glyph>
<glyph name="guillemotright" format="1">
  <advance width="1152"/>
  <unicode hex="00BB"/>
  <outline>
    <contour>
      <point x="1035" y="547" type="line"/>
      <point x="751" y="171" type="line"/>
      <point x="527" y="171" type="line"/>
      <point x="798" y="547" type="line"/>
      <point x="535" y="924" type="line"/>
      <point x="758" y="924" type="line"/>
    </contour>
    <contour>
      <point x="656" y="547" type="line"/>
      <point x="371" y="171" type="line"/>
      <point x="146" y="171" type="line"/>
      <point x="418" y="547" type="line"/>
      <point x="153" y="924" type="line"/>
      <point x="376" y="924" type="line"/>
    </contour>
  </outline>
</glyph>
<glyph name="onequarter" format="1">
  <advance width="2016"/>
  <unicode hex="00BC"/>
  <outline>
    <contour>
      <point x="404" y="0" type="line"/>
      <point x="1431" y="1446" type="line"/>
      <point x="1643" y="1446" type="line"/>
      <point x="1641" y="1443"/>
      <point x="1640" y="1441"/>
      <point x="1639" y="1439" type="curve" smooth="yes"/>
      <point x="624" y="0" type="line"/>
    </contour>
    <contour>
      <point x="1619" y="200" type="line"/>
      <point x="1618" y="37" type="line"/>
      <point x="1444" y="37" type="line"/>
      <point x="1444" y="200" type="line"/>
      <point x="1049" y="200" type="line"/>
      <point x="1049" y="326" type="line"/>
      <point x="1446" y="844" type="line"/>
      <point x="1620" y="844" type="line"/>
      <point x="1620" y="367" type="line"/>
      <point x="1721" y="367" type="line"/>
      <point x="1737" y="200" type="line"/>
    </contour>
    <contour>
      <point x="387" y="1439" type="line"/>
      <point x="393" y="1440"/>
      <point x="395" y="1442"/>
      <point x="398" y="1445" type="curve"/>
      <point x="399" y="1444"/>
      <point x="401" y="1443"/>
      <point x="402" y="1442" type="curve"/>
      <point x="561" y="1465" type="line"/>
      <point x="561" y="791" type="line"/>
      <point x="689" y="791" type="line"/>
      <point x="689" y="584" type="line"/>
      <point x="230" y="584" type="line"/>
      <point x="230" y="803" type="line"/>
      <point x="345" y="803" type="line"/>
      <point x="345" y="1019" type="line" smooth="yes"/>
      <point x="345" y="1074"/>
      <point x="344" y="1118"/>
      <point x="344" y="1167" type="curve" smooth="yes"/>
      <point x="344" y="1184" type="line"/>
      <point x="316" y="1172"/>
      <point x="293" y="1164"/>
      <point x="268" y="1155" type="curve" smooth="yes"/>
      <point x="200" y="1128" type="line"/>
      <point x="201" y="1356" type="line"/>
      <point x="236" y="1366" type="line"/>
      <point x="295" y="1384"/>
      <point x="341" y="1408"/>
      <point x="387" y="1436" type="curve"/>
    </contour>
    <contour>
      <point x="1442" y="569" type="line"/>
      <point x="1290" y="367" type="line"/>
      <point x="1442" y="367" type="line"/>
    </contour>
  </outline>
</glyph>
<glyph name="questiondown" format="1">
  <advance width="1065"/>
  <unicode hex="00BF"/>
  <outline>
    <contour>
      <point x="632" y="1016" type="line"/>
      <point x="475" y="719"/>
      <point x="247" y="568"/>
      <point x="247" y="338" type="curve" smooth="yes"/>
      <point x="247" y="96"/>
      <point x="467" y="-10"/>
      <point x="640" y="-10" type="curve" smooth="yes"/>
      <point x="821" y="-10"/>
      <point x="922" y="34"/>
      <point x="1026" y="99" type="curve"/>
      <point x="951" y="275" type="line"/>
      <point x="891" y="237"/>
      <point x="808" y="189"/>
      <point x="670" y="189" type="curve" smooth="yes"/>
      <point x="542" y="189"/>
      <point x="471" y="268"/>
      <point x="471" y="379" type="curve" smooth="yes"/>
      <point x="471" y="562"/>
      <point x="702" y="711"/>
      <point x="751" y="1016" type="curve"/>
    </contour>
    <contour>
      <point x="862" y="1329" type="curve" smooth="yes"/>
      <point x="862" y="1417"/>
      <point x="788" y="1488"/>
      <point x="700" y="1488" type="curve" smooth="yes"/>
      <point x="614" y="1488"/>
      <point x="541" y="1417"/>
      <point x="541" y="1329" type="curve" smooth="yes"/>
      <point x="541" y="1241"/>
      <point x="614" y="1167"/>
      <point x="700" y="1167" type="curve" smooth="yes"/>
      <point x="788" y="1167"/>
      <point x="862" y="1241"/>
    </contour>
  </outline>
</glyph>
<glyph name="Acircumflex" format="1">
  <advance width="1300"/>
  <unicode hex="00C2"/>
  <outline>
    <contour>
      <point x="1029" y="0" type="line"/>
      <point x="1310" y="0" type="line"/>
      <point x="796" y="1445" type="line"/>
      <point x="516" y="1445" type="line"/>
      <point x="-10" y="0" type="line"/>
      <point x="285" y="0" type="line"/>
      <point x="442" y="444" type="line"/>
      <point x="870" y="444" type="line"/>
    </contour>
    <contour>
      <point x="506" y="626" type="line"/>
      <point x="658" y="1117" type="line"/>
      <point x="800" y="626" type="line"/>
    </contour>
    <contour>
      <point x="314" y="1600" type="line"/>
      <point x="503" y="1600" type="line"/>
      <point x="673" y="1801" type="line"/>
      <point x="846" y="1600" type="line"/>
      <point x="1040" y="1600" type="line"/>
      <point x="777" y="1982" type="line"/>
      <point x="577" y="1982" type="line"/>
    </contour>
  </outline>
</glyph>
<glyph name="Atilde" format="1">
  <advance width="1300"/>
  <unicode hex="00C3"/>
  <outline>
    <contour>
      <point x="1029" y="0" type="line"/>
      <point x="1310" y="0" type="line"/>
      <point x="796" y="1445" type="line"/>
      <point x="516" y="1445" type="line"/>
      <point x="-10" y="0" type="line"/>
      <point x="285" y="0" type="line"/>
      <point x="442" y="444" type="line"/>
      <point x="870" y="444" type="line"/>
    </contour>
    <contour>
      <point x="506" y="626" type="line"/>
      <point x="658" y="1117" type="line"/>
      <point x="800" y="626" type="line"/>
    </contour>
    <contour>
      <point x="827" y="1774" type="curve" smooth="yes"/>
      <point x="772" y="1774"/>
      <point x="637" y="1855"/>
      <point x="504" y="1855" type="curve" smooth="yes"/>
      <point x="336" y="1855"/>
      <point x="336" y="1697"/>
      <point x="336" y="1609" type="curve"/>
      <point x="492" y="1609" type="line"/>
      <point x="492" y="1672"/>
      <point x="507" y="1697"/>
      <point x="540" y="1697" type="curve" smooth="yes"/>
      <point x="571" y="1697"/>
      <point x="752" y="1609"/>
      <point x="864" y="1609" type="curve" smooth="yes"/>
      <point x="1032" y="1609"/>
      <point x="1032" y="1774"/>
      <point x="1032" y="1855" type="curve"/>
      <point x="873" y="1855" type="line"/>
      <point x="873" y="1799"/>
      <point x="857" y="1774"/>
    </contour>
  </outline>
</glyph>
<glyph name="Adieresis" format="1">
  <advance width="1300"/>
  <unicode hex="00C4"/>
  <outline>
    <contour>
      <point x="1029" y="0" type="line"/>
      <point x="1310" y="0" type="line"/>
      <point x="796" y="1445" type="line"/>
      <point x="516" y="1445" type="line"/>
      <point x="-10" y="0" type="line"/>
      <point x="285" y="0" type="line"/>
      <point x="442" y="444" type="line"/>
      <point x="870" y="444" type="line"/>
    </contour>
    <contour>
      <point x="506" y="626" type="line"/>
      <point x="658" y="1117" type="line"/>
      <point x="800" y="626" type="line"/>
    </contour>
    <contour>
      <point x="992" y="1600" type="line"/>
      <point x="992" y="1868" type="line"/>
      <point x="783" y="1868" type="line"/>
      <point x="783" y="1600" type="line"/>
    </contour>
    <contour>
      <point x="567" y="1600" type="line"/>
      <point x="567" y="1868" type="line"/>
      <point x="359" y="1868" type="line"/>
      <point x="359" y="1600" type="line"/>
    </contour>
  </outline>
</glyph>
<glyph name="Aring" format="1">
  <advance width="1300"/>
  <unicode hex="00C5"/>
  <outline>
    <contour>
      <point x="1029" y="0" type="line"/>
      <point x="1310" y="0" type="line"/>
      <point x="796" y="1445" type="line"/>
      <point x="516" y="1445" type="line"/>
      <point x="-10" y="0" type="line"/>
      <point x="285" y="0" type="line"/>
      <point x="442" y="444" type="line"/>
      <point x="870" y="444" type="line"/>
    </contour>
    <contour>
      <point x="506" y="626" type="line"/>
      <point x="658" y="1117" type="line"/>
      <point x="800" y="626" type="line"/>
    </contour>
    <contour>
      <point x="692" y="1540" type="curve" smooth="yes"/>
      <point x="621" y="1540"/>
      <point x="586" y="1595"/>
      <point x="586" y="1651" type="curve" smooth="yes"/>
      <point x="586" y="1706"/>
      <point x="622" y="1762"/>
      <point x="692" y="1762" type="curve" smooth="yes"/>
      <point x="763" y="1762"/>
      <point x="799" y="1706"/>
      <point x="799" y="1651" type="curve" smooth="yes"/>
      <point x="799" y="1595"/>
      <point x="764" y="1540"/>
    </contour>
    <contour>
      <point x="692" y="1857" type="curve" smooth="yes"/>
      <point x="541" y="1857"/>
      <point x="467" y="1755"/>
      <point x="467" y="1651" type="curve" smooth="yes"/>
      <point x="467" y="1547"/>
      <point x="543" y="1441"/>
      <point x="692" y="1441" type="curve" smooth="yes"/>
      <point x="841" y="1441"/>
      <point x="918" y="1547"/>
      <point x="918" y="1651" type="curve" smooth="yes"/>
      <point x="918" y="1755"/>
      <point x="844" y="1857"/>
    </contour>
  </outline>
</glyph>
<glyph name="Egrave" format="1">
  <advance width="1129"/>
  <unicode hex="00C8"/>
  <outline>
    <contour>
      <point x="1016" y="869" type="line"/>
      <point x="419" y="869" type="line"/>
      <point x="419" y="1227" type="line"/>
      <point x="1039" y="1227" type="line"/>
      <point x="1062" y="1445" type="line"/>
      <point x="121" y="1445" type="line"/>
      <point x="121" y="0" type="line"/>
      <point x="1080" y="0" type="line"/>
      <point x="1092" y="210" type="line"/>
      <point x="419" y="219" type="line"/>
      <point x="419" y="651" type="line"/>
      <point x="1016" y="651" type="line"/>
    </contour>
    <contour>
      <point x="465" y="1600" type="curve"/>
      <point x="674" y="1600" type="line"/>
      <point x="445" y="1940" type="line"/>
      <point x="131" y="1940" type="line"/>
      <point x="242" y="1827"/>
      <point x="354" y="1714"/>
    </contour>
  </outline>
</glyph>
<glyph name="Eacute" format="1">
  <advance width="1129"/>
  <unicode hex="00C9"/>
  <outline>
    <contour>
      <point x="1016" y="869" type="line"/>
      <point x="419" y="869" type="line"/>
      <point x="419" y="1227" type="line"/>
      <point x="1039" y="1227" type="line"/>
      <point x="1062" y="1445" type="line"/>
      <point x="121" y="1445" type="line"/>
      <point x="121" y="0" type="line"/>
      <point x="1080" y="0" type="line"/>
      <point x="1092" y="210" type="line"/>
      <point x="419" y="219" type="line"/>
      <point x="419" y="651" type="line"/>
      <point x="1016" y="651" type="line"/>
    </contour>
    <contour>
      <point x="960" y="1982" type="line"/>
      <point x="646" y="1982" type="line"/>
      <point x="480" y="1600" type="line"/>
      <point x="649" y="1600" type="line"/>
    </contour>
  </outline>
</glyph>
<glyph name="Edieresis" format="1">
  <advance width="1129"/>
  <unicode hex="00CB"/>
  <outline>
    <contour>
      <point x="1016" y="869" type="line"/>
      <point x="419" y="869" type="line"/>
      <point x="419" y="1227" type="line"/>
      <point x="1039" y="1227" type="line"/>
      <point x="1062" y="1445" type="line"/>
      <point x="121" y="1445" type="line"/>
      <point x="121" y="0" type="line"/>
      <point x="1080" y="0" type="line"/>
      <point x="1092" y="210" type="line"/>
      <point x="419" y="219" type="line"/>
      <point x="419" y="651" type="line"/>
      <point x="1016" y="651" type="line"/>
    </contour>
    <contour>
      <point x="860" y="1600" type="line"/>
      <point x="860" y="1868" type="line"/>
      <point x="651" y="1868" type="line"/>
      <point x="651" y="1600" type="line"/>
    </contour>
    <contour>
      <point x="435" y="1600" type="line"/>
      <point x="435" y="1868" type="line"/>
      <point x="227" y="1868" type="line"/>
      <point x="227" y="1600" type="line"/>
    </contour>
  </outline>
</glyph>
<glyph name="Igrave" format="1">
  <advance width="566"/>
  <unicode hex="00CC"/>
  <outline>
    <contour>
      <point x="432" y="1445" type="line"/>
      <point x="134" y="1445" type="line"/>
      <point x="134" y="0" type="line"/>
      <point x="432" y="0" type="line"/>
    </contour>
    <contour>
      <point x="143" y="1600" type="curve"/>
      <point x="352" y="1600" type="line"/>
      <point x="123" y="1940" type="line"/>
      <point x="-191" y="1940" type="line"/>
      <point x="-80" y="1827"/>
      <point x="32" y="1714"/>
    </contour>
  </outline>
</glyph>
<glyph name="Icircumflex" format="1">
  <advance width="566"/>
  <unicode hex="00CE"/>
  <outline>
    <contour>
      <point x="432" y="1445" type="line"/>
      <point x="134" y="1445" type="line"/>
      <point x="134" y="0" type="line"/>
      <point x="432" y="0" type="line"/>
    </contour>
    <contour>
      <point x="-139" y="1600" type="line"/>
      <point x="50" y="1600" type="line"/>
      <point x="220" y="1801" type="line"/>
      <point x="393" y="1600" type="line"/>
      <point x="587" y="1600" type="line"/>
      <point x="324" y="1982" type="line"/>
      <point x="124" y="1982" type="line"/>
    </contour>
  </outline>
</glyph>
<glyph name="Idieresis" format="1">
  <advance width="566"/>
  <unicode hex="00CF"/>
  <outline>
    <contour>
      <point x="432" y="1445" type="line"/>
      <point x="134" y="1445" type="line"/>
      <point x="134" y="0" type="line"/>
      <point x="432" y="0" type="line"/>
    </contour>
    <contour>
      <point x="539" y="1600" type="line"/>
      <point x="539" y="1868" type="line"/>
      <point x="330" y="1868" type="line"/>
      <point x="330" y="1600" type="line"/>
    </contour>
    <contour>
      <point x="114" y="1600" type="line"/>
      <point x="114" y="1868" type="line"/>
      <point x="-94" y="1868" type="line"/>
      <point x="-94" y="1600" type="line"/>
    </contour>
  </outline>
</glyph>
<glyph name="Eth" format="1">
  <advance width="1549"/>
  <unicode hex="00D0"/>
  <outline>
    <contour>
      <point x="1135" y="715" type="curve" smooth="yes"/>
      <point x="1135" y="1095"/>
      <point x="939" y="1220"/>
      <point x="543" y="1220" type="curve" smooth="yes"/>
      <point x="428" y="1220" type="line"/>
      <point x="428" y="223" type="line"/>
      <point x="629" y="223" type="line" smooth="yes"/>
      <point x="954" y="223"/>
      <point x="1135" y="397"/>
    </contour>
    <contour>
      <point x="1432" y="719" type="curve" smooth="yes"/>
      <point x="1432" y="248"/>
      <point x="1097" y="1"/>
      <point x="611" y="1" type="curve" smooth="yes"/>
      <point x="130" y="1" type="line"/>
      <point x="130" y="1445" type="line"/>
      <point x="521" y="1445" type="line" smooth="yes"/>
      <point x="1064" y="1445"/>
      <point x="1432" y="1249"/>
    </contour>
    <contour>
      <point x="-2" y="634" type="line"/>
      <point x="-2" y="828" type="line"/>
      <point x="597" y="828" type="line"/>
      <point x="597" y="634" type="line"/>
    </contour>
  </outline>
</glyph>
<glyph name="Oacute" format="1">
  <advance width="1595"/>
  <unicode hex="00D3"/>
  <outline>
    <contour>
      <point x="797" y="-20" type="curve" smooth="yes"/>
      <point x="1211" y="-20"/>
      <point x="1523" y="256"/>
      <point x="1523" y="727" type="curve" smooth="yes"/>
      <point x="1523" y="1202"/>
      <point x="1212" y="1478"/>
      <point x="797" y="1478" type="curve" smooth="yes"/>
      <point x="383" y="1478"/>
      <point x="72" y="1202"/>
      <point x="72" y="727" type="curve" smooth="yes"/>
      <point x="72" y="256"/>
      <point x="383" y="-20"/>
    </contour>
    <contour>
      <point x="799" y="1243" type="curve" smooth="yes"/>
      <point x="1085" y="1243"/>
      <point x="1226" y="1027"/>
      <point x="1226" y="722" type="curve" smooth="yes"/>
      <point x="1226" y="416"/>
      <point x="1083" y="211"/>
      <point x="799" y="211" type="curve" smooth="yes"/>
      <point x="516" y="211"/>
      <point x="374" y="416"/>
      <point x="374" y="722" type="curve" smooth="yes"/>
      <point x="374" y="1027"/>
      <point x="514" y="1243"/>
    </contour>
    <contour>
      <point x="1198" y="1982" type="line"/>
      <point x="884" y="1982" type="line"/>
      <point x="718" y="1600" type="line"/>
      <point x="887" y="1600" type="line"/>
    </contour>
  </outline>
</glyph>
<glyph name="Otilde" format="1">
  <advance width="1595"/>
  <unicode hex="00D5"/>
  <outline>
    <contour>
      <point x="797" y="-20" type="curve" smooth="yes"/>
      <point x="1211" y="-20"/>
      <point x="1523" y="256"/>
      <point x="1523" y="727" type="curve" smooth="yes"/>
      <point x="1523" y="1202"/>
      <point x="1212" y="1478"/>
      <point x="797" y="1478" type="curve" smooth="yes"/>
      <point x="383" y="1478"/>
      <point x="72" y="1202"/>
      <point x="72" y="727" type="curve" smooth="yes"/>
      <point x="72" y="256"/>
      <point x="383" y="-20"/>
    </contour>
    <contour>
      <point x="799" y="1243" type="curve" smooth="yes"/>
      <point x="1085" y="1243"/>
      <point x="1226" y="1027"/>
      <point x="1226" y="722" type="curve" smooth="yes"/>
      <point x="1226" y="416"/>
      <point x="1083" y="211"/>
      <point x="799" y="211" type="curve" smooth="yes"/>
      <point x="516" y="211"/>
      <point x="374" y="416"/>
      <point x="374" y="722" type="curve" smooth="yes"/>
      <point x="374" y="1027"/>
      <point x="514" y="1243"/>
    </contour>
    <contour>
      <point x="933" y="1774" type="curve" smooth="yes"/>
      <point x="878" y="1774"/>
      <point x="743" y="1855"/>
      <point x="610" y="1855" type="curve" smooth="yes"/>
      <point x="442" y="1855"/>
      <point x="442" y="1697"/>
      <point x="442" y="1609" type="curve"/>
      <point x="598" y="1609" type="line"/>
      <point x="598" y="1672"/>
      <point x="613" y="1697"/>
      <point x="646" y="1697" type="curve" smooth="yes"/>
      <point x="677" y="1697"/>
      <point x="858" y="1609"/>
      <point x="970" y="1609" type="curve" smooth="yes"/>
      <point x="1138" y="1609"/>
      <point x="1138" y="1774"/>
      <point x="1138" y="1855" type="curve"/>
      <point x="979" y="1855" type="line"/>
      <point x="979" y="1799"/>
      <point x="963" y="1774"/>
    </contour>
  </outline>
</glyph>
<glyph name="multiply" format="1">
  <advance width="1501"/>
  <unicode hex="00D7"/>
  <outline>
    <contour>
      <point x="1200" y="835" type="line"/>
      <point x="915" y="559" type="line"/>
      <point x="1010" y="466"/>
      <point x="1106" y="374"/>
      <point x="1200" y="280" type="curve"/>
      <point x="1060" y="136" type="line"/>
      <point x="760" y="412" type="line"/>
      <point x="459" y="136" type="line"/>
      <point x="321" y="279" type="line"/>
      <point x="605" y="559" type="line"/>
      <point x="321" y="836" type="line"/>
      <point x="460" y="982" type="line"/>
      <point x="760" y="705" type="line"/>
      <point x="1059" y="982" type="line"/>
    </contour>
  </outline>
</glyph>
<glyph name="Oslash" format="1">
  <advance width="1712"/>
  <unicode hex="00D8"/>
  <outline>
    <component base="O"/>
    <contour>
      <point x="1148" y="1649" type="line"/>
      <point x="1244" y="1609" type="line"/>
      <point x="454" y="-204" type="line"/>
      <point x="365" y="-162" type="line"/>
    </contour>
  </outline>
</glyph>
<glyph name="Uacute" format="1">
  <advance width="1390"/>
  <unicode hex="00DA"/>
  <outline>
    <contour>
      <point x="695" y="-20" type="curve" smooth="yes"/>
      <point x="1092" y="-20"/>
      <point x="1283" y="177"/>
      <point x="1283" y="538" type="curve" smooth="yes"/>
      <point x="1283" y="1445" type="line"/>
      <point x="985" y="1445" type="line"/>
      <point x="985" y="553" type="line" smooth="yes"/>
      <point x="985" y="314"/>
      <point x="914" y="208"/>
      <point x="695" y="208" type="curve" smooth="yes"/>
      <point x="476" y="208"/>
      <point x="405" y="314"/>
      <point x="405" y="553" type="curve" smooth="yes"/>
      <point x="405" y="1445" type="line"/>
      <point x="107" y="1445" type="line"/>
      <point x="107" y="538" type="line" smooth="yes"/>
      <point x="107" y="177"/>
      <point x="298" y="-20"/>
    </contour>
    <contour>
      <point x="1072" y="1982" type="line"/>
      <point x="758" y="1982" type="line"/>
      <point x="592" y="1600" type="line"/>
      <point x="761" y="1600" type="line"/>
    </contour>
  </outline>
</glyph>
<glyph name="Ucircumflex" format="1">
  <advance width="1390"/>
  <unicode hex="00DB"/>
  <outline>
    <contour>
      <point x="695" y="-20" type="curve" smooth="yes"/>
      <point x="1092" y="-20"/>
      <point x="1283" y="177"/>
      <point x="1283" y="538" type="curve" smooth="yes"/>
      <point x="1283" y="1445" type="line"/>
      <point x="985" y="1445" type="line"/>
      <point x="985" y="553" type="line" smooth="yes"/>
      <point x="985" y="314"/>
      <point x="914" y="208"/>
      <point x="695" y="208" type="curve" smooth="yes"/>
      <point x="476" y="208"/>
      <point x="405" y="314"/>
      <point x="405" y="553" type="curve" smooth="yes"/>
      <point x="405" y="1445" type="line"/>
      <point x="107" y="1445" type="line"/>
      <point x="107" y="538" type="line" smooth="yes"/>
      <point x="107" y="177"/>
      <point x="298" y="-20"/>
    </contour>
    <contour>
      <point x="293" y="1600" type="line"/>
      <point x="482" y="1600" type="line"/>
      <point x="652" y="1801" type="line"/>
      <point x="825" y="1600" type="line"/>
      <point x="1019" y="1600" type="line"/>
      <point x="756" y="1982" type="line"/>
      <point x="556" y="1982" type="line"/>
    </contour>
  </outline>
</glyph>
<glyph name="Udieresis" format="1">
  <advance width="1390"/>
  <unicode hex="00DC"/>
  <outline>
    <contour>
      <point x="695" y="-20" type="curve" smooth="yes"/>
      <point x="1092" y="-20"/>
      <point x="1283" y="177"/>
      <point x="1283" y="538" type="curve" smooth="yes"/>
      <point x="1283" y="1445" type="line"/>
      <point x="985" y="1445" type="line"/>
      <point x="985" y="553" type="line" smooth="yes"/>
      <point x="985" y="314"/>
      <point x="914" y="208"/>
      <point x="695" y="208" type="curve" smooth="yes"/>
      <point x="476" y="208"/>
      <point x="405" y="314"/>
      <point x="405" y="553" type="curve" smooth="yes"/>
      <point x="405" y="1445" type="line"/>
      <point x="107" y="1445" type="line"/>
      <point x="107" y="538" type="line" smooth="yes"/>
      <point x="107" y="177"/>
      <point x="298" y="-20"/>
    </contour>
    <contour>
      <point x="971" y="1600" type="line"/>
      <point x="971" y="1868" type="line"/>
      <point x="762" y="1868" type="line"/>
      <point x="762" y="1600" type="line"/>
    </contour>
    <contour>
      <point x="546" y="1600" type="line"/>
      <point x="546" y="1868" type="line"/>
      <point x="338" y="1868" type="line"/>
      <point x="338" y="1600" type="line"/>
    </contour>
  </outline>
</glyph>
<glyph name="Yacute" format="1">
  <advance width="1242"/>
  <unicode hex="00DD"/>
  <outline>
    <contour>
      <point x="1278" y="1445" type="line"/>
      <point x="973" y="1445" type="line"/>
      <point x="624" y="842" type="line"/>
      <point x="273" y="1445" type="line"/>
      <point x="-36" y="1445" type="line"/>
      <point x="479" y="586" type="line"/>
      <point x="479" y="0" type="line"/>
      <point x="777" y="0" type="line"/>
      <point x="777" y="586" type="line"/>
    </contour>
    <contour>
      <point x="1110" y="1982" type="line"/>
      <point x="796" y="1982" type="line"/>
      <point x="630" y="1600" type="line"/>
      <point x="799" y="1600" type="line"/>
    </contour>
  </outline>
</glyph>
<glyph name="Thorn" format="1">
  <advance width="1319"/>
  <unicode hex="00DE"/>
  <outline>
    <contour>
      <point x="182" y="15" type="line"/>
      <point x="419" y="15" type="line"/>
      <point x="419" y="321" type="line"/>
      <point x="713" y="321" type="line" smooth="yes"/>
      <point x="1011" y="321"/>
      <point x="1270" y="467"/>
      <point x="1270" y="759" type="curve" smooth="yes"/>
      <point x="1270" y="1076"/>
      <point x="1008" y="1198"/>
      <point x="688" y="1198" type="curve" smooth="yes"/>
      <point x="419" y="1198" type="line"/>
      <point x="419" y="1440" type="line"/>
      <point x="182" y="1440" type="line"/>
    </contour>
    <contour>
      <point x="419" y="1012" type="line"/>
      <point x="708" y="1012" type="line" smooth="yes"/>
      <point x="905" y="1012"/>
      <point x="1027" y="944"/>
      <point x="1027" y="772" type="curve" smooth="yes"/>
      <point x="1027" y="617"/>
      <point x="907" y="534"/>
      <point x="731" y="534" type="curve" smooth="yes"/>
      <point x="420" y="534" type="line"/>
    </contour>
  </outline>
</glyph>
<glyph name="acircumflex" format="1">
  <advance width="1070"/>
  <unicode hex="00E2"/>
  <outline>
    <contour>
      <point x="722" y="92" type="curve"/>
      <point x="751" y="0" type="line"/>
      <point x="968" y="0" type="line"/>
      <point x="968" y="758" type="line" smooth="yes"/>
      <point x="968" y="990"/>
      <point x="810" y="1103"/>
      <point x="564" y="1103" type="curve" smooth="yes"/>
      <point x="372" y="1103"/>
      <point x="229" y="1068"/>
      <point x="130" y="1023" type="curve"/>
      <point x="176" y="838" type="line"/>
      <point x="265" y="858"/>
      <point x="394" y="899"/>
      <point x="500" y="899" type="curve" smooth="yes"/>
      <point x="604" y="899"/>
      <point x="685" y="859"/>
      <point x="685" y="720" type="curve" smooth="yes"/>
      <point x="685" y="681" type="line"/>
      <point x="318" y="622"/>
      <point x="67" y="597"/>
      <point x="67" y="284" type="curve" smooth="yes"/>
      <point x="67" y="69"/>
      <point x="222" y="-18"/>
      <point x="393" y="-18" type="curve" smooth="yes"/>
      <point x="511" y="-18"/>
      <point x="636" y="23"/>
    </contour>
    <contour>
      <point x="452" y="162" type="curve" smooth="yes"/>
      <point x="363" y="162"/>
      <point x="321" y="216"/>
      <point x="321" y="294" type="curve" smooth="yes"/>
      <point x="321" y="441"/>
      <point x="450" y="466"/>
      <point x="608" y="489" type="curve" smooth="yes"/>
      <point x="685" y="501" type="line"/>
      <point x="685" y="250" type="line"/>
      <point x="610" y="198"/>
      <point x="551" y="162"/>
    </contour>
    <contour>
      <point x="186" y="1225" type="line"/>
      <point x="375" y="1225" type="line"/>
      <point x="545" y="1426" type="line"/>
      <point x="718" y="1225" type="line"/>
      <point x="912" y="1225" type="line"/>
      <point x="649" y="1607" type="line"/>
      <point x="449" y="1607" type="line"/>
    </contour>
  </outline>
</glyph>
<glyph name="atilde" format="1">
  <advance width="1070"/>
  <unicode hex="00E3"/>
  <outline>
    <contour>
      <point x="722" y="92" type="curve"/>
      <point x="751" y="0" type="line"/>
      <point x="968" y="0" type="line"/>
      <point x="968" y="758" type="line" smooth="yes"/>
      <point x="968" y="990"/>
      <point x="810" y="1103"/>
      <point x="564" y="1103" type="curve" smooth="yes"/>
      <point x="372" y="1103"/>
      <point x="229" y="1068"/>
      <point x="130" y="1023" type="curve"/>
      <point x="176" y="838" type="line"/>
      <point x="265" y="858"/>
      <point x="394" y="899"/>
      <point x="500" y="899" type="curve" smooth="yes"/>
      <point x="604" y="899"/>
      <point x="685" y="859"/>
      <point x="685" y="720" type="curve" smooth="yes"/>
      <point x="685" y="681" type="line"/>
      <point x="318" y="622"/>
      <point x="67" y="597"/>
      <point x="67" y="284" type="curve" smooth="yes"/>
      <point x="67" y="69"/>
      <point x="222" y="-18"/>
      <point x="393" y="-18" type="curve" smooth="yes"/>
      <point x="511" y="-18"/>
      <point x="636" y="23"/>
    </contour>
    <contour>
      <point x="452" y="162" type="curve" smooth="yes"/>
      <point x="363" y="162"/>
      <point x="321" y="216"/>
      <point x="321" y="294" type="curve" smooth="yes"/>
      <point x="321" y="441"/>
      <point x="450" y="466"/>
      <point x="608" y="489" type="curve" smooth="yes"/>
      <point x="685" y="501" type="line"/>
      <point x="685" y="250" type="line"/>
      <point x="610" y="198"/>
      <point x="551" y="162"/>
    </contour>
    <contour>
      <point x="699" y="1393" type="curve" smooth="yes"/>
      <point x="644" y="1393"/>
      <point x="509" y="1474"/>
      <point x="376" y="1474" type="curve" smooth="yes"/>
      <point x="208" y="1474"/>
      <point x="208" y="1316"/>
      <point x="208" y="1228" type="curve"/>
      <point x="364" y="1228" type="line"/>
      <point x="364" y="1291"/>
      <point x="379" y="1316"/>
      <point x="412" y="1316" type="curve" smooth="yes"/>
      <point x="443" y="1316"/>
      <point x="624" y="1228"/>
      <point x="736" y="1228" type="curve" smooth="yes"/>
      <point x="904" y="1228"/>
      <point x="904" y="1393"/>
      <point x="904" y="1474" type="curve"/>
      <point x="745" y="1474" type="line"/>
      <point x="745" y="1418"/>
      <point x="729" y="1393"/>
    </contour>
  </outline>
</glyph>
<glyph name="aring" format="1">
  <advance width="1070"/>
  <unicode hex="00E5"/>
  <outline>
    <contour>
      <point x="722" y="92" type="curve"/>
      <point x="751" y="0" type="line"/>
      <point x="968" y="0" type="line"/>
      <point x="968" y="758" type="line" smooth="yes"/>
      <point x="968" y="990"/>
      <point x="810" y="1103"/>
      <point x="564" y="1103" type="curve" smooth="yes"/>
      <point x="372" y="1103"/>
      <point x="229" y="1068"/>
      <point x="130" y="1023" type="curve"/>
      <point x="176" y="838" type="line"/>
      <point x="265" y="858"/>
      <point x="394" y="899"/>
      <point x="500" y="899" type="curve" smooth="yes"/>
      <point x="604" y="899"/>
      <point x="685" y="859"/>
      <point x="685" y="720" type="curve" smooth="yes"/>
      <point x="685" y="681" type="line"/>
      <point x="318" y="622"/>
      <point x="67" y="597"/>
      <point x="67" y="284" type="curve" smooth="yes"/>
      <point x="67" y="69"/>
      <point x="222" y="-18"/>
      <point x="393" y="-18" type="curve" smooth="yes"/>
      <point x="511" y="-18"/>
      <point x="636" y="23"/>
    </contour>
    <contour>
      <point x="452" y="162" type="curve" smooth="yes"/>
      <point x="363" y="162"/>
      <point x="321" y="216"/>
      <point x="321" y="294" type="curve" smooth="yes"/>
      <point x="321" y="441"/>
      <point x="450" y="466"/>
      <point x="608" y="489" type="curve" smooth="yes"/>
      <point x="685" y="501" type="line"/>
      <point x="685" y="250" type="line"/>
      <point x="610" y="198"/>
      <point x="551" y="162"/>
    </contour>
    <contour>
      <point x="565" y="1300" type="curve" smooth="yes"/>
      <point x="494" y="1300"/>
      <point x="459" y="1355"/>
      <point x="459" y="1411" type="curve" smooth="yes"/>
      <point x="459" y="1466"/>
      <point x="495" y="1522"/>
      <point x="565" y="1522" type="curve" smooth="yes"/>
      <point x="636" y="1522"/>
      <point x="672" y="1466"/>
      <point x="672" y="1411" type="curve" smooth="yes"/>
      <point x="672" y="1355"/>
      <point x="637" y="1300"/>
    </contour>
    <contour>
      <point x="565" y="1617" type="curve" smooth="yes"/>
      <point x="414" y="1617"/>
      <point x="340" y="1515"/>
      <point x="340" y="1411" type="curve" smooth="yes"/>
      <point x="340" y="1307"/>
      <point x="416" y="1201"/>
      <point x="565" y="1201" type="curve" smooth="yes"/>
      <point x="714" y="1201"/>
      <point x="791" y="1307"/>
      <point x="791" y="1411" type="curve" smooth="yes"/>
      <point x="791" y="1515"/>
      <point x="717" y="1617"/>
    </contour>
  </outline>
</glyph>
<glyph name="ae" format="1">
  <advance width="1651"/>
  <unicode hex="00E6"/>
  <outline>
    <contour>
      <point x="62" y="311" type="curve" smooth="yes"/>
      <point x="62" y="538"/>
      <point x="246" y="564"/>
      <point x="578" y="605" type="curve"/>
      <point x="667" y="614" type="line"/>
      <point x="667" y="710" type="line" smooth="yes"/>
      <point x="667" y="834"/>
      <point x="633" y="898"/>
      <point x="488" y="905" type="curve"/>
      <point x="364" y="905"/>
      <point x="228" y="849"/>
      <point x="181" y="833" type="curve"/>
      <point x="127" y="1023" type="line"/>
      <point x="226" y="1068"/>
      <point x="323" y="1098"/>
      <point x="499" y="1103" type="curve"/>
      <point x="672" y="1106"/>
      <point x="791" y="1044"/>
      <point x="832" y="933" type="curve"/>
      <point x="903" y="1023"/>
      <point x="1029" y="1104"/>
      <point x="1189" y="1104" type="curve" smooth="yes"/>
      <point x="1481" y="1104"/>
      <point x="1597" y="862"/>
      <point x="1597" y="586" type="curve"/>
      <point x="1597" y="539"/>
      <point x="1531" y="523"/>
      <point x="1450" y="521" type="curve"/>
      <point x="1402" y="518"/>
      <point x="1069.0" y="491.75"/>
      <point x="942" y="482" type="curve"/>
      <point x="948" y="287"/>
      <point x="1047" y="186"/>
      <point x="1217" y="184" type="curve"/>
      <point x="1344" y="184"/>
      <point x="1444" y="219"/>
      <point x="1487" y="253" type="curve"/>
      <point x="1566" y="80" type="line"/>
      <point x="1479" y="19"/>
      <point x="1382" y="-20"/>
      <point x="1202" y="-20" type="curve" smooth="yes"/>
      <point x="1005" y="-20"/>
      <point x="889" y="46"/>
      <point x="812" y="147" type="curve"/>
      <point x="728" y="57"/>
      <point x="604" y="-21"/>
      <point x="401" y="-21" type="curve" smooth="yes"/>
      <point x="185" y="-21"/>
      <point x="62" y="142"/>
    </contour>
    <contour>
      <point x="449" y="162" type="curve" smooth="yes"/>
      <point x="548" y="162"/>
      <point x="636" y="217"/>
      <point x="711" y="290" type="curve"/>
      <point x="711" y="292"/>
      <point x="674" y="391"/>
      <point x="674" y="454" type="curve"/>
      <point x="577" y="440" type="line" smooth="yes"/>
      <point x="424" y="418"/>
      <point x="318" y="404"/>
      <point x="318" y="304" type="curve"/>
      <point x="318" y="218"/>
      <point x="360.0" y="162.0"/>
    </contour>
    <contour>
      <point x="1186" y="896" type="curve" smooth="yes"/>
      <point x="1099" y="896"/>
      <point x="960" y="858"/>
      <point x="943" y="632" type="curve"/>
      <point x="1340" y="672" type="line"/>
      <point x="1340" y="672"/>
      <point x="1342" y="686"/>
      <point x="1342" y="708" type="curve" smooth="yes"/>
      <point x="1342" y="771"/>
      <point x="1324" y="896"/>
    </contour>
    <contour>
      <point x="826.0" y="1059.0" type="move" name="top"/>
    </contour>
  </outline>
</glyph>
<glyph name="ecircumflex" format="1">
  <advance width="1109"/>
  <unicode hex="00EA"/>
  <outline>
    <contour>
      <point x="191" y="1133" type="line"/>
      <point x="380" y="1133" type="line"/>
      <point x="550" y="1334" type="line"/>
      <point x="723" y="1133" type="line"/>
      <point x="917" y="1133" type="line"/>
      <point x="654" y="1515" type="line"/>
      <point x="454" y="1515" type="line"/>
    </contour>
    <contour>
      <point x="344" y="627" type="line"/>
      <point x="359" y="840"/>
      <point x="494" y="895"/>
      <point x="586" y="895" type="curve" smooth="yes"/>
      <point x="722" y="895"/>
      <point x="798" y="799"/>
      <point x="798" y="627" type="curve"/>
    </contour>
    <contour>
      <point x="630" y="-20" type="curve" smooth="yes"/>
      <point x="810" y="-20"/>
      <point x="931" y="34"/>
      <point x="1024" y="105" type="curve"/>
      <point x="945" y="278" type="line"/>
      <point x="882" y="230"/>
      <point x="773" y="184"/>
      <point x="641" y="184" type="curve" smooth="yes"/>
      <point x="456" y="184"/>
      <point x="347" y="280"/>
      <point x="341" y="475" type="curve"/>
      <point x="1053" y="475" type="line"/>
      <point x="1053" y="502"/>
      <point x="1055" y="537"/>
      <point x="1055" y="563" type="curve" smooth="yes"/>
      <point x="1055" y="848"/>
      <point x="906" y="1103"/>
      <point x="583" y="1103" type="curve" smooth="yes"/>
      <point x="253" y="1103"/>
      <point x="62" y="855"/>
      <point x="62" y="541" type="curve" smooth="yes"/>
      <point x="62" y="198"/>
      <point x="262" y="-20"/>
    </contour>
  </outline>
</glyph>
<glyph name="igrave" format="1">
  <advance width="587"/>
  <unicode hex="00EC"/>
  <outline>
    <contour>
      <point x="410" y="1063" type="line"/>
      <point x="127" y="1063" type="line"/>
      <point x="127" y="0" type="line"/>
      <point x="410" y="0" type="line"/>
    </contour>
    <contour>
      <point x="245" y="1225" type="curve"/>
      <point x="454" y="1225" type="line"/>
      <point x="225" y="1565" type="line"/>
      <point x="-89" y="1565" type="line"/>
      <point x="22" y="1452"/>
      <point x="134" y="1339"/>
    </contour>
  </outline>
</glyph>
<glyph name="iacute" format="1">
  <advance width="587"/>
  <unicode hex="00ED"/>
  <outline>
    <contour>
      <point x="534" y="1558" type="line"/>
      <point x="220" y="1558" type="line"/>
      <point x="54" y="1176" type="line"/>
      <point x="223" y="1176" type="line"/>
    </contour>
    <contour>
      <point x="410" y="1063" type="line"/>
      <point x="127" y="1063" type="line"/>
      <point x="127" y="0" type="line"/>
      <point x="410" y="0" type="line"/>
    </contour>
  </outline>
</glyph>
<glyph name="idieresis" format="1">
  <advance width="587"/>
  <unicode hex="00EF"/>
  <outline>
    <contour>
      <point x="610" y="1230" type="line"/>
      <point x="610" y="1498" type="line"/>
      <point x="401" y="1498" type="line"/>
      <point x="401" y="1230" type="line"/>
    </contour>
    <contour>
      <point x="185" y="1230" type="line"/>
      <point x="185" y="1498" type="line"/>
      <point x="-23" y="1498" type="line"/>
      <point x="-23" y="1230" type="line"/>
    </contour>
    <contour>
      <point x="410" y="1063" type="line"/>
      <point x="127" y="1063" type="line"/>
      <point x="127" y="0" type="line"/>
      <point x="410" y="0" type="line"/>
    </contour>
  </outline>
</glyph>
<glyph name="eth" format="1">
  <advance width="1215"/>
  <unicode hex="00F0"/>
  <outline>
    <contour>
      <point x="622" y="754" type="curve" smooth="yes"/>
      <point x="439" y="754"/>
      <point x="338" y="650"/>
      <point x="338" y="475" type="curve" smooth="yes"/>
      <point x="338" y="307"/>
      <point x="452" y="199"/>
      <point x="628" y="199" type="curve" smooth="yes"/>
      <point x="805" y="199"/>
      <point x="910" y="304"/>
      <point x="910" y="472" type="curve" smooth="yes"/>
      <point x="910" y="646"/>
      <point x="803" y="754"/>
    </contour>
    <contour>
      <point x="567" y="915" type="curve" smooth="yes"/>
      <point x="602" y="915"/>
      <point x="698" y="899"/>
      <point x="698" y="899" type="curve"/>
      <point x="525" y="1094" type="line"/>
      <point x="289" y="997" type="line"/>
      <point x="223" y="1179" type="line"/>
      <point x="393" y="1250" type="line"/>
      <point x="201" y="1478" type="line"/>
      <point x="518" y="1478" type="line"/>
      <point x="626" y="1345" type="line"/>
      <point x="883" y="1451" type="line"/>
      <point x="951" y="1270" type="line"/>
      <point x="756" y="1189" type="line"/>
      <point x="864" y="1068"/>
      <point x="966" y="954"/>
      <point x="1051" y="817" type="curve" smooth="yes"/>
      <point x="1111" y="721"/>
      <point x="1155" y="593"/>
      <point x="1157" y="446" type="curve"/>
      <point x="1157" y="144"/>
      <point x="944" y="-19"/>
      <point x="621" y="-19" type="curve" smooth="yes"/>
      <point x="305" y="-19"/>
      <point x="80" y="167"/>
      <point x="80" y="460" type="curve" smooth="yes"/>
      <point x="80" y="735"/>
      <point x="271" y="915"/>
    </contour>
  </outline>
</glyph>
<glyph name="divide" format="1">
  <advance width="1511"/>
  <unicode hex="00F7"/>
  <outline>
    <contour>
      <point x="1300" y="460" type="line"/>
      <point x="198" y="460" type="line"/>
      <point x="198" y="659" type="line"/>
      <point x="1300" y="659" type="line"/>
    </contour>
    <contour>
      <point x="906" y="1088" type="line"/>
      <point x="906" y="818" type="line"/>
      <point x="603" y="818" type="line"/>
      <point x="603" y="1088" type="line"/>
    </contour>
    <contour>
      <point x="906" y="291" type="line"/>
      <point x="906" y="21" type="line"/>
      <point x="603" y="21" type="line"/>
      <point x="603" y="291" type="line"/>
    </contour>
  </outline>
</glyph>
<glyph name="oslash" format="1">
  <advance width="1184"/>
  <unicode hex="00F8"/>
  <outline>
    <component base="o"/>
    <contour>
      <point x="305" y="-188" type="line"/>
      <point x="246" y="-156" type="line"/>
      <point x="875" y="1278" type="line"/>
      <point x="942" y="1244" type="line"/>
    </contour>
  </outline>
</glyph>
<glyph name="ugrave" format="1">
  <advance width="1126"/>
  <unicode hex="00F9"/>
  <outline>
    <contour>
      <point x="639" y="1176" type="curve"/>
      <point x="848" y="1176" type="line"/>
      <point x="619" y="1516" type="line"/>
      <point x="305" y="1516" type="line"/>
      <point x="416" y="1403"/>
      <point x="528" y="1290"/>
    </contour>
    <contour>
      <point x="89" y="386" type="line" smooth="yes"/>
      <point x="89" y="108"/>
      <point x="282" y="-20"/>
      <point x="563" y="-20" type="curve" smooth="yes"/>
      <point x="845" y="-20"/>
      <point x="1037" y="111"/>
      <point x="1037" y="386" type="curve" smooth="yes"/>
      <point x="1037" y="1063" type="line"/>
      <point x="754" y="1063" type="line"/>
      <point x="754" y="389" type="line" smooth="yes"/>
      <point x="754" y="239"/>
      <point x="680" y="186"/>
      <point x="563" y="186" type="curve" smooth="yes"/>
      <point x="445" y="186"/>
      <point x="372" y="239"/>
      <point x="372" y="389" type="curve" smooth="yes"/>
      <point x="372" y="1063" type="line"/>
      <point x="89" y="1063" type="line"/>
    </contour>
  </outline>
</glyph>
<glyph name="ucircumflex" format="1">
  <advance width="1126"/>
  <unicode hex="00FB"/>
  <outline>
    <contour>
      <point x="214" y="1133" type="line"/>
      <point x="403" y="1133" type="line"/>
      <point x="573" y="1334" type="line"/>
      <point x="746" y="1133" type="line"/>
      <point x="940" y="1133" type="line"/>
      <point x="677" y="1515" type="line"/>
      <point x="477" y="1515" type="line"/>
    </contour>
    <contour>
      <point x="89" y="386" type="line" smooth="yes"/>
      <point x="89" y="108"/>
      <point x="282" y="-20"/>
      <point x="563" y="-20" type="curve" smooth="yes"/>
      <point x="845" y="-20"/>
      <point x="1037" y="111"/>
      <point x="1037" y="386" type="curve" smooth="yes"/>
      <point x="1037" y="1063" type="line"/>
      <point x="754" y="1063" type="line"/>
      <point x="754" y="389" type="line" smooth="yes"/>
      <point x="754" y="239"/>
      <point x="680" y="186"/>
      <point x="563" y="186" type="curve" smooth="yes"/>
      <point x="445" y="186"/>
      <point x="372" y="239"/>
      <point x="372" y="389" type="curve" smooth="yes"/>
      <point x="372" y="1063" type="line"/>
      <point x="89" y="1063" type="line"/>
    </contour>
  </outline>
</glyph>
<glyph name="udieresis" format="1">
  <advance width="1126"/>
  <unicode hex="00FC"/>
  <outline>
    <contour>
      <point x="894" y="1230" type="line"/>
      <point x="894" y="1498" type="line"/>
      <point x="685" y="1498" type="line"/>
      <point x="685" y="1230" type="line"/>
    </contour>
    <contour>
      <point x="469" y="1230" type="line"/>
      <point x="469" y="1498" type="line"/>
      <point x="261" y="1498" type="line"/>
      <point x="261" y="1230" type="line"/>
    </contour>
    <contour>
      <point x="89" y="386" type="line" smooth="yes"/>
      <point x="89" y="108"/>
      <point x="282" y="-20"/>
      <point x="563" y="-20" type="curve" smooth="yes"/>
      <point x="845" y="-20"/>
      <point x="1037" y="111"/>
      <point x="1037" y="386" type="curve" smooth="yes"/>
      <point x="1037" y="1063" type="line"/>
      <point x="754" y="1063" type="line"/>
      <point x="754" y="389" type="line" smooth="yes"/>
      <point x="754" y="239"/>
      <point x="680" y="186"/>
      <point x="563" y="186" type="curve" smooth="yes"/>
      <point x="445" y="186"/>
      <point x="372" y="239"/>
      <point x="372" y="389" type="curve" smooth="yes"/>
      <point x="372" y="1063" type="line"/>
      <point x="89" y="1063" type="line"/>
    </contour>
  </outline>
</glyph>
<glyph name="yacute" format="1">
  <advance width="1079"/>
  <unicode hex="00FD"/>
  <outline>
    <contour>
      <point x="780" y="1558" type="line"/>
      <point x="466" y="1558" type="line"/>
      <point x="300" y="1176" type="line"/>
      <point x="469" y="1176" type="line"/>
    </contour>
    <contour>
      <point x="549" y="355" type="line"/>
      <point x="268" y="1063" type="line"/>
      <point x="-17" y="1063" type="line"/>
      <point x="412" y="34" type="line"/>
      <point x="339" y="-223"/>
      <point x="291" y="-206"/>
      <point x="104" y="-206" type="curve" smooth="yes"/>
      <point x="30" y="-206" type="line"/>
      <point x="57" y="-410" type="line"/>
      <point x="194" y="-410" type="line" smooth="yes"/>
      <point x="423" y="-410"/>
      <point x="540" y="-349"/>
      <point x="647" y="-72" type="curve" smooth="yes"/>
      <point x="1084" y="1063" type="line"/>
      <point x="790" y="1063" type="line"/>
    </contour>
  </outline>
</glyph>
<glyph name="thorn" format="1">
  <advance width="1298"/>
  <unicode hex="00FE"/>
  <outline>
    <contour>
      <point x="411" y="103" type="line"/>
      <point x="411" y="103"/>
      <point x="521" y="-17"/>
      <point x="741" y="-17" type="curve" smooth="yes"/>
      <point x="1070" y="-17"/>
      <point x="1217" y="217"/>
      <point x="1217" y="508" type="curve" smooth="yes"/>
      <point x="1217" y="808"/>
      <point x="1060" y="1055"/>
      <point x="721" y="1055" type="curve" smooth="yes"/>
      <point x="529" y="1055"/>
      <point x="411" y="940"/>
      <point x="411" y="940" type="curve"/>
      <point x="411" y="1494" type="line"/>
      <point x="160" y="1494" type="line"/>
      <point x="160" y="1494"/>
      <point x="167" y="1289"/>
      <point x="167" y="1202" type="curve" smooth="yes"/>
      <point x="167" y="-422" type="line"/>
      <point x="411" y="-422" type="line"/>
    </contour>
    <contour>
      <point x="702" y="197" type="curve" smooth="yes"/>
      <point x="496" y="197"/>
      <point x="410" y="328"/>
      <point x="410" y="524" type="curve" smooth="yes"/>
      <point x="410" y="719"/>
      <point x="495" y="851"/>
      <point x="702" y="851" type="curve" smooth="yes"/>
      <point x="892" y="851"/>
      <point x="967" y="709"/>
      <point x="967" y="524" type="curve" smooth="yes"/>
      <point x="967" y="339"/>
      <point x="893" y="197"/>
    </contour>
  </outline>
</glyph>
<glyph name="ydieresis" format="1">
  <advance width="1079"/>
  <unicode hex="00FF"/>
  <outline>
    <contour>
      <point x="856" y="1230" type="line"/>
      <point x="856" y="1498" type="line"/>
      <point x="647" y="1498" type="line"/>
      <point x="647" y="1230" type="line"/>
    </contour>
    <contour>
      <point x="431" y="1230" type="line"/>
      <point x="431" y="1498" type="line"/>
      <point x="223" y="1498" type="line"/>
      <point x="223" y="1230" type="line"/>
    </contour>
    <contour>
      <point x="549" y="355" type="line"/>
      <point x="268" y="1063" type="line"/>
      <point x="-17" y="1063" type="line"/>
      <point x="412" y="34" type="line"/>
      <point x="339" y="-223"/>
      <point x="291" y="-206"/>
      <point x="104" y="-206" type="curve" smooth="yes"/>
      <point x="30" y="-206" type="line"/>
      <point x="57" y="-410" type="line"/>
      <point x="194" y="-410" type="line" smooth="yes"/>
      <point x="423" y="-410"/>
      <point x="540" y="-349"/>
      <point x="647" y="-72" type="curve" smooth="yes"/>
      <point x="1084" y="1063" type="line"/>
      <point x="790" y="1063" type="line"/>
    </contour>
  </outline>
</glyph>
<glyph name="Amacron" format="1">
  <advance width="1300"/>
  <unicode hex="0100"/>
  <outline>
    <contour>
      <point x="1029" y="0" type="line"/>
      <point x="1310" y="0" type="line"/>
      <point x="796" y="1445" type="line"/>
      <point x="516" y="1445" type="line"/>
      <point x="-10" y="0" type="line"/>
      <point x="285" y="0" type="line"/>
      <point x="442" y="444" type="line"/>
      <point x="870" y="444" type="line"/>
    </contour>
    <contour>
      <point x="506" y="626" type="line"/>
      <point x="658" y="1117" type="line"/>
      <point x="800" y="626" type="line"/>
    </contour>
    <contour>
      <point x="1021" y="1768" type="line"/>
      <point x="342" y="1768" type="line"/>
      <point x="342" y="1605" type="line"/>
      <point x="1021" y="1605" type="line"/>
    </contour>
  </outline>
</glyph>
<glyph name="Abreve" format="1">
  <advance width="1300"/>
  <unicode hex="0102"/>
  <outline>
    <contour>
      <point x="1029" y="0" type="line"/>
      <point x="1310" y="0" type="line"/>
      <point x="796" y="1445" type="line"/>
      <point x="516" y="1445" type="line"/>
      <point x="-10" y="0" type="line"/>
      <point x="285" y="0" type="line"/>
      <point x="442" y="444" type="line"/>
      <point x="870" y="444" type="line"/>
    </contour>
    <contour>
      <point x="506" y="626" type="line"/>
      <point x="658" y="1117" type="line"/>
      <point x="800" y="626" type="line"/>
    </contour>
    <contour>
      <point x="677" y="1600" type="curve" smooth="yes"/>
      <point x="858" y="1600"/>
      <point x="977" y="1677"/>
      <point x="977" y="1849" type="curve"/>
      <point x="793" y="1849" type="line"/>
      <point x="793" y="1791"/>
      <point x="765" y="1768"/>
      <point x="677" y="1768" type="curve" smooth="yes"/>
      <point x="589" y="1768"/>
      <point x="561" y="1791"/>
      <point x="561" y="1849" type="curve"/>
      <point x="377" y="1849" type="line"/>
      <point x="377" y="1678"/>
      <point x="496" y="1600"/>
    </contour>
  </outline>
</glyph>
<glyph name="aogonek" format="1">
  <advance width="1070"/>
  <unicode hex="0105"/>
  <outline>
    <contour>
      <point x="722" y="92" type="curve"/>
      <point x="751" y="0" type="line"/>
      <point x="968" y="0" type="line"/>
      <point x="968" y="758" type="line" smooth="yes"/>
      <point x="968" y="990"/>
      <point x="810" y="1103"/>
      <point x="564" y="1103" type="curve" smooth="yes"/>
      <point x="372" y="1103"/>
      <point x="229" y="1068"/>
      <point x="130" y="1023" type="curve"/>
      <point x="176" y="838" type="line"/>
      <point x="265" y="858"/>
      <point x="394" y="899"/>
      <point x="500" y="899" type="curve" smooth="yes"/>
      <point x="604" y="899"/>
      <point x="685" y="859"/>
      <point x="685" y="720" type="curve" smooth="yes"/>
      <point x="685" y="681" type="line"/>
      <point x="318" y="622"/>
      <point x="67" y="597"/>
      <point x="67" y="284" type="curve" smooth="yes"/>
      <point x="67" y="69"/>
      <point x="222" y="-18"/>
      <point x="393" y="-18" type="curve" smooth="yes"/>
      <point x="511" y="-18"/>
      <point x="636" y="23"/>
    </contour>
    <contour>
      <point x="452" y="162" type="curve" smooth="yes"/>
      <point x="363" y="162"/>
      <point x="321" y="216"/>
      <point x="321" y="294" type="curve" smooth="yes"/>
      <point x="321" y="441"/>
      <point x="450" y="466"/>
      <point x="608" y="489" type="curve" smooth="yes"/>
      <point x="685" y="501" type="line"/>
      <point x="685" y="250" type="line"/>
      <point x="610" y="198"/>
      <point x="551" y="162"/>
    </contour>
    <contour>
      <point x="837" y="-243" type="curve" smooth="yes"/>
      <point x="784" y="-243"/>
      <point x="759" y="-201"/>
      <point x="759" y="-168" type="curve" smooth="yes"/>
      <point x="759" y="-114"/>
      <point x="785" y="-52"/>
      <point x="861" y="0" type="curve"/>
      <point x="758" y="0" type="line"/>
      <point x="683" y="-39"/>
      <point x="568" y="-109"/>
      <point x="568" y="-234" type="curve" smooth="yes"/>
      <point x="568" y="-343"/>
      <point x="663" y="-391"/>
      <point x="776" y="-391" type="curve" smooth="yes"/>
      <point x="842" y="-391"/>
      <point x="911" y="-378"/>
      <point x="976" y="-352" type="curve"/>
      <point x="976" y="-209" type="line"/>
      <point x="976" y="-209"/>
      <point x="899" y="-243"/>
    </contour>
  </outline>
</glyph>
<glyph name="Dcaron" format="1">
  <advance width="1497"/>
  <unicode hex="010E"/>
  <outline>
    <contour>
      <point x="121" y="1" type="line"/>
      <point x="602" y="1" type="line" smooth="yes"/>
      <point x="1088" y="1"/>
      <point x="1423" y="248"/>
      <point x="1423" y="719" type="curve" smooth="yes"/>
      <point x="1423" y="1249"/>
      <point x="1055" y="1445"/>
      <point x="512" y="1445" type="curve" smooth="yes"/>
      <point x="121" y="1445" type="line"/>
    </contour>
    <contour>
      <point x="419" y="1220" type="line"/>
      <point x="534" y="1220" type="line" smooth="yes"/>
      <point x="930" y="1220"/>
      <point x="1126" y="1095"/>
      <point x="1126" y="715" type="curve" smooth="yes"/>
      <point x="1126" y="397"/>
      <point x="945" y="223"/>
      <point x="620" y="223" type="curve" smooth="yes"/>
      <point x="419" y="223" type="line"/>
    </contour>
    <contour>
      <point x="398" y="1921" type="line"/>
      <point x="676" y="1580" type="line"/>
      <point x="869" y="1580" type="line"/>
      <point x="1147" y="1921" type="line"/>
      <point x="927" y="1921" type="line"/>
      <point x="767" y="1763" type="line"/>
      <point x="612" y="1921" type="line"/>
    </contour>
  </outline>
</glyph>
<glyph name="Emacron" format="1">
  <advance width="1129"/>
  <unicode hex="0112"/>
  <outline>
    <contour>
      <point x="1016" y="869" type="line"/>
      <point x="419" y="869" type="line"/>
      <point x="419" y="1227" type="line"/>
      <point x="1039" y="1227" type="line"/>
      <point x="1062" y="1445" type="line"/>
      <point x="121" y="1445" type="line"/>
      <point x="121" y="0" type="line"/>
      <point x="1080" y="0" type="line"/>
      <point x="1092" y="210" type="line"/>
      <point x="419" y="219" type="line"/>
      <point x="419" y="651" type="line"/>
      <point x="1016" y="651" type="line"/>
    </contour>
    <contour>
      <point x="889" y="1768" type="line"/>
      <point x="210" y="1768" type="line"/>
      <point x="210" y="1605" type="line"/>
      <point x="889" y="1605" type="line"/>
    </contour>
  </outline>
</glyph>
<glyph name="Eogonek" format="1">
  <advance width="1129"/>
  <unicode hex="0118"/>
  <outline>
    <contour>
      <point x="1016" y="869" type="line"/>
      <point x="419" y="869" type="line"/>
      <point x="419" y="1227" type="line"/>
      <point x="1039" y="1227" type="line"/>
      <point x="1062" y="1445" type="line"/>
      <point x="121" y="1445" type="line"/>
      <point x="121" y="0" type="line"/>
      <point x="1080" y="0" type="line"/>
      <point x="1092" y="210" type="line"/>
      <point x="419" y="219" type="line"/>
      <point x="419" y="651" type="line"/>
      <point x="1016" y="651" type="line"/>
    </contour>
    <contour>
      <point x="660" y="-249" type="curve" smooth="yes"/>
      <point x="607" y="-249"/>
      <point x="582" y="-207"/>
      <point x="582" y="-174" type="curve" smooth="yes"/>
      <point x="582" y="-120"/>
      <point x="608" y="-58"/>
      <point x="684" y="-6" type="curve"/>
      <point x="581" y="-6" type="line"/>
      <point x="506" y="-45"/>
      <point x="391" y="-115"/>
      <point x="391" y="-240" type="curve" smooth="yes"/>
      <point x="391" y="-349"/>
      <point x="486" y="-397"/>
      <point x="599" y="-397" type="curve" smooth="yes"/>
      <point x="665" y="-397"/>
      <point x="734" y="-384"/>
      <point x="799" y="-358" type="curve"/>
      <point x="799" y="-215" type="line"/>
      <point x="799" y="-215"/>
      <point x="722" y="-249"/>
    </contour>
  </outline>
</glyph>
<glyph name="Ecaron" format="1">
  <advance width="1129"/>
  <unicode hex="011A"/>
  <outline>
    <contour>
      <point x="1016" y="869" type="line"/>
      <point x="419" y="869" type="line"/>
      <point x="419" y="1227" type="line"/>
      <point x="1039" y="1227" type="line"/>
      <point x="1062" y="1445" type="line"/>
      <point x="121" y="1445" type="line"/>
      <point x="121" y="0" type="line"/>
      <point x="1080" y="0" type="line"/>
      <point x="1092" y="210" type="line"/>
      <point x="419" y="219" type="line"/>
      <point x="419" y="651" type="line"/>
      <point x="1016" y="651" type="line"/>
    </contour>
    <contour>
      <point x="232" y="1921" type="line"/>
      <point x="510" y="1580" type="line"/>
      <point x="703" y="1580" type="line"/>
      <point x="981" y="1921" type="line"/>
      <point x="761" y="1921" type="line"/>
      <point x="601" y="1763" type="line"/>
      <point x="446" y="1921" type="line"/>
    </contour>
  </outline>
</glyph>
<glyph name="gcedilla" format="1">
  <advance width="1295"/>
  <unicode hex="0123"/>
  <outline>
    <contour>
      <point x="769" y="1723" type="line"/>
      <point x="660" y="1200" type="line"/>
      <point x="430" y="1200" type="line"/>
      <point x="595" y="1723" type="line"/>
    </contour>
    <component base="g"/>
  </outline>
</glyph>
<glyph name="Hcircumflex" format="1">
  <advance width="1474"/>
  <unicode hex="0124"/>
  <outline>
    <contour>
      <point x="1055" y="645" type="line"/>
      <point x="1055" y="0" type="line"/>
      <point x="1353" y="0" type="line"/>
      <point x="1353" y="1445" type="line"/>
      <point x="1055" y="1445" type="line"/>
      <point x="1055" y="855" type="line"/>
      <point x="419" y="855" type="line"/>
      <point x="419" y="1445" type="line"/>
      <point x="121" y="1445" type="line"/>
      <point x="121" y="1" type="line"/>
      <point x="419" y="1" type="line"/>
      <point x="419" y="645" type="line"/>
    </contour>
    <contour>
      <point x="374" y="1580" type="line"/>
      <point x="563" y="1580" type="line"/>
      <point x="733" y="1781" type="line"/>
      <point x="906" y="1580" type="line"/>
      <point x="1100" y="1580" type="line"/>
      <point x="837" y="1962" type="line"/>
      <point x="637" y="1962" type="line"/>
    </contour>
  </outline>
</glyph>
<glyph name="hbar" format="1">
  <advance width="1216"/>
  <unicode hex="0127"/>
  <outline>
    <contour>
      <point x="705" y="869" type="curve" smooth="yes"/>
      <point x="878" y="869"/>
      <point x="885" y="732"/>
      <point x="885" y="538" type="curve"/>
      <point x="884" y="25" type="line"/>
      <point x="1127" y="25" type="line"/>
      <point x="1127" y="620" type="line" smooth="yes"/>
      <point x="1127" y="868"/>
      <point x="1017" y="1052"/>
      <point x="738" y="1052" type="curve" smooth="yes"/>
      <point x="604" y="1052"/>
      <point x="506" y="1014"/>
      <point x="430" y="951" type="curve" smooth="yes"/>
      <point x="414" y="938" type="line"/>
      <point x="414" y="1128" type="line"/>
      <point x="607" y="1128" type="line"/>
      <point x="607" y="1322" type="line"/>
      <point x="414" y="1322" type="line"/>
      <point x="414" y="1492" type="line"/>
      <point x="171" y="1492" type="line"/>
      <point x="171" y="1322" type="line"/>
      <point x="12" y="1322" type="line"/>
      <point x="12" y="1128" type="line"/>
      <point x="171" y="1128" type="line"/>
      <point x="171" y="25" type="line"/>
      <point x="414" y="25" type="line"/>
      <point x="414" y="680" type="line"/>
      <point x="445" y="774"/>
      <point x="563" y="869"/>
    </contour>
  </outline>
</glyph>
<glyph name="itilde" format="1">
  <advance width="587"/>
  <unicode hex="0129"/>
  <outline>
    <contour>
      <point x="410" y="1063" type="line"/>
      <point x="127" y="1063" type="line"/>
      <point x="127" y="0" type="line"/>
      <point x="410" y="0" type="line"/>
    </contour>
    <contour>
      <point x="476" y="1393" type="curve" smooth="yes"/>
      <point x="421" y="1393"/>
      <point x="286" y="1474"/>
      <point x="153" y="1474" type="curve" smooth="yes"/>
      <point x="-15" y="1474"/>
      <point x="-15" y="1316"/>
      <point x="-15" y="1228" type="curve"/>
      <point x="141" y="1228" type="line"/>
      <point x="141" y="1291"/>
      <point x="156" y="1316"/>
      <point x="189" y="1316" type="curve" smooth="yes"/>
      <point x="220" y="1316"/>
      <point x="401" y="1228"/>
      <point x="513" y="1228" type="curve" smooth="yes"/>
      <point x="681" y="1228"/>
      <point x="681" y="1393"/>
      <point x="681" y="1474" type="curve"/>
      <point x="522" y="1474" type="line"/>
      <point x="522" y="1418"/>
      <point x="506" y="1393"/>
    </contour>
  </outline>
</glyph>
<glyph name="Imacron" format="1">
  <advance width="566"/>
  <unicode hex="012A"/>
  <outline>
    <contour>
      <point x="432" y="1445" type="line"/>
      <point x="134" y="1445" type="line"/>
      <point x="134" y="0" type="line"/>
      <point x="432" y="0" type="line"/>
    </contour>
    <contour>
      <point x="568" y="1768" type="line"/>
      <point x="-111" y="1768" type="line"/>
      <point x="-111" y="1605" type="line"/>
      <point x="568" y="1605" type="line"/>
    </contour>
  </outline>
</glyph>
<glyph name="Ibreve" format="1">
  <advance width="566"/>
  <unicode hex="012C"/>
  <outline>
    <contour>
      <point x="432" y="1445" type="line"/>
      <point x="134" y="1445" type="line"/>
      <point x="134" y="0" type="line"/>
      <point x="432" y="0" type="line"/>
    </contour>
    <contour>
      <point x="283" y="1580" type="curve" smooth="yes"/>
      <point x="464" y="1580"/>
      <point x="583" y="1657"/>
      <point x="583" y="1829" type="curve"/>
      <point x="399" y="1829" type="line"/>
      <point x="399" y="1771"/>
      <point x="371" y="1748"/>
      <point x="283" y="1748" type="curve" smooth="yes"/>
      <point x="195" y="1748"/>
      <point x="167" y="1771"/>
      <point x="167" y="1829" type="curve"/>
      <point x="-17" y="1829" type="line"/>
      <point x="-17" y="1658"/>
      <point x="102" y="1580"/>
    </contour>
  </outline>
</glyph>
<glyph name="ibreve" format="1">
  <advance width="587"/>
  <unicode hex="012D"/>
  <outline>
    <contour>
      <point x="410" y="1063" type="line"/>
      <point x="127" y="1063" type="line"/>
      <point x="127" y="0" type="line"/>
      <point x="410" y="0" type="line"/>
    </contour>
    <contour>
      <point x="326" y="1205" type="curve" smooth="yes"/>
      <point x="507" y="1205"/>
      <point x="626" y="1282"/>
      <point x="626" y="1454" type="curve"/>
      <point x="442" y="1454" type="line"/>
      <point x="442" y="1396"/>
      <point x="414" y="1373"/>
      <point x="326" y="1373" type="curve" smooth="yes"/>
      <point x="238" y="1373"/>
      <point x="210" y="1396"/>
      <point x="210" y="1454" type="curve"/>
      <point x="26" y="1454" type="line"/>
      <point x="26" y="1283"/>
      <point x="145" y="1205"/>
    </contour>
  </outline>
</glyph>
<glyph name="Iogonek" format="1">
  <advance width="566"/>
  <unicode hex="012E"/>
  <outline>
    <contour>
      <point x="432" y="1445" type="line"/>
      <point x="134" y="1445" type="line"/>
      <point x="134" y="0" type="line"/>
      <point x="432" y="0" type="line"/>
    </contour>
    <contour>
      <point x="333" y="-250" type="curve" smooth="yes"/>
      <point x="280" y="-250"/>
      <point x="255" y="-208"/>
      <point x="255" y="-175" type="curve" smooth="yes"/>
      <point x="255" y="-121"/>
      <point x="281" y="-59"/>
      <point x="357" y="-7" type="curve"/>
      <point x="254" y="-7" type="line"/>
      <point x="179" y="-46"/>
      <point x="64" y="-116"/>
      <point x="64" y="-241" type="curve" smooth="yes"/>
      <point x="64" y="-350"/>
      <point x="159" y="-398"/>
      <point x="272" y="-398" type="curve" smooth="yes"/>
      <point x="338" y="-398"/>
      <point x="407" y="-385"/>
      <point x="472" y="-359" type="curve"/>
      <point x="472" y="-216" type="line"/>
      <point x="472" y="-216"/>
      <point x="395" y="-250"/>
    </contour>
  </outline>
</glyph>
<glyph name="iogonek" format="1">
  <advance width="527"/>
  <unicode hex="012F"/>
  <outline>
    <contour>
      <point x="402" y="1063" type="line"/>
      <point x="119" y="1063" type="line"/>
      <point x="119" y="0" type="line"/>
      <point x="402" y="0" type="line"/>
    </contour>
    <contour>
      <point x="403" y="1478" type="line"/>
      <point x="119" y="1478" type="line"/>
      <point x="119" y="1246" type="line"/>
      <point x="403" y="1246" type="line"/>
    </contour>
    <contour>
      <point x="312" y="-250" type="curve" smooth="yes"/>
      <point x="259" y="-250"/>
      <point x="234" y="-208"/>
      <point x="234" y="-175" type="curve" smooth="yes"/>
      <point x="234" y="-121"/>
      <point x="260" y="-59"/>
      <point x="336" y="-7" type="curve"/>
      <point x="233" y="-7" type="line"/>
      <point x="158" y="-46"/>
      <point x="43" y="-116"/>
      <point x="43" y="-241" type="curve" smooth="yes"/>
      <point x="43" y="-350"/>
      <point x="138" y="-398"/>
      <point x="251" y="-398" type="curve" smooth="yes"/>
      <point x="317" y="-398"/>
      <point x="386" y="-385"/>
      <point x="451" y="-359" type="curve"/>
      <point x="451" y="-216" type="line"/>
      <point x="451" y="-216"/>
      <point x="374" y="-250"/>
    </contour>
  </outline>
</glyph>
<glyph name="Idotaccent" format="1">
  <advance width="566"/>
  <unicode hex="0130"/>
  <outline>
    <contour>
      <point x="432" y="1445" type="line"/>
      <point x="134" y="1445" type="line"/>
      <point x="134" y="0" type="line"/>
      <point x="432" y="0" type="line"/>
    </contour>
    <contour>
      <point x="177" y="1803" type="line"/>
      <point x="177" y="1580" type="line"/>
      <point x="389" y="1580" type="line"/>
      <point x="389" y="1803" type="line"/>
    </contour>
  </outline>
</glyph>
<glyph name="IJ" format="1">
  <advance width="1494"/>
  <unicode hex="0132"/>
  <outline>
    <contour>
      <point x="445" y="1440" type="line"/>
      <point x="194" y="1440" type="line"/>
      <point x="194" y="15" type="line"/>
      <point x="445" y="15" type="line"/>
    </contour>
    <contour>
      <point x="1077" y="390" type="line" smooth="yes"/>
      <point x="1077" y="235"/>
      <point x="1052" y="189"/>
      <point x="910" y="185" type="curve" smooth="yes"/>
      <point x="836" y="183" type="line"/>
      <point x="836" y="-18" type="line"/>
      <point x="892" y="-18" type="line" smooth="yes"/>
      <point x="1232" y="-18"/>
      <point x="1329" y="117"/>
      <point x="1329" y="439" type="curve" smooth="yes"/>
      <point x="1329" y="1431" type="line"/>
      <point x="1077" y="1430" type="line"/>
    </contour>
  </outline>
</glyph>
<glyph name="ij" format="1">
  <advance width="1041"/>
  <unicode hex="0133"/>
  <outline>
    <contour>
      <point x="878" y="1451" type="line"/>
      <point x="633" y="1451" type="line"/>
      <point x="633" y="1207" type="line"/>
      <point x="878" y="1207" type="line"/>
    </contour>
    <contour>
      <point x="397" y="1450" type="line"/>
      <point x="153" y="1450" type="line"/>
      <point x="153" y="1206" type="line"/>
      <point x="397" y="1206" type="line"/>
    </contour>
    <contour>
      <point x="397" y="1045" type="line"/>
      <point x="153" y="1045" type="line"/>
      <point x="153" y="15" type="line"/>
      <point x="397" y="15" type="line"/>
    </contour>
    <contour>
      <point x="878" y="189" type="curve" smooth="yes"/>
      <point x="878" y="1036" type="line"/>
      <point x="633" y="1036" type="line"/>
      <point x="633" y="142" type="line" smooth="yes"/>
      <point x="633" y="-20"/>
      <point x="613" y="-49"/>
      <point x="464" y="-66" type="curve" smooth="yes"/>
      <point x="437" y="-70" type="line"/>
      <point x="439" y="-285" type="line"/>
      <point x="473" y="-280" type="line" smooth="yes"/>
      <point x="620" y="-262"/>
      <point x="746" y="-238"/>
      <point x="817" y="-140" type="curve" smooth="yes"/>
      <point x="878" y="-55"/>
      <point x="878" y="57"/>
    </contour>
  </outline>
</glyph>
<glyph name="Jcircumflex" format="1">
  <advance width="636"/>
  <unicode hex="0134"/>
  <outline>
    <contour>
      <point x="217" y="130" type="line" smooth="yes"/>
      <point x="217" y="-28"/>
      <point x="191" y="-89"/>
      <point x="37" y="-89" type="curve" smooth="yes"/>
      <point x="-45" y="-89" type="line"/>
      <point x="-28" y="-303" type="line"/>
      <point x="18" y="-303" type="line" smooth="yes"/>
      <point x="405" y="-303"/>
      <point x="515" y="-184"/>
      <point x="515" y="139" type="curve" smooth="yes"/>
      <point x="515" y="1445" type="line"/>
      <point x="217" y="1445" type="line"/>
    </contour>
    <contour>
      <point x="88" y="1600" type="line"/>
      <point x="277" y="1600" type="line"/>
      <point x="447" y="1801" type="line"/>
      <point x="620" y="1600" type="line"/>
      <point x="814" y="1600" type="line"/>
      <point x="551" y="1982" type="line"/>
      <point x="351" y="1982" type="line"/>
    </contour>
  </outline>
</glyph>
<glyph name="jcircumflex" format="1">
  <advance width="548"/>
  <unicode hex="0135"/>
  <outline>
    <contour>
      <point x="-89" y="1133" type="line"/>
      <point x="100" y="1133" type="line"/>
      <point x="270" y="1334" type="line"/>
      <point x="443" y="1133" type="line"/>
      <point x="637" y="1133" type="line"/>
      <point x="374" y="1515" type="line"/>
      <point x="174" y="1515" type="line"/>
    </contour>
    <contour>
      <point x="430" y="1051" type="line"/>
      <point x="171" y="1051" type="line"/>
      <point x="171" y="107" type="line" smooth="yes"/>
      <point x="171" y="-58"/>
      <point x="151" y="-105"/>
      <point x="-2" y="-105" type="curve" smooth="yes"/>
      <point x="-31" y="-105" type="line"/>
      <point x="-31" y="-318" type="line"/>
      <point x="5" y="-318" type="line" smooth="yes"/>
      <point x="354" y="-318"/>
      <point x="430" y="-157"/>
      <point x="430" y="165" type="curve" smooth="yes"/>
    </contour>
  </outline>
</glyph>
<glyph name="kcommaaccent" format="1">
  <advance width="1105"/>
  <unicode hex="0137"/>
  <outline>
    <contour>
      <point x="101" y="1496" type="line"/>
      <point x="101" y="0" type="line"/>
      <point x="384" y="0" type="line"/>
      <point x="384" y="463" type="line"/>
      <point x="458" y="518" type="line"/>
      <point x="822" y="0" type="line"/>
      <point x="1168" y="0" type="line"/>
      <point x="696" y="627" type="line"/>
      <point x="1121" y="1063" type="line"/>
      <point x="783" y="1063" type="line"/>
      <point x="384" y="659" type="line"/>
      <point x="384" y="1516" type="line"/>
    </contour>
    <contour>
      <point x="420" y="-645" type="line"/>
      <point x="604" y="-645" type="line"/>
      <point x="779" y="-122" type="line"/>
      <point x="535" y="-122" type="line"/>
    </contour>
  </outline>
</glyph>
<glyph name="kgreenlandic" format="1">
  <advance width="1137"/>
  <unicode hex="0138"/>
  <outline>
    <contour>
      <point x="868" y="15" type="line"/>
      <point x="1164" y="15" type="line"/>
      <point x="1164" y="15"/>
      <point x="757" y="375"/>
      <point x="571" y="533" type="curve"/>
      <point x="1125" y="1050" type="line"/>
      <point x="821" y="1050" type="line"/>
      <point x="395" y="625" type="line"/>
      <point x="395" y="1050" type="line"/>
      <point x="178" y="1050" type="line"/>
      <point x="179" y="15" type="line"/>
      <point x="396" y="15" type="line"/>
      <point x="396" y="446" type="line"/>
    </contour>
  </outline>
</glyph>
<glyph name="Lcommaaccent" format="1">
  <advance width="1005"/>
  <unicode hex="013B"/>
  <outline>
    <contour>
      <point x="121" y="1445" type="line"/>
      <point x="121" y="0" type="line"/>
      <point x="991" y="0" type="line"/>
      <point x="1007" y="218" type="line"/>
      <point x="419" y="218" type="line"/>
      <point x="419" y="1445" type="line"/>
    </contour>
    <contour>
      <point x="385" y="-625" type="line"/>
      <point x="569" y="-625" type="line"/>
      <point x="744" y="-102" type="line"/>
      <point x="500" y="-102" type="line"/>
    </contour>
  </outline>
</glyph>
<glyph name="Lcaron" format="1">
  <advance width="1005"/>
  <unicode hex="013D"/>
  <outline>
    <contour>
      <point x="121" y="1445" type="line"/>
      <point x="121" y="0" type="line"/>
      <point x="991" y="0" type="line"/>
      <point x="1007" y="218" type="line"/>
      <point x="419" y="218" type="line"/>
      <point x="419" y="1445" type="line"/>
    </contour>
    <contour>
      <point x="1515" y="1478" type="line"/>
      <point x="1275" y="1478" type="line"/>
      <point x="1160" y="948" type="line"/>
      <point x="1342" y="948" type="line"/>
    </contour>
  </outline>
</glyph>
<glyph name="Ldotaccent" format="1">
  <advance width="1005"/>
  <unicode hex="013F"/>
  <outline>
    <contour>
      <point x="121" y="1445" type="line"/>
      <point x="121" y="0" type="line"/>
      <point x="991" y="0" type="line"/>
      <point x="1007" y="218" type="line"/>
      <point x="419" y="218" type="line"/>
      <point x="419" y="1445" type="line"/>
    </contour>
    <contour>
      <point x="406" y="874" type="line"/>
      <point x="406" y="604" type="line"/>
      <point x="672" y="604" type="line"/>
      <point x="672" y="874" type="line"/>
    </contour>
  </outline>
</glyph>
<glyph name="Lslash" format="1">
  <advance width="1175"/>
  <unicode hex="0141"/>
  <outline>
    <contour>
      <point x="724" y="1080" type="line"/>
      <point x="724" y="884" type="line"/>
      <point x="446" y="716" type="line"/>
      <point x="446" y="229" type="line"/>
      <point x="1122" y="230" type="line"/>
      <point x="1122" y="26" type="line"/>
      <point x="202" y="26" type="line"/>
      <point x="202" y="575" type="line"/>
      <point x="24" y="465" type="line"/>
      <point x="24" y="662" type="line"/>
      <point x="202" y="772" type="line"/>
      <point x="202" y="1461" type="line"/>
      <point x="446" y="1461" type="line"/>
      <point x="446" y="912" type="line"/>
    </contour>
  </outline>
</glyph>
<glyph name="lslash" format="1">
  <advance width="558"/>
  <unicode hex="0142"/>
  <outline>
    <contour>
      <point x="169" y="656" type="line"/>
      <point x="10" y="561" type="line"/>
      <point x="10" y="757" type="line"/>
      <point x="169" y="852" type="line"/>
      <point x="169" y="1496" type="line"/>
      <point x="386" y="1496" type="line"/>
      <point x="386" y="960" type="line"/>
      <point x="549" y="1061" type="line"/>
      <point x="549" y="867" type="line"/>
      <point x="386" y="772" type="line"/>
      <point x="386" y="25" type="line"/>
      <point x="169" y="25" type="line"/>
    </contour>
  </outline>
</glyph>
<glyph name="Nacute" format="1">
  <advance width="1448"/>
  <unicode hex="0143"/>
  <outline>
    <contour>
      <point x="1327" y="0" type="line"/>
      <point x="1327" y="1445" type="line"/>
      <point x="1054" y="1445" type="line"/>
      <point x="1054" y="471" type="line"/>
      <point x="369" y="1445" type="line"/>
      <point x="121" y="1445" type="line"/>
      <point x="121" y="0" type="line"/>
      <point x="394" y="0" type="line"/>
      <point x="394" y="975" type="line"/>
      <point x="1073" y="0" type="line"/>
    </contour>
    <contour>
      <point x="1088" y="1982" type="line"/>
      <point x="774" y="1982" type="line"/>
      <point x="608" y="1600" type="line"/>
      <point x="777" y="1600" type="line"/>
    </contour>
  </outline>
</glyph>
<glyph name="nacute" format="1">
  <advance width="1197"/>
  <unicode hex="0144"/>
  <outline>
    <contour>
      <point x="839" y="1558" type="line"/>
      <point x="525" y="1558" type="line"/>
      <point x="359" y="1176" type="line"/>
      <point x="528" y="1176" type="line"/>
    </contour>
    <contour>
      <point x="738" y="1103" type="curve" smooth="yes"/>
      <point x="578" y="1106"/>
      <point x="444" y="1021"/>
      <point x="360" y="922" type="curve"/>
      <point x="337" y="1063" type="line"/>
      <point x="101" y="1063" type="line"/>
      <point x="101" y="831" type="line"/>
      <point x="101" y="0" type="line"/>
      <point x="384" y="0" type="line"/>
      <point x="384" y="724" type="line"/>
      <point x="430" y="809"/>
      <point x="541" y="894"/>
      <point x="646" y="894" type="curve" smooth="yes"/>
      <point x="813" y="894"/>
      <point x="822" y="768"/>
      <point x="822" y="620" type="curve" smooth="yes"/>
      <point x="822" y="0" type="line"/>
      <point x="1105" y="0" type="line"/>
      <point x="1105" y="647" type="line" smooth="yes"/>
      <point x="1105" y="909"/>
      <point x="996" y="1098"/>
    </contour>
  </outline>
</glyph>
<glyph name="Ncaron" format="1">
  <advance width="1448"/>
  <unicode hex="0147"/>
  <outline>
    <contour>
      <point x="1327" y="0" type="line"/>
      <point x="1327" y="1445" type="line"/>
      <point x="1054" y="1445" type="line"/>
      <point x="1054" y="471" type="line"/>
      <point x="369" y="1445" type="line"/>
      <point x="121" y="1445" type="line"/>
      <point x="121" y="0" type="line"/>
      <point x="394" y="0" type="line"/>
      <point x="394" y="975" type="line"/>
      <point x="1073" y="0" type="line"/>
    </contour>
    <contour>
      <point x="350" y="1921" type="line"/>
      <point x="628" y="1580" type="line"/>
      <point x="821" y="1580" type="line"/>
      <point x="1099" y="1921" type="line"/>
      <point x="879" y="1921" type="line"/>
      <point x="719" y="1763" type="line"/>
      <point x="564" y="1921" type="line"/>
    </contour>
  </outline>
</glyph>
<glyph name="ncaron" format="1">
  <advance width="1197"/>
  <unicode hex="0148"/>
  <outline>
    <contour>
      <point x="738" y="1103" type="curve" smooth="yes"/>
      <point x="578" y="1106"/>
      <point x="444" y="1021"/>
      <point x="360" y="922" type="curve"/>
      <point x="337" y="1063" type="line"/>
      <point x="101" y="1063" type="line"/>
      <point x="101" y="831" type="line"/>
      <point x="101" y="0" type="line"/>
      <point x="384" y="0" type="line"/>
      <point x="384" y="724" type="line"/>
      <point x="430" y="809"/>
      <point x="541" y="894"/>
      <point x="646" y="894" type="curve" smooth="yes"/>
      <point x="813" y="894"/>
      <point x="822" y="768"/>
      <point x="822" y="620" type="curve" smooth="yes"/>
      <point x="822" y="0" type="line"/>
      <point x="1105" y="0" type="line"/>
      <point x="1105" y="647" type="line" smooth="yes"/>
      <point x="1105" y="909"/>
      <point x="996" y="1098"/>
    </contour>
    <contour>
      <point x="228" y="1546" type="line"/>
      <point x="506" y="1205" type="line"/>
      <point x="699" y="1205" type="line"/>
      <point x="977" y="1546" type="line"/>
      <point x="757" y="1546" type="line"/>
      <point x="597" y="1388" type="line"/>
      <point x="442" y="1546" type="line"/>
    </contour>
  </outline>
</glyph>
<glyph name="Omacron" format="1">
  <advance width="1595"/>
  <unicode hex="014C"/>
  <outline>
    <contour>
      <point x="1100" y="1629" type="line"/>
      <point x="1100" y="1826" type="line"/>
      <point x="497" y="1826" type="line"/>
      <point x="497" y="1629" type="line"/>
    </contour>
    <contour>
      <point x="798.5" y="1430" type="line"/>
    </contour>
    <contour>
      <point x="797.0" y="-20" type="curve" smooth="yes"/>
      <point x="1211.0" y="-20"/>
      <point x="1523.0" y="256"/>
      <point x="1523.0" y="727" type="curve" smooth="yes"/>
      <point x="1523.0" y="1202"/>
      <point x="1212.0" y="1478"/>
      <point x="797.0" y="1478" type="curve" smooth="yes"/>
      <point x="383.0" y="1478"/>
      <point x="72.0" y="1202"/>
      <point x="72.0" y="727" type="curve" smooth="yes"/>
      <point x="72.0" y="256"/>
      <point x="383.0" y="-20"/>
    </contour>
    <contour>
      <point x="799.0" y="1243" type="curve" smooth="yes"/>
      <point x="1085.0" y="1243"/>
      <point x="1226.0" y="1027"/>
      <point x="1226.0" y="722" type="curve" smooth="yes"/>
      <point x="1226.0" y="416"/>
      <point x="1083.0" y="211"/>
      <point x="799.0" y="211" type="curve" smooth="yes"/>
      <point x="516.0" y="211"/>
      <point x="374.0" y="416"/>
      <point x="374.0" y="722" type="curve" smooth="yes"/>
      <point x="374.0" y="1027"/>
      <point x="514.0" y="1243"/>
    </contour>
  </outline>
</glyph>
<glyph name="Obreve" format="1">
  <advance width="1595"/>
  <unicode hex="014E"/>
  <outline>
    <contour>
      <point x="797" y="-20" type="curve" smooth="yes"/>
      <point x="1211" y="-20"/>
      <point x="1523" y="256"/>
      <point x="1523" y="727" type="curve" smooth="yes"/>
      <point x="1523" y="1202"/>
      <point x="1212" y="1478"/>
      <point x="797" y="1478" type="curve" smooth="yes"/>
      <point x="383" y="1478"/>
      <point x="72" y="1202"/>
      <point x="72" y="727" type="curve" smooth="yes"/>
      <point x="72" y="256"/>
      <point x="383" y="-20"/>
    </contour>
    <contour>
      <point x="799" y="1243" type="curve" smooth="yes"/>
      <point x="1085" y="1243"/>
      <point x="1226" y="1027"/>
      <point x="1226" y="722" type="curve" smooth="yes"/>
      <point x="1226" y="416"/>
      <point x="1083" y="211"/>
      <point x="799" y="211" type="curve" smooth="yes"/>
      <point x="516" y="211"/>
      <point x="374" y="416"/>
      <point x="374" y="722" type="curve" smooth="yes"/>
      <point x="374" y="1027"/>
      <point x="514" y="1243"/>
    </contour>
    <contour>
      <point x="798" y="1580" type="curve" smooth="yes"/>
      <point x="979" y="1580"/>
      <point x="1098" y="1657"/>
      <point x="1098" y="1829" type="curve"/>
      <point x="914" y="1829" type="line"/>
      <point x="914" y="1771"/>
      <point x="886" y="1748"/>
      <point x="798" y="1748" type="curve" smooth="yes"/>
      <point x="710" y="1748"/>
      <point x="682" y="1771"/>
      <point x="682" y="1829" type="curve"/>
      <point x="498" y="1829" type="line"/>
      <point x="498" y="1658"/>
      <point x="617" y="1580"/>
    </contour>
  </outline>
</glyph>
<glyph name="obreve" format="1">
  <advance width="1174"/>
  <unicode hex="014F"/>
  <outline>
    <contour>
      <point x="1112" y="538" type="curve" smooth="yes"/>
      <point x="1112" y="868"/>
      <point x="933" y="1103"/>
      <point x="587" y="1103" type="curve" smooth="yes"/>
      <point x="241" y="1103"/>
      <point x="62" y="868"/>
      <point x="62" y="538" type="curve" smooth="yes"/>
      <point x="62" y="215"/>
      <point x="241" y="-20"/>
      <point x="587" y="-20" type="curve" smooth="yes"/>
      <point x="933" y="-20"/>
      <point x="1112" y="215"/>
    </contour>
    <contour>
      <point x="840" y="538" type="curve" smooth="yes"/>
      <point x="840" y="306"/>
      <point x="738" y="186"/>
      <point x="587" y="186" type="curve" smooth="yes"/>
      <point x="436" y="186"/>
      <point x="334" y="306"/>
      <point x="334" y="538" type="curve" smooth="yes"/>
      <point x="334" y="775"/>
      <point x="438" y="894"/>
      <point x="587" y="894" type="curve" smooth="yes"/>
      <point x="736" y="894"/>
      <point x="840" y="775"/>
    </contour>
    <contour>
      <point x="587" y="1205" type="curve" smooth="yes"/>
      <point x="768" y="1205"/>
      <point x="887" y="1282"/>
      <point x="887" y="1454" type="curve"/>
      <point x="703" y="1454" type="line"/>
      <point x="703" y="1396"/>
      <point x="675" y="1373"/>
      <point x="587" y="1373" type="curve" smooth="yes"/>
      <point x="499" y="1373"/>
      <point x="471" y="1396"/>
      <point x="471" y="1454" type="curve"/>
      <point x="287" y="1454" type="line"/>
      <point x="287" y="1283"/>
      <point x="406" y="1205"/>
    </contour>
  </outline>
</glyph>
<glyph name="OE" format="1">
  <advance width="2299"/>
  <unicode hex="0152"/>
  <outline>
    <contour>
      <point x="826" y="1478" type="curve" smooth="yes"/>
      <point x="416" y="1478"/>
      <point x="106" y="1162"/>
      <point x="106" y="727" type="curve" smooth="yes"/>
      <point x="106" y="298"/>
      <point x="417" y="-18"/>
      <point x="826" y="-18" type="curve" smooth="yes"/>
      <point x="966" y="-18"/>
      <point x="1082" y="21"/>
      <point x="1181" y="86" type="curve"/>
      <point x="1181" y="5" type="line"/>
      <point x="2171" y="5" type="line"/>
      <point x="2189" y="226" type="line"/>
      <point x="1464" y="226" type="line"/>
      <point x="1464" y="651" type="line"/>
      <point x="2113" y="651" type="line"/>
      <point x="2113" y="869" type="line"/>
      <point x="1464" y="869" type="line"/>
      <point x="1464" y="1228" type="line"/>
      <point x="2141" y="1228" type="line"/>
      <point x="2159" y="1450" type="line"/>
      <point x="1181" y="1450" type="line"/>
      <point x="1181" y="1374" type="line"/>
      <point x="1082" y="1438"/>
      <point x="966" y="1478"/>
    </contour>
    <contour>
      <point x="1181" y="1118" type="curve"/>
      <point x="1181" y="333" type="line"/>
      <point x="1108" y="260"/>
      <point x="992" y="207"/>
      <point x="826" y="207" type="curve" smooth="yes"/>
      <point x="540" y="207"/>
      <point x="392" y="457"/>
      <point x="392" y="722" type="curve" smooth="yes"/>
      <point x="392" y="987"/>
      <point x="538" y="1253"/>
      <point x="826" y="1253" type="curve" smooth="yes"/>
      <point x="992" y="1253"/>
      <point x="1108" y="1196"/>
    </contour>
  </outline>
</glyph>
<glyph name="oe" format="1">
  <advance width="1848"/>
  <unicode hex="0153"/>
  <outline>
    <contour>
      <point x="1758.0" y="105.0" type="curve"/>
      <point x="1679.0" y="278.0" type="line"/>
      <point x="1616.0" y="230.0"/>
      <point x="1523.0" y="184.0"/>
      <point x="1391.0" y="184.0" type="curve" smooth="yes"/>
      <point x="1206.0" y="184.0"/>
      <point x="1107.0" y="280.0"/>
      <point x="1101.0" y="475.0" type="curve"/>
      <point x="1787.0" y="475.0" type="line"/>
      <point x="1787.0" y="475.0"/>
      <point x="1789.0" y="536.0"/>
      <point x="1789.0" y="563.0" type="curve" smooth="yes"/>
      <point x="1789.0" y="848.0"/>
      <point x="1672.0" y="1103.0"/>
      <point x="1349.0" y="1103.0" type="curve" smooth="yes"/>
      <point x="1169.0" y="1103.0"/>
      <point x="1042.0" y="1023.0"/>
      <point x="974.0" y="905.0" type="curve"/>
      <point x="899.0" y="1013.0"/>
      <point x="772.0" y="1103.0"/>
      <point x="591.0" y="1103.0" type="curve" smooth="yes"/>
      <point x="231.0" y="1103.0"/>
      <point x="67.0" y="850.0"/>
      <point x="67.0" y="535.0" type="curve" smooth="yes"/>
      <point x="67.0" y="235.0"/>
      <point x="231.0" y="-20.0"/>
      <point x="591.0" y="-20.0" type="curve" smooth="yes"/>
      <point x="772.0" y="-20.0"/>
      <point x="906.0" y="58.0"/>
      <point x="972.0" y="165.0" type="curve"/>
      <point x="1043.0" y="47.0"/>
      <point x="1180.0" y="-20.0"/>
      <point x="1384.0" y="-20.0" type="curve" smooth="yes"/>
      <point x="1564.0" y="-20.0"/>
      <point x="1665.0" y="34.0"/>
    </contour>
    <contour>
      <point x="591.0" y="186.0" type="curve" smooth="yes"/>
      <point x="448.0" y="186.0"/>
      <point x="339.0" y="299.0"/>
      <point x="339.0" y="535.0" type="curve" smooth="yes"/>
      <point x="339.0" y="777.0"/>
      <point x="445.0" y="894.0"/>
      <point x="591.0" y="894.0" type="curve" smooth="yes"/>
      <point x="734.0" y="894.0"/>
      <point x="845.0" y="785.0"/>
      <point x="845.0" y="535.0" type="curve" smooth="yes"/>
      <point x="845.0" y="294.0"/>
      <point x="734.0" y="186.0"/>
    </contour>
    <contour>
      <point x="1104.0" y="631.0" type="line"/>
      <point x="1119.0" y="844.0"/>
      <point x="1238.0" y="895.0"/>
      <point x="1330.0" y="895.0" type="curve" smooth="yes"/>
      <point x="1466.0" y="895.0"/>
      <point x="1532.0" y="812.0"/>
      <point x="1532.0" y="640.0" type="curve" smooth="yes"/>
      <point x="1532.0" y="631.0" type="line"/>
    </contour>
    <contour>
      <point x="924.0" y="1059.0" type="move" name="top"/>
    </contour>
  </outline>
</glyph>
<glyph name="Racute" format="1">
  <advance width="1303"/>
  <unicode hex="0154"/>
  <outline>
    <contour>
      <point x="1314" y="0" type="line"/>
      <point x="1110" y="418" type="line" smooth="yes"/>
      <point x="1064" y="510"/>
      <point x="1032" y="580"/>
      <point x="970" y="651" type="curve"/>
      <point x="1136" y="713"/>
      <point x="1229" y="833"/>
      <point x="1229" y="1035" type="curve" smooth="yes"/>
      <point x="1229" y="1371"/>
      <point x="1016" y="1445"/>
      <point x="678" y="1445" type="curve" smooth="yes"/>
      <point x="121" y="1445" type="line"/>
      <point x="121" y="0" type="line"/>
      <point x="420" y="0" type="line"/>
      <point x="420" y="598" type="line"/>
      <point x="627" y="598" type="line" smooth="yes"/>
      <point x="669" y="598"/>
      <point x="704" y="597"/>
      <point x="717" y="595" type="curve"/>
      <point x="717" y="595"/>
      <point x="807" y="423"/>
      <point x="843" y="345" type="curve" smooth="yes"/>
      <point x="1001" y="0" type="line"/>
    </contour>
    <contour>
      <point x="420" y="1228" type="line"/>
      <point x="693" y="1228" type="line" smooth="yes"/>
      <point x="862" y="1228"/>
      <point x="953" y="1170"/>
      <point x="953" y="1030" type="curve" smooth="yes"/>
      <point x="953" y="872"/>
      <point x="872" y="809"/>
      <point x="686" y="809" type="curve" smooth="yes"/>
      <point x="420" y="809" type="line"/>
    </contour>
    <contour>
      <point x="1010" y="1982" type="line"/>
      <point x="696" y="1982" type="line"/>
      <point x="530" y="1600" type="line"/>
      <point x="699" y="1600" type="line"/>
    </contour>
  </outline>
</glyph>
<glyph name="racute" format="1">
  <advance width="692"/>
  <unicode hex="0155"/>
  <outline>
    <contour>
      <point x="101" y="0" type="line"/>
      <point x="384" y="0" type="line"/>
      <point x="384" y="586" type="line" smooth="yes"/>
      <point x="384" y="743"/>
      <point x="421" y="848"/>
      <point x="622" y="848" type="curve" smooth="yes"/>
      <point x="697" y="848" type="line"/>
      <point x="683" y="1063" type="line"/>
      <point x="655" y="1063" type="line" smooth="yes"/>
      <point x="522" y="1063"/>
      <point x="451" y="1013"/>
      <point x="383" y="918" type="curve"/>
      <point x="363" y="1063" type="line"/>
      <point x="101" y="1063" type="line"/>
      <point x="101" y="825" type="line"/>
    </contour>
    <contour>
      <point x="795" y="1587" type="line"/>
      <point x="481" y="1587" type="line"/>
      <point x="315" y="1205" type="line"/>
      <point x="484" y="1205" type="line"/>
    </contour>
  </outline>
</glyph>
<glyph name="rcommaaccent" format="1">
  <advance width="692"/>
  <unicode hex="0157"/>
  <outline>
    <contour>
      <point x="101" y="0" type="line"/>
      <point x="384" y="0" type="line"/>
      <point x="384" y="586" type="line" smooth="yes"/>
      <point x="384" y="743"/>
      <point x="421" y="848"/>
      <point x="622" y="848" type="curve" smooth="yes"/>
      <point x="697" y="848" type="line"/>
      <point x="683" y="1063" type="line"/>
      <point x="655" y="1063" type="line" smooth="yes"/>
      <point x="522" y="1063"/>
      <point x="451" y="1013"/>
      <point x="383" y="918" type="curve"/>
      <point x="363" y="1063" type="line"/>
      <point x="101" y="1063" type="line"/>
      <point x="101" y="825" type="line"/>
    </contour>
    <contour>
      <point x="24" y="-645" type="line"/>
      <point x="208" y="-645" type="line"/>
      <point x="383" y="-122" type="line"/>
      <point x="139" y="-122" type="line"/>
    </contour>
  </outline>
</glyph>
<glyph name="rcaron" format="1">
  <advance width="692"/>
  <unicode hex="0159"/>
  <outline>
    <contour>
      <point x="-41" y="1515" type="line"/>
      <point x="237" y="1174" type="line"/>
      <point x="430" y="1174" type="line"/>
      <point x="708" y="1515" type="line"/>
      <point x="488" y="1515" type="line"/>
      <point x="328" y="1357" type="line"/>
      <point x="173" y="1515" type="line"/>
    </contour>
    <contour>
      <point x="101" y="0" type="line"/>
      <point x="384" y="0" type="line"/>
      <point x="384" y="586" type="line" smooth="yes"/>
      <point x="384" y="743"/>
      <point x="421" y="848"/>
      <point x="622" y="848" type="curve" smooth="yes"/>
      <point x="697" y="848" type="line"/>
      <point x="683" y="1063" type="line"/>
      <point x="655" y="1063" type="line" smooth="yes"/>
      <point x="522" y="1063"/>
      <point x="451" y="1013"/>
      <point x="383" y="918" type="curve"/>
      <point x="363" y="1063" type="line"/>
      <point x="101" y="1063" type="line"/>
      <point x="101" y="825" type="line"/>
    </contour>
  </outline>
</glyph>
<glyph name="Tcaron" format="1">
  <advance width="1090"/>
  <unicode hex="0164"/>
  <outline>
    <contour>
      <point x="-27" y="1227" type="line"/>
      <point x="395" y="1227" type="line"/>
      <point x="395" y="0" type="line"/>
      <point x="693" y="0" type="line"/>
      <point x="693" y="1227" type="line"/>
      <point x="1117" y="1227" type="line"/>
      <point x="1117" y="1445" type="line"/>
      <point x="-27" y="1445" type="line"/>
    </contour>
    <contour>
      <point x="170" y="1921" type="line"/>
      <point x="448" y="1580" type="line"/>
      <point x="641" y="1580" type="line"/>
      <point x="919" y="1921" type="line"/>
      <point x="699" y="1921" type="line"/>
      <point x="539" y="1763" type="line"/>
      <point x="384" y="1921" type="line"/>
    </contour>
  </outline>
</glyph>
<glyph name="Utilde" format="1">
  <advance width="1390"/>
  <unicode hex="0168"/>
  <outline>
    <contour>
      <point x="695" y="-20" type="curve" smooth="yes"/>
      <point x="1092" y="-20"/>
      <point x="1283" y="177"/>
      <point x="1283" y="538" type="curve" smooth="yes"/>
      <point x="1283" y="1445" type="line"/>
      <point x="985" y="1445" type="line"/>
      <point x="985" y="553" type="line" smooth="yes"/>
      <point x="985" y="314"/>
      <point x="914" y="208"/>
      <point x="695" y="208" type="curve" smooth="yes"/>
      <point x="476" y="208"/>
      <point x="405" y="314"/>
      <point x="405" y="553" type="curve" smooth="yes"/>
      <point x="405" y="1445" type="line"/>
      <point x="107" y="1445" type="line"/>
      <point x="107" y="538" type="line" smooth="yes"/>
      <point x="107" y="177"/>
      <point x="298" y="-20"/>
    </contour>
    <contour>
      <point x="838" y="1745" type="curve" smooth="yes"/>
      <point x="783" y="1745"/>
      <point x="648" y="1826"/>
      <point x="515" y="1826" type="curve" smooth="yes"/>
      <point x="347" y="1826"/>
      <point x="347" y="1668"/>
      <point x="347" y="1580" type="curve"/>
      <point x="503" y="1580" type="line"/>
      <point x="503" y="1643"/>
      <point x="518" y="1668"/>
      <point x="551" y="1668" type="curve" smooth="yes"/>
      <point x="582" y="1668"/>
      <point x="763" y="1580"/>
      <point x="875" y="1580" type="curve" smooth="yes"/>
      <point x="1043" y="1580"/>
      <point x="1043" y="1745"/>
      <point x="1043" y="1826" type="curve"/>
      <point x="884" y="1826" type="line"/>
      <point x="884" y="1770"/>
      <point x="868" y="1745"/>
    </contour>
  </outline>
</glyph>
<glyph name="utilde" format="1">
  <advance width="1126"/>
  <unicode hex="0169"/>
  <outline>
    <contour>
      <point x="89" y="386" type="line" smooth="yes"/>
      <point x="89" y="108"/>
      <point x="282" y="-20"/>
      <point x="563" y="-20" type="curve" smooth="yes"/>
      <point x="845" y="-20"/>
      <point x="1037" y="111"/>
      <point x="1037" y="386" type="curve" smooth="yes"/>
      <point x="1037" y="1063" type="line"/>
      <point x="754" y="1063" type="line"/>
      <point x="754" y="389" type="line" smooth="yes"/>
      <point x="754" y="239"/>
      <point x="680" y="186"/>
      <point x="563" y="186" type="curve" smooth="yes"/>
      <point x="445" y="186"/>
      <point x="372" y="239"/>
      <point x="372" y="389" type="curve" smooth="yes"/>
      <point x="372" y="1063" type="line"/>
      <point x="89" y="1063" type="line"/>
    </contour>
    <contour>
      <point x="720" y="1370" type="curve" smooth="yes"/>
      <point x="665" y="1370"/>
      <point x="530" y="1451"/>
      <point x="397" y="1451" type="curve" smooth="yes"/>
      <point x="229" y="1451"/>
      <point x="229" y="1293"/>
      <point x="229" y="1205" type="curve"/>
      <point x="385" y="1205" type="line"/>
      <point x="385" y="1268"/>
      <point x="400" y="1293"/>
      <point x="433" y="1293" type="curve" smooth="yes"/>
      <point x="464" y="1293"/>
      <point x="645" y="1205"/>
      <point x="757" y="1205" type="curve" smooth="yes"/>
      <point x="925" y="1205"/>
      <point x="925" y="1370"/>
      <point x="925" y="1451" type="curve"/>
      <point x="766" y="1451" type="line"/>
      <point x="766" y="1395"/>
      <point x="750" y="1370"/>
    </contour>
  </outline>
</glyph>
<glyph name="Ubreve" format="1">
  <advance width="1390"/>
  <unicode hex="016C"/>
  <outline>
    <contour>
      <point x="695" y="-20" type="curve" smooth="yes"/>
      <point x="1092" y="-20"/>
      <point x="1283" y="177"/>
      <point x="1283" y="538" type="curve" smooth="yes"/>
      <point x="1283" y="1445" type="line"/>
      <point x="985" y="1445" type="line"/>
      <point x="985" y="553" type="line" smooth="yes"/>
      <point x="985" y="314"/>
      <point x="914" y="208"/>
      <point x="695" y="208" type="curve" smooth="yes"/>
      <point x="476" y="208"/>
      <point x="405" y="314"/>
      <point x="405" y="553" type="curve" smooth="yes"/>
      <point x="405" y="1445" type="line"/>
      <point x="107" y="1445" type="line"/>
      <point x="107" y="538" type="line" smooth="yes"/>
      <point x="107" y="177"/>
      <point x="298" y="-20"/>
    </contour>
    <contour>
      <point x="695" y="1580" type="curve" smooth="yes"/>
      <point x="876" y="1580"/>
      <point x="995" y="1657"/>
      <point x="995" y="1829" type="curve"/>
      <point x="811" y="1829" type="line"/>
      <point x="811" y="1771"/>
      <point x="783" y="1748"/>
      <point x="695" y="1748" type="curve" smooth="yes"/>
      <point x="607" y="1748"/>
      <point x="579" y="1771"/>
      <point x="579" y="1829" type="curve"/>
      <point x="395" y="1829" type="line"/>
      <point x="395" y="1658"/>
      <point x="514" y="1580"/>
    </contour>
  </outline>
</glyph>
<glyph name="ubreve" format="1">
  <advance width="1126"/>
  <unicode hex="016D"/>
  <outline>
    <contour>
      <point x="89" y="386" type="line" smooth="yes"/>
      <point x="89" y="108"/>
      <point x="282" y="-20"/>
      <point x="563" y="-20" type="curve" smooth="yes"/>
      <point x="845" y="-20"/>
      <point x="1037" y="111"/>
      <point x="1037" y="386" type="curve" smooth="yes"/>
      <point x="1037" y="1063" type="line"/>
      <point x="754" y="1063" type="line"/>
      <point x="754" y="389" type="line" smooth="yes"/>
      <point x="754" y="239"/>
      <point x="680" y="186"/>
      <point x="563" y="186" type="curve" smooth="yes"/>
      <point x="445" y="186"/>
      <point x="372" y="239"/>
      <point x="372" y="389" type="curve" smooth="yes"/>
      <point x="372" y="1063" type="line"/>
      <point x="89" y="1063" type="line"/>
    </contour>
    <contour>
      <point x="577" y="1205" type="curve" smooth="yes"/>
      <point x="758" y="1205"/>
      <point x="877" y="1282"/>
      <point x="877" y="1454" type="curve"/>
      <point x="693" y="1454" type="line"/>
      <point x="693" y="1396"/>
      <point x="665" y="1373"/>
      <point x="577" y="1373" type="curve" smooth="yes"/>
      <point x="489" y="1373"/>
      <point x="461" y="1396"/>
      <point x="461" y="1454" type="curve"/>
      <point x="277" y="1454" type="line"/>
      <point x="277" y="1283"/>
      <point x="396" y="1205"/>
    </contour>
  </outline>
</glyph>
<glyph name="Uring" format="1">
  <advance width="1390"/>
  <unicode hex="016E"/>
  <outline>
    <contour>
      <point x="695" y="-20" type="curve" smooth="yes"/>
      <point x="1092" y="-20"/>
      <point x="1283" y="177"/>
      <point x="1283" y="538" type="curve" smooth="yes"/>
      <point x="1283" y="1445" type="line"/>
      <point x="985" y="1445" type="line"/>
      <point x="985" y="553" type="line" smooth="yes"/>
      <point x="985" y="314"/>
      <point x="914" y="208"/>
      <point x="695" y="208" type="curve" smooth="yes"/>
      <point x="476" y="208"/>
      <point x="405" y="314"/>
      <point x="405" y="553" type="curve" smooth="yes"/>
      <point x="405" y="1445" type="line"/>
      <point x="107" y="1445" type="line"/>
      <point x="107" y="538" type="line" smooth="yes"/>
      <point x="107" y="177"/>
      <point x="298" y="-20"/>
    </contour>
    <contour>
      <point x="694" y="1679" type="curve" smooth="yes"/>
      <point x="623" y="1679"/>
      <point x="588" y="1734"/>
      <point x="588" y="1790" type="curve" smooth="yes"/>
      <point x="588" y="1845"/>
      <point x="624" y="1901"/>
      <point x="694" y="1901" type="curve" smooth="yes"/>
      <point x="765" y="1901"/>
      <point x="801" y="1845"/>
      <point x="801" y="1790" type="curve" smooth="yes"/>
      <point x="801" y="1734"/>
      <point x="766" y="1679"/>
    </contour>
    <contour>
      <point x="694" y="1996" type="curve" smooth="yes"/>
      <point x="543" y="1996"/>
      <point x="469" y="1894"/>
      <point x="469" y="1790" type="curve" smooth="yes"/>
      <point x="469" y="1686"/>
      <point x="545" y="1580"/>
      <point x="694" y="1580" type="curve" smooth="yes"/>
      <point x="843" y="1580"/>
      <point x="920" y="1686"/>
      <point x="920" y="1790" type="curve" smooth="yes"/>
      <point x="920" y="1894"/>
      <point x="846" y="1996"/>
    </contour>
  </outline>
</glyph>
<glyph name="Uhungarumlaut" format="1">
  <advance width="1390"/>
  <unicode hex="0170"/>
  <outline>
    <contour>
      <point x="695" y="-20" type="curve" smooth="yes"/>
      <point x="1092" y="-20"/>
      <point x="1283" y="177"/>
      <point x="1283" y="538" type="curve" smooth="yes"/>
      <point x="1283" y="1445" type="line"/>
      <point x="985" y="1445" type="line"/>
      <point x="985" y="553" type="line" smooth="yes"/>
      <point x="985" y="314"/>
      <point x="914" y="208"/>
      <point x="695" y="208" type="curve" smooth="yes"/>
      <point x="476" y="208"/>
      <point x="405" y="314"/>
      <point x="405" y="553" type="curve" smooth="yes"/>
      <point x="405" y="1445" type="line"/>
      <point x="107" y="1445" type="line"/>
      <point x="107" y="538" type="line" smooth="yes"/>
      <point x="107" y="177"/>
      <point x="298" y="-20"/>
    </contour>
    <contour>
      <point x="967" y="1950" type="line"/>
      <point x="725" y="1950" type="line"/>
      <point x="471" y="1580" type="line"/>
      <point x="612" y="1580" type="line"/>
    </contour>
    <contour>
      <point x="1293" y="1950" type="line"/>
      <point x="1051" y="1950" type="line"/>
      <point x="797" y="1580" type="line"/>
      <point x="938" y="1580" type="line"/>
    </contour>
  </outline>
</glyph>
<glyph name="Uogonek" format="1">
  <advance width="1390"/>
  <unicode hex="0172"/>
  <outline>
    <contour>
      <point x="695" y="-20" type="curve" smooth="yes"/>
      <point x="1092" y="-20"/>
      <point x="1283" y="177"/>
      <point x="1283" y="538" type="curve" smooth="yes"/>
      <point x="1283" y="1445" type="line"/>
      <point x="985" y="1445" type="line"/>
      <point x="985" y="553" type="line" smooth="yes"/>
      <point x="985" y="314"/>
      <point x="914" y="208"/>
      <point x="695" y="208" type="curve" smooth="yes"/>
      <point x="476" y="208"/>
      <point x="405" y="314"/>
      <point x="405" y="553" type="curve" smooth="yes"/>
      <point x="405" y="1445" type="line"/>
      <point x="107" y="1445" type="line"/>
      <point x="107" y="538" type="line" smooth="yes"/>
      <point x="107" y="177"/>
      <point x="298" y="-20"/>
    </contour>
    <contour>
      <point x="722" y="-250" type="curve" smooth="yes"/>
      <point x="669" y="-250"/>
      <point x="644" y="-208"/>
      <point x="644" y="-175" type="curve" smooth="yes"/>
      <point x="644" y="-121"/>
      <point x="670" y="-59"/>
      <point x="746" y="-7" type="curve"/>
      <point x="643" y="-7" type="line"/>
      <point x="568" y="-46"/>
      <point x="453" y="-116"/>
      <point x="453" y="-241" type="curve" smooth="yes"/>
      <point x="453" y="-350"/>
      <point x="548" y="-398"/>
      <point x="661" y="-398" type="curve" smooth="yes"/>
      <point x="727" y="-398"/>
      <point x="796" y="-385"/>
      <point x="861" y="-359" type="curve"/>
      <point x="861" y="-216" type="line"/>
      <point x="861" y="-216"/>
      <point x="784" y="-250"/>
    </contour>
  </outline>
</glyph>
